{
  "accessors": [
    {
      "bufferView": 2,
      "componentType": 5126,
      "count": 391,
      "max": [
        0.7803440093994141,
        0.22598299384117126,
        0.3639479875564575
      ],
      "min": [
        -0.7803469896316528,
        0.11609300225973129,
        -0.3639470040798187
      ],
      "type": "VEC3"
    },
    {
      "bufferView": 2,
      "byteOffset": 4692,
      "componentType": 5126,
      "count": 391,
      "max": [
        0.9233575463294983,
        1.0,
        0.9066410064697266
      ],
      "min": [
        -0.9231594204902649,
        -1.0,
        -0.9065302610397339
      ],
      "type": "VEC3"
    },
    {
      "bufferView": 3,
      "componentType": 5126,
      "count": 391,
      "max": [
        1.0,
        0.920557975769043,
        0.7738239169120789,
        1.0
      ],
      "min": [
        -0.38325685262680054,
        -0.9204728603363037,
        -1.0,
        1.0
      ],
      "type": "VEC4"
    },
    {
      "bufferView": 1,
      "componentType": 5126,
      "count": 391,
      "max": [
        0.856003999710083,
        0.9926999807357788
      ],
      "min": [
        0.005065579898655415,
        0.009789479896426201
      ],
      "type": "VEC2"
    },
    {
      "bufferView": 0,
      "componentType": 5125,
      "count": 960,
      "type": "SCALAR"
    },
    {
      "bufferView": 2,
      "byteOffset": 9384,
      "componentType": 5126,
      "count": 88,
      "max": [
        0.386229008436203,
        0.2350900024175644,
        -0.2665899991989136
      ],
      "min": [
        -0.386229008436203,
        0.11272799968719482,
        -0.37404900789260864
      ],
      "type": "VEC3"
    },
    {
      "bufferView": 2,
      "byteOffset": 10440,
      "componentType": 5126,
      "count": 88,
      "max": [
        0.9999995231628418,
        0.9999996423721313,
        0.9999393820762634
      ],
      "min": [
        -0.9999995231628418,
        -0.9042661190032959,
        -0.9063026905059814
      ],
      "type": "VEC3"
    },
    {
      "bufferView": 3,
      "byteOffset": 6256,
      "componentType": 5126,
      "count": 88,
      "max": [
        0.017802370712161064,
        0.9999332427978516,
        0.9040966033935547,
        1.0
      ],
      "min": [
        -0.01780673861503601,
        -0.909198522567749,
        -1.0,
        -1.0
      ],
      "type": "VEC4"
    },
    {
      "bufferView": 1,
      "byteOffset": 3128,
      "componentType": 5126,
      "count": 88,
      "max": [
        0.6178799867630005,
        0.44795599579811096
      ],
      "min": [
        0.5363439917564392,
        0.3542349934577942
      ],
      "type": "VEC2"
    },
    {
      "bufferView": 0,
      "byteOffset": 3840,
      "componentType": 5125,
      "count": 132,
      "type": "SCALAR"
    },
    {
      "bufferView": 2,
      "byteOffset": 11496,
      "componentType": 5126,
      "count": 636,
      "max": [
        0.8248109817504883,
        0.25029098987579346,
        0.16159600019454956
      ],
      "min": [
        -0.8248109817504883,
        -0.2643570005893707,
        -0.16159699857234955
      ],
      "type": "VEC3"
    },
    {
      "bufferView": 2,
      "byteOffset": 19128,
      "componentType": 5126,
      "count": 636,
      "max": [
        0.9988380074501038,
        0.9999147653579712,
        1.0
      ],
      "min": [
        -0.9988380074501038,
        -0.9999972581863403,
        -1.0
      ],
      "type": "VEC3"
    },
    {
      "bufferView": 3,
      "byteOffset": 7664,
      "componentType": 5126,
      "count": 636,
      "max": [
        0.9999147653579712,
        0.9924696087837219,
        1.0,
        1.0
      ],
      "min": [
        -0.9999147653579712,
        -0.8516218066215515,
        -1.0,
        -1.0
      ],
      "type": "VEC4"
    },
    {
      "bufferView": 1,
      "byteOffset": 3832,
      "componentType": 5126,
      "count": 636,
      "max": [
        0.8409339785575867,
        0.7340360283851624
      ],
      "min": [
        0.5111100077629089,
        0.1873210072517395
      ],
      "type": "VEC2"
    },
    {
      "bufferView": 0,
      "byteOffset": 4368,
      "componentType": 5125,
      "count": 1740,
      "type": "SCALAR"
    },
    {
      "bufferView": 2,
      "byteOffset": 26760,
      "componentType": 5126,
      "count": 136,
      "max": [
        0.4755769968032837,
        0.12175799906253815,
        0.32836300134658813
      ],
      "min": [
        -0.4755769968032837,
        -0.27463299036026,
        -0.3283640146255493
      ],
      "type": "VEC3"
    },
    {
      "bufferView": 2,
      "byteOffset": 28392,
      "componentType": 5126,
      "count": 136,
      "max": [
        1.0,
        1.0,
        1.0
      ],
      "min": [
        -1.0,
        -0.19954997301101685,
        -1.0
      ],
      "type": "VEC3"
    },
    {
      "bufferView": 3,
      "byteOffset": 17840,
      "componentType": 5126,
      "count": 136,
      "max": [
        1.0,
        1.0,
        0.7170150279998779,
        1.0
      ],
      "min": [
        -0.7016090750694275,
        -1.0,
        -0.7125622034072876,
        1.0
      ],
      "type": "VEC4"
    },
    {
      "bufferView": 1,
      "byteOffset": 8920,
      "componentType": 5126,
      "count": 136,
      "max": [
        0.9967280030250549,
        0.9990310072898865
      ],
      "min": [
        0.4451789855957031,
        0.4255259931087494
      ],
      "type": "VEC2"
    },
    {
      "bufferView": 0,
      "byteOffset": 11328,
      "componentType": 5125,
      "count": 210,
      "type": "SCALAR"
    },
    {
      "bufferView": 2,
      "byteOffset": 30024,
      "componentType": 5126,
      "count": 88,
      "max": [
        0.3862299919128418,
        0.2350900024175644,
        0.37404799461364746
      ],
      "min": [
        -0.3862299919128418,
        0.11272799968719482,
        0.2665880024433136
      ],
      "type": "VEC3"
    },
    {
      "bufferView": 2,
      "byteOffset": 31080,
      "componentType": 5126,
      "count": 88,
      "max": [
        0.9999993443489075,
        0.9999995231628418,
        0.9062627553939819
      ],
      "min": [
        -0.9999993443489075,
        -0.9042769074440002,
        -0.9998860955238342
      ],
      "type": "VEC3"
    },
    {
      "bufferView": 3,
      "byteOffset": 20016,
      "componentType": 5126,
      "count": 88,
      "max": [
        0.9999996423721313,
        0.9999992847442627,
        0.9109342694282532,
        1.0
      ],
      "min": [
        -0.9999996423721313,
        -0.9999980926513672,
        -0.9018486142158508,
        -1.0
      ],
      "type": "VEC4"
    },
    {
      "bufferView": 1,
      "byteOffset": 10008,
      "componentType": 5126,
      "count": 88,
      "max": [
        0.9886230230331421,
        0.43839699029922485
      ],
      "min": [
        0.9178019762039185,
        0.3613179922103882
      ],
      "type": "VEC2"
    },
    {
      "bufferView": 0,
      "byteOffset": 12168,
      "componentType": 5125,
      "count": 132,
      "type": "SCALAR"
    },
    {
      "bufferView": 2,
      "byteOffset": 32136,
      "componentType": 5126,
      "count": 329,
      "max": [
        0.9818699955940247,
        -0.2577640116214752,
        0.4939050078392029
      ],
      "min": [
        -0.9818699955940247,
        -0.3225499987602234,
        -0.4939050078392029
      ],
      "type": "VEC3"
    },
    {
      "bufferView": 2,
      "byteOffset": 36084,
      "componentType": 5126,
      "count": 329,
      "max": [
        1.0,
        1.0,
        1.0
      ],
      "min": [
        -1.0,
        -6.123230292458899e-17,
        -1.0
      ],
      "type": "VEC3"
    },
    {
      "bufferView": 3,
      "byteOffset": 21424,
      "componentType": 5126,
      "count": 329,
      "max": [
        1.0,
        1.0,
        0.5091675519943237,
        1.0
      ],
      "min": [
        -1.0,
        -1.0,
        -0.49816402792930603,
        1.0
      ],
      "type": "VEC4"
    },
    {
      "bufferView": 1,
      "byteOffset": 10712,
      "componentType": 5126,
      "count": 329,
      "max": [
        0.8843140006065369,
        0.7464420199394226
      ],
      "min": [
        0.002759739989414811,
        0.006047809962183237
      ],
      "type": "VEC2"
    },
    {
      "bufferView": 0,
      "byteOffset": 12696,
      "componentType": 5125,
      "count": 684,
      "type": "SCALAR"
    },
    {
      "bufferView": 2,
      "byteOffset": 40032,
      "componentType": 5126,
      "count": 608,
      "max": [
        0.11797600239515305,
        0.344323992729187,
        0.3832150101661682
      ],
      "min": [
        -0.11772499978542328,
        0.11630100011825562,
        0.2693920135498047
      ],
      "type": "VEC3"
    },
    {
      "bufferView": 2,
      "byteOffset": 47328,
      "componentType": 5126,
      "count": 608,
      "max": [
        1.0,
        0.9996485114097595,
        0.9949917793273926
      ],
      "min": [
        -1.0,
        -0.9913908839225769,
        -0.9832324981689453
      ],
      "type": "VEC3"
    },
    {
      "bufferView": 3,
      "byteOffset": 26688,
      "componentType": 5126,
      "count": 608,
      "max": [
        1.0,
        0.9991681575775146,
        0.9980813264846802,
        1.0
      ],
      "min": [
        -1.0,
        -0.9063079953193665,
        -0.9998988509178162,
        1.0
      ],
      "type": "VEC4"
    },
    {
      "bufferView": 1,
      "byteOffset": 13344,
      "componentType": 5126,
      "count": 608,
      "max": [
        0.8173090219497681,
        0.5160809755325317
      ],
      "min": [
        0.24817900359630585,
        0.0734177976846695
      ],
      "type": "VEC2"
    },
    {
      "bufferView": 0,
      "byteOffset": 15432,
      "componentType": 5125,
      "count": 1542,
      "type": "SCALAR"
    },
    {
      "bufferView": 2,
      "byteOffset": 54624,
      "componentType": 5126,
      "count": 146,
      "max": [
        0.7173780202865601,
        0.06828360259532928,
        0.0753151997923851
      ],
      "min": [
        -0.7173780202865601,
        -0.2673810124397278,
        -0.07524040341377258
      ],
      "type": "VEC3"
    },
    {
      "bufferView": 2,
      "byteOffset": 56376,
      "componentType": 5126,
      "count": 146,
      "max": [
        0.9800074696540833,
        0.7867991924285889,
        0.9490829706192017
      ],
      "min": [
        -0.9800074696540833,
        -0.6314746141433716,
        -0.9490658640861511
      ],
      "type": "VEC3"
    },
    {
      "bufferView": 3,
      "byteOffset": 36416,
      "componentType": 5126,
      "count": 146,
      "max": [
        0.7867781519889832,
        -0.6171929240226746,
        0.6357840299606323,
        1.0
      ],
      "min": [
        -0.7867781519889832,
        -0.9987846612930298,
        -0.6120719313621521,
        -1.0
      ],
      "type": "VEC4"
    },
    {
      "bufferView": 1,
      "byteOffset": 18208,
      "componentType": 5126,
      "count": 146,
      "max": [
        0.4624289870262146,
        0.5229849815368652
      ],
      "min": [
        0.3399679958820343,
        0.4118820130825043
      ],
      "type": "VEC2"
    },
    {
      "bufferView": 0,
      "byteOffset": 21600,
      "componentType": 5125,
      "count": 468,
      "type": "SCALAR"
    },
    {
      "bufferView": 2,
      "byteOffset": 58128,
      "componentType": 5126,
      "count": 184,
      "max": [
        1.0,
        -0.23575399816036224,
        0.11713100224733353
      ],
      "min": [
        -1.0,
        -0.344323992729187,
        -0.11713100224733353
      ],
      "type": "VEC3"
    },
    {
      "bufferView": 2,
      "byteOffset": 60336,
      "componentType": 5126,
      "count": 184,
      "max": [
        1.0,
        0.9999997615814209,
        1.0
      ],
      "min": [
        -1.0,
        -0.7068812251091003,
        -1.0
      ],
      "type": "VEC3"
    },
    {
      "bufferView": 3,
      "byteOffset": 38752,
      "componentType": 5126,
      "count": 184,
      "max": [
        1.0,
        -3.2308300887962105e-06,
        0.0007015167502686381,
        1.0
      ],
      "min": [
        -1.0,
        -1.0,
        -0.0007011291454546154,
        -1.0
      ],
      "type": "VEC4"
    },
    {
      "bufferView": 1,
      "byteOffset": 19376,
      "componentType": 5126,
      "count": 184,
      "max": [
        0.2516010105609894,
        0.5500349998474121
      ],
      "min": [
        0.0896414965391159,
        0.37640300393104553
      ],
      "type": "VEC2"
    },
    {
      "bufferView": 0,
      "byteOffset": 23472,
      "componentType": 5125,
      "count": 336,
      "type": "SCALAR"
    },
    {
      "bufferView": 2,
      "byteOffset": 62544,
      "componentType": 5126,
      "count": 272,
      "max": [
        0.42909398674964905,
        0.07052650302648544,
        0.2802020013332367
      ],
      "min": [
        -0.42909398674964905,
        -0.19519299268722534,
        -0.2802030146121979
      ],
      "type": "VEC3"
    },
    {
      "bufferView": 2,
      "byteOffset": 65808,
      "componentType": 5126,
      "count": 272,
      "max": [
        0.9803866147994995,
        0.9948023557662964,
        0.9925816655158997
      ],
      "min": [
        -0.9803866147994995,
        -0.9951292276382446,
        -0.9925816655158997
      ],
      "type": "VEC3"
    },
    {
      "bufferView": 3,
      "byteOffset": 41696,
      "componentType": 5126,
      "count": 272,
      "max": [
        0.9854608178138733,
        0.9803866744041443,
        0.9561936855316162,
        1.0
      ],
      "min": [
        -0.9854608178138733,
        -0.18136319518089294,
        -0.9573029279708862,
        -1.0
      ],
      "type": "VEC4"
    },
    {
      "bufferView": 1,
      "byteOffset": 20848,
      "componentType": 5126,
      "count": 272,
      "max": [
        0.981719970703125,
        0.3630880117416382
      ],
      "min": [
        0.8701249957084656,
        0.013128899969160557
      ],
      "type": "VEC2"
    },
    {
      "bufferView": 0,
      "byteOffset": 24816,
      "componentType": 5125,
      "count": 408,
      "type": "SCALAR"
    }
  ],
  "asset": {
    "extras": {
      "author": "Junaid_shakoor (https://sketchfab.com/Junaid_shakoor)",
      "license": "CC-BY-4.0 (http://creativecommons.org/licenses/by/4.0/)",
      "source": "https://sketchfab.com/3d-models/sci-fi-computer-table-ea7481776ffc456ba9c5f26a303ff500",
      "title": "Sci Fi Computer Table"
    },
    "generator": "Sketchfab-13.65.0",
    "version": "2.0"
  },
  "bufferViews": [
    {
      "buffer": 0,
      "byteLength": 26448,
      "name": "floatBufferViews",
      "target": 34963
    },
    {
      "buffer": 0,
      "byteLength": 23024,
      "byteOffset": 26448,
      "byteStride": 8,
      "name": "floatBufferViews",
      "target": 34962
    },
    {
      "buffer": 0,
      "byteLength": 69072,
      "byteOffset": 49472,
      "byteStride": 12,
      "name": "floatBufferViews",
      "target": 34962
    },
    {
      "buffer": 0,
      "byteLength": 46048,
      "byteOffset": 118544,
      "byteStride": 16,
      "name": "floatBufferViews",
      "target": 34962
    }
  ],
  "buffers": [
    {
      "byteLength": 164592,
      "uri": "scene.bin"
    }
  ],
  "images": [
    {
      "uri": "textures/07___Default_baseColor.jpeg"
    },
    {
      "uri": "textures/07___Default_metallicRoughness.png"
    },
    {
      "uri": "textures/07___Default_emissive.jpeg"
    },
    {
      "uri": "textures/07___Default_normal.png"
    }
  ],
  "materials": [
    {
      "doubleSided": true,
      "emissiveFactor": [
        0.9257576682,
        0.9257576682,
        0.9257576682
      ],
      "emissiveTexture": {
        "index": 2
      },
      "name": "07___Default",
      "normalTexture": {
        "index": 3
      },
      "occlusionTexture": {
        "index": 1
      },
      "pbrMetallicRoughness": {
        "baseColorTexture": {
          "index": 0
        },
        "metallicFactor": 0.6319697062,
        "metallicRoughnessTexture": {
          "index": 1
        }
      }
    }
  ],
  "meshes": [
    {
      "name": "defaultMaterial",
      "primitives": [
        {
          "attributes": {
            "NORMAL": 1,
            "POSITION": 0,
            "TANGENT": 2,
            "TEXCOORD_0": 3
          },
          "indices": 4,
          "material": 0,
          "mode": 4
        }
      ]
    },
    {
      "name": "defaultMaterial",
      "primitives": [
        {
          "attributes": {
            "NORMAL": 6,
            "POSITION": 5,
            "TANGENT": 7,
            "TEXCOORD_0": 8
          },
          "indices": 9,
          "material": 0,
          "mode": 4
        }
      ]
    },
    {
      "name": "defaultMaterial",
      "primitives": [
        {
          "attributes": {
            "NORMAL": 11,
            "POSITION": 10,
            "TANGENT": 12,
            "TEXCOORD_0": 13
          },
          "indices": 14,
          "material": 0,
          "mode": 4
        }
      ]
    },
    {
      "name": "defaultMaterial",
      "primitives": [
        {
          "attributes": {
            "NORMAL": 16,
            "POSITION": 15,
            "TANGENT": 17,
            "TEXCOORD_0": 18
          },
          "indices": 19,
          "material": 0,
          "mode": 4
        }
      ]
    },
    {
      "name": "defaultMaterial",
      "primitives": [
        {
          "attributes": {
            "NORMAL": 21,
            "POSITION": 20,
            "TANGENT": 22,
            "TEXCOORD_0": 23
          },
          "indices": 24,
          "material": 0,
          "mode": 4
        }
      ]
    },
    {
      "name": "defaultMaterial",
      "primitives": [
        {
          "attributes": {
            "NORMAL": 26,
            "POSITION": 25,
            "TANGENT": 27,
            "TEXCOORD_0": 28
          },
          "indices": 29,
          "material": 0,
          "mode": 4
        }
      ]
    },
    {
      "name": "defaultMaterial",
      "primitives": [
        {
          "attributes": {
            "NORMAL": 31,
            "POSITION": 30,
            "TANGENT": 32,
            "TEXCOORD_0": 33
          },
          "indices": 34,
          "material": 0,
          "mode": 4
        }
      ]
    },
    {
      "name": "defaultMaterial",
      "primitives": [
        {
          "attributes": {
            "NORMAL": 36,
            "POSITION": 35,
            "TANGENT": 37,
            "TEXCOORD_0": 38
          },
          "indices": 39,
          "material": 0,
          "mode": 4
        }
      ]
    },
    {
      "name": "defaultMaterial",
      "primitives": [
        {
          "attributes": {
            "NORMAL": 41,
            "POSITION": 40,
            "TANGENT": 42,
            "TEXCOORD_0": 43
          },
          "indices": 44,
          "material": 0,
          "mode": 4
        }
      ]
    },
    {
      "name": "defaultMaterial",
      "primitives": [
        {
          "attributes": {
            "NORMAL": 46,
            "POSITION": 45,
            "TANGENT": 47,
            "TEXCOORD_0": 48
          },
          "indices": 49,
          "material": 0,
          "mode": 4
        }
      ]
    }
  ],
  "nodes": [
    {
      "children": [
        1
      ],
      "matrix": [
        1.0,
        0.0,
        0.0,
        0.0,
        0.0,
        2.220446049250313e-16,
        -1.0,
        0.0,
        0.0,
        1.0,
        2.220446049250313e-16,
        0.0,
        0.0,
        0.0,
        0.0,
        1.0
      ],
      "name": "Sketchfab_model"
    },
    {
      "children": [
        2,
        4,
        6,
        8,
        10,
        12,
        14,
        16,
        18,
        20
      ],
      "matrix": [
        1.0,
        0.0,
        0.0,
        0.0,
        0.0,
        -4.371139006309477e-08,
        0.999999999999999,
        0.0,
        0.0,
        -0.999999999999999,
        -4.371139006309477e-08,
        0.0,
        0.0,
        0.0,
        0.0,
        1.0
      ],
      "name": "Collada visual scene group"
    },
    {
      "children": [
        3
      ],
      "name": "Object011"
    },
    {
      "mesh": 0,
      "name": "defaultMaterial"
    },
    {
      "children": [
        5
      ],
      "name": "Object015"
    },
    {
      "mesh": 1,
      "name": "defaultMaterial"
    },
    {
      "children": [
        7
      ],
      "name": "Object004"
    },
    {
      "mesh": 2,
      "name": "defaultMaterial"
    },
    {
      "children": [
        9
      ],
      "name": "Box006"
    },
    {
      "mesh": 3,
      "name": "defaultMaterial"
    },
    {
      "children": [
        11
      ],
      "name": "Object013"
    },
    {
      "mesh": 4,
      "name": "defaultMaterial"
    },
    {
      "children": [
        13
      ],
      "name": "Box008"
    },
    {
      "mesh": 5,
      "name": "defaultMaterial"
    },
    {
      "children": [
        15
      ],
      "name": "LP_table_panel"
    },
    {
      "mesh": 6,
      "name": "defaultMaterial"
    },
    {
      "children": [
        17
      ],
      "name": "Object005"
    },
    {
      "mesh": 7,
      "name": "defaultMaterial"
    },
    {
      "children": [
        19
      ],
      "name": "Object007"
    },
    {
      "mesh": 8,
      "name": "defaultMaterial"
    },
    {
      "children": [
        21
      ],
      "name": "Object006"
    },
    {
      "mesh": 9,
      "name": "defaultMaterial"
    }
  ],
  "samplers": [
    {
      "magFilter": 9729,
      "minFilter": 9987,
      "wrapS": 10497,
      "wrapT": 10497
    }
  ],
  "scene": 0,
  "scenes": [
    {
      "name": "Sketchfab_Scene",
      "nodes": [
        0
      ]
    }
  ],
  "textures": [
    {
      "sampler": 0,
      "source": 0
    },
    {
      "sampler": 0,
      "source": 1
    },
    {
      "sampler": 0,
      "source": 2
    },
    {
      "sampler": 0,
      "source": 3
    }
  ]
}
