<?xml version="1.0" encoding="UTF-8"?>
<svg version="1.1" xmlns="http://www.w3.org/2000/svg" width="474" height="234">
<path d="M0 0 C156.42 0 312.84 0 474 0 C474 77.22 474 154.44 474 234 C317.58 234 161.16 234 0 234 C0 156.78 0 79.56 0 0 Z " fill="#FBFBFB" transform="translate(0,0)"/>
<path d="M0 0 C0.99 0.495 0.99 0.495 2 1 C3.25297842 4.75893527 3.17175189 8.28263818 3.19287109 12.19995117 C3.20513733 13.45417374 3.20513733 13.45417374 3.21765137 14.73373413 C3.24248126 17.50347176 3.25901684 20.27315816 3.2734375 23.04296875 C3.27876118 23.99006525 3.28408485 24.93716175 3.28956985 25.91295815 C3.31629329 30.92772232 3.33566921 35.9424617 3.35009766 40.95727539 C3.36342798 45.10203158 3.39126506 49.24629442 3.43212891 53.39086914 C3.48151475 58.39997174 3.50622625 63.40862737 3.51332474 68.41796303 C3.5200267 70.32329499 3.53522122 72.22861739 3.55921555 74.13381004 C3.59096147 76.80742277 3.59088981 79.47932317 3.58349609 82.15307617 C3.59990143 82.93311508 3.61630676 83.71315399 3.63320923 84.51683044 C3.55391678 91.55811523 0.51407225 96.09310396 -4 101.3125 C-10.15298512 106.5040812 -15.37943263 107.12715124 -23.26879883 107.11352539 C-23.98153961 107.11367142 -24.6942804 107.11381744 -25.42861938 107.1139679 C-27.7714549 107.11327432 -30.11420972 107.105508 -32.45703125 107.09765625 C-34.08656267 107.0957901 -35.71609465 107.09436713 -37.34562683 107.09336853 C-41.62488364 107.08955888 -45.90410626 107.07974188 -50.18334961 107.06866455 C-54.55386899 107.05841702 -58.92439393 107.05386376 -63.29492188 107.04882812 C-71.8632969 107.03811818 -80.43164419 107.02106045 -89 107 C-88.72212646 107.59014893 -88.44425293 108.18029785 -88.15795898 108.78833008 C-86.90763906 111.45842913 -85.67244469 114.13525735 -84.4375 116.8125 C-83.99986328 117.74126953 -83.56222656 118.67003906 -83.11132812 119.62695312 C-82.49741211 120.9659668 -82.49741211 120.9659668 -81.87109375 122.33203125 C-81.48880615 123.15421143 -81.10651855 123.9763916 -80.71264648 124.82348633 C-80 127 -80 127 -81 130 C-84.54199884 128.00058788 -88.08353745 126.00036185 -91.625 124 C-92.67139648 123.40928711 -93.71779297 122.81857422 -94.79589844 122.20996094 C-99.38500124 119.61735149 -103.97280369 117.02330939 -108.5390625 114.390625 C-109.1789209 114.02195312 -109.8187793 113.65328125 -110.47802734 113.2734375 C-112.13774432 112.31483547 -113.795507 111.35285203 -115.453125 110.390625 C-118.77607102 108.5762557 -121.34989984 107.87522497 -125.08122253 107.84178162 C-125.90993362 107.8319928 -126.73864471 107.82220398 -127.59246826 107.81211853 C-128.95084808 107.80348534 -128.95084808 107.80348534 -130.33666992 107.79467773 C-131.77110191 107.77982834 -131.77110191 107.77982834 -133.23451233 107.76467896 C-136.39980583 107.73305614 -139.56511435 107.70830336 -142.73046875 107.68359375 C-144.92336928 107.6630249 -147.11626583 107.64202845 -149.30915833 107.62062073 C-155.08442979 107.56539292 -160.85973708 107.51598672 -166.6350708 107.46777344 C-172.52692864 107.41756363 -178.41873438 107.36187484 -184.31054688 107.30664062 C-195.87365342 107.19905036 -207.43680518 107.09760727 -219 107 C-219 106.67 -219 106.34 -219 106 C-216.525 105.505 -216.525 105.505 -214 105 C-215.32 104.67 -216.64 104.34 -218 104 C-218 103.34 -218 102.68 -218 102 C-217.29875 102.01160156 -216.5975 102.02320312 -215.875 102.03515625 C-205.45574698 102.48396426 -205.45574698 102.48396426 -196 99 C-196.66 97.68 -197.32 96.36 -198 95 C-199.60875 95.37125 -199.60875 95.37125 -201.25 95.75 C-205 96 -205 96 -207.10498047 94.33520508 C-209.10797844 91.86693974 -210.05454938 89.88609474 -211.0703125 86.88671875 C-211.5657959 85.42564697 -211.5657959 85.42564697 -212.07128906 83.93505859 C-213.44775279 79.58494109 -214.72549107 75.2281831 -215.875 70.8125 C-216.12403076 69.85851318 -216.37306152 68.90452637 -216.62963867 67.92163086 C-218.87201306 59.03419707 -220.634183 50.06989723 -222.3125 41.0625 C-222.44146667 40.37104889 -222.57043335 39.67959778 -222.70330811 38.9671936 C-227.69570202 12.02277317 -227.69570202 12.02277317 -224.5625 6.4375 C-220.88422792 4.37407908 -217.11388318 3.96963515 -213 5 C-210.01700313 8.1556056 -209.41475782 10.94550452 -208.7890625 15.1796875 C-208.50325317 17.02409424 -208.50325317 17.02409424 -208.21166992 18.90576172 C-208.11598724 19.55414001 -208.02030457 20.20251831 -207.92172241 20.87054443 C-207.42126429 24.25130042 -206.88256873 27.62580557 -206.33984375 31 C-206.1771273 32.01427567 -206.1771273 32.01427567 -206.01112366 33.04904175 C-204.47041175 42.46754899 -202.26361589 51.73362347 -200 61 C-197.48606987 57.85829482 -195.65209304 54.59793781 -193.8203125 51.01953125 C-193.22089844 49.85486328 -192.62148437 48.69019531 -192.00390625 47.49023438 C-191.37737758 46.2644387 -190.75107681 45.03852652 -190.125 43.8125 C-177.71603318 19.58996252 -177.71603318 19.58996252 -174 17 C-170.66109792 16.51307678 -168.81566861 16.51510508 -165.89648438 18.25048828 C-163.66155237 20.31221881 -163.27098127 21.48420143 -162.65625 24.4296875 C-162.36754028 25.73800537 -162.36754028 25.73800537 -162.07299805 27.07275391 C-161.88390869 27.99749512 -161.69481934 28.92223633 -161.5 29.875 C-161.08289185 31.77680488 -160.6623183 33.67785303 -160.23828125 35.578125 C-160.03283691 36.50431641 -159.82739258 37.43050781 -159.61572266 38.38476562 C-158.55874313 42.87420442 -157.15230596 47.22507059 -155.69921875 51.6015625 C-155 54 -155 54 -155 57 C-154.34 57 -153.68 57 -153 57 C-153.04640625 55.79085937 -153.0928125 54.58171875 -153.140625 53.3359375 C-153.13564452 46.96839872 -151.93257709 40.86292126 -150.75 34.625 C-150.54503906 33.47 -150.34007812 32.315 -150.12890625 31.125 C-148.2207646 20.87885757 -145.69246732 8.69246732 -138 1 C-130.96 0.296 -130.96 0.296 -127.1875 3.0625 C-124.67405681 6.43769515 -123.24358792 8.97662732 -122 13 C-122.8125 15 -122.8125 15 -124 17 C-124.04022391 19.3329866 -124.04320247 21.66706666 -124 24 C-124.33 24.66 -124.66 25.32 -125 26 C-123.515 26.495 -123.515 26.495 -122 27 C-122.495 25.02 -122.495 25.02 -123 23 C-122.34 23 -121.68 23 -121 23 C-120.01 23.99 -120.01 23.99 -119 25 C-118.54625 24.175 -118.0925 23.35 -117.625 22.5 C-117.08875 21.675 -116.5525 20.85 -116 20 C-115.34 20 -114.68 20 -114 20 C-113.505 18.515 -113.505 18.515 -113 17 C-111.2578125 15.6484375 -111.2578125 15.6484375 -109.125 14.375 C-108.07699219 13.73691406 -108.07699219 13.73691406 -107.0078125 13.0859375 C-100.94724069 9.80804068 -94.3814101 10.44334756 -87.875 12.0625 C-81.55226277 14.1373018 -78.05994525 18.2297288 -74.1875 23.4375 C-71.19561818 29.89366603 -70.64885462 36.49388593 -70.375 43.5 C-70.33632813 44.32242188 -70.29765625 45.14484375 -70.2578125 45.9921875 C-70.16468308 47.9944701 -70.08131015 49.99720262 -70 52 C-69.01 52 -68.02 52 -67 52 C-66.65388672 50.33324219 -66.65388672 50.33324219 -66.30078125 48.6328125 C-63.30101791 34.71171757 -59.22003438 21.9446118 -46.76953125 13.484375 C-40.68557022 10.42624238 -34.3996972 9.91375149 -27.80078125 11.54296875 C-25.7825514 12.23877752 -23.91490708 13.05912574 -22 14 C-20.453125 14.7115625 -20.453125 14.7115625 -18.875 15.4375 C-12.49342494 21.1254256 -9.08428619 30.19396214 -8.55664062 38.59570312 C-8.51732422 39.28599609 -8.47800781 39.97628906 -8.4375 40.6875 C-8.39431641 41.38939453 -8.35113281 42.09128906 -8.30664062 42.81445312 C-8.2008264 44.54275206 -8.09993419 46.2713511 -8 48 C-7.67 48 -7.34 48 -7 48 C-6.92652344 47.04287109 -6.92652344 47.04287109 -6.8515625 46.06640625 C-6.77679688 45.24011719 -6.70203125 44.41382813 -6.625 43.5625 C-6.55539062 42.73878906 -6.48578125 41.91507813 -6.4140625 41.06640625 C-6.27742187 40.38449219 -6.14078125 39.70257813 -6 39 C-5.34 38.67 -4.68 38.34 -4 38 C-4 39.65 -4 41.3 -4 43 C-3.34 43 -2.68 43 -2 43 C-1.67 41.68 -1.34 40.36 -1 39 C-0.67 39 -0.34 39 0 39 C0.02472039 34.35522856 0.04286968 29.71049543 0.05493164 25.06567383 C0.05996014 23.48558892 0.06678378 21.90550866 0.07543945 20.32543945 C0.08756992 18.05418754 0.09324313 15.78299715 0.09765625 13.51171875 C0.10281754 12.80536789 0.10797882 12.09901703 0.11329651 11.3712616 C0.11364803 8.29745609 -0.0196814 5.9409558 -1 3 C-0.67 2.01 -0.34 1.02 0 0 Z " fill="#995D8F" transform="translate(346,20)"/>
<path d="M0 0 C0.85194118 -0.00382555 1.70388236 -0.00765109 2.58163995 -0.01159257 C5.4412231 -0.02192531 8.30060556 -0.01792987 11.16020203 -0.01396179 C13.20852342 -0.01830817 15.25684318 -0.02349107 17.30516052 -0.02944946 C22.87341617 -0.04286013 28.44160402 -0.04341573 34.00987267 -0.04088616 C38.65698297 -0.03981764 43.30407949 -0.04469688 47.95118684 -0.04949158 C58.91523751 -0.06059437 69.87925392 -0.06102013 80.8433075 -0.05497742 C92.15519366 -0.04893882 103.4669554 -0.06124402 114.77882034 -0.08254749 C124.48849224 -0.10016142 134.19812453 -0.10616508 143.90781182 -0.10290974 C149.70785572 -0.10109608 155.50781091 -0.1037412 161.30784035 -0.11762428 C166.76367774 -0.1301942 172.21932125 -0.12826632 177.67515564 -0.11521339 C179.67662814 -0.11284608 181.67811425 -0.11558782 183.67957115 -0.12383652 C186.41404724 -0.13429269 189.14787148 -0.12621224 191.88232422 -0.11352539 C192.67241404 -0.12089968 193.46250387 -0.12827396 194.27653581 -0.13587171 C200.36351108 -0.0765532 205.07995084 1.14315083 209.88163757 5.12788391 C210.45913757 5.79046204 211.03663757 6.45304016 211.63163757 7.13569641 C212.22976257 7.79311829 212.82788757 8.45054016 213.44413757 9.12788391 C214.99503849 11.91338358 214.42540296 13.25431002 213.63163757 16.26069641 C213.96163757 16.92069641 214.29163757 17.58069641 214.63163757 18.26069641 C214.72214826 19.95613233 214.74918629 21.65513619 214.74516296 23.35298157 C214.74508743 24.41393036 214.7450119 25.47487915 214.74493408 26.56797791 C214.7397728 27.71696564 214.73461151 28.86595337 214.72929382 30.04975891 C214.7271714 31.81009964 214.7271714 31.81009964 214.7250061 33.60600281 C214.71939446 37.36592627 214.70683996 41.12579086 214.69413757 44.88569641 C214.68912407 47.42996639 214.68456091 49.97423729 214.6804657 52.51850891 C214.66942125 58.76592494 214.65267175 65.01330647 214.63163757 71.26069641 C214.30163757 71.26069641 213.97163757 71.26069641 213.63163757 71.26069641 C213.30163757 64.99069641 212.97163757 58.72069641 212.63163757 52.26069641 C212.30163757 53.25069641 211.97163757 54.24069641 211.63163757 55.26069641 C210.97163757 55.26069641 210.31163757 55.26069641 209.63163757 55.26069641 C209.30163757 53.94069641 208.97163757 52.62069641 208.63163757 51.26069641 C208.57556335 52.29130188 208.57556335 52.29130188 208.51835632 53.34272766 C208.41974304 54.69430969 208.41974304 54.69430969 208.31913757 56.07319641 C208.26112976 56.96651672 208.20312195 57.85983704 208.14335632 58.78022766 C207.55753459 61.61989789 206.71411626 62.35276774 204.63163757 64.26069641 C204.5929657 62.3773761 204.5929657 62.3773761 204.55351257 60.45600891 C204.27676848 51.30975347 203.89626004 43.53245471 199.63163757 35.26069641 C199.30679382 34.37382141 198.98195007 33.48694641 198.64726257 32.57319641 C197.83782111 30.05242165 197.83782111 30.05242165 195.31913757 29.13569641 C194.43226257 28.84694641 193.54538757 28.55819641 192.63163757 28.26069641 C191.78601257 27.74507141 190.94038757 27.22944641 190.06913757 26.69819641 C184.984302 23.69944723 179.39964548 23.55627016 173.63163757 24.26069641 C165.78018217 26.68471502 160.19556975 31.52152707 155.63163757 38.26069641 C149.67961861 49.63465631 148.31604832 60.59909754 147.63163757 73.26069641 C147.30163757 73.26069641 146.97163757 73.26069641 146.63163757 73.26069641 C146.30163757 71.28069641 145.97163757 69.30069641 145.63163757 67.26069641 C144.64163757 67.59069641 143.65163757 67.92069641 142.63163757 68.26069641 C142.60976379 67.33958069 142.60976379 67.33958069 142.58744812 66.39985657 C142.51201812 63.56123656 142.41567981 60.72367383 142.31913757 57.88569641 C142.29657898 56.9201886 142.27402039 55.95468079 142.2507782 54.95991516 C141.87549625 44.79318604 140.14544649 36.58545071 132.93632507 29.11225891 C127.51828644 24.75946177 120.62423435 23.6440304 113.79179382 23.90913391 C107.42309528 24.94563096 102.15015517 28.84726062 97.63163757 33.26069641 C95.76240554 36.41058514 95.76240554 36.41058514 94.63163757 39.26069641 C93.64163757 37.28069641 93.64163757 37.28069641 92.63163757 35.26069641 C91.97163757 35.26069641 91.31163757 35.26069641 90.63163757 35.26069641 C91.12663757 37.24069641 91.12663757 37.24069641 91.63163757 39.26069641 C89.65163757 38.76569641 89.65163757 38.76569641 87.63163757 38.26069641 C89.22254666 28.48796914 89.22254666 28.48796914 90.63163757 24.26069641 C89.99264144 22.22571145 89.99264144 22.22571145 88.88163757 20.19819641 C88.53616882 19.50596985 88.19070007 18.81374329 87.83476257 18.10054016 C86.6076026 15.96099224 86.6076026 15.96099224 83.63163757 14.26069641 C79.53682091 13.5732783 79.53682091 13.5732783 75.63163757 14.26069641 C67.56717663 21.8396008 65.72750853 36.60980973 63.94413757 46.88569641 C63.73208679 48.04843079 63.52003601 49.21116516 63.30155945 50.40913391 C62.17690263 56.68166783 61.24697816 62.91795498 60.63163757 69.26069641 C59.97163757 69.26069641 59.31163757 69.26069641 58.63163757 69.26069641 C55.18297359 58.89171336 52.00756774 48.63398342 50.01347351 37.87446594 C49.63974957 35.98393831 49.14471673 34.11825236 48.63163757 32.26069641 C45.10590951 29.91021103 43.78150113 29.59671824 39.63163757 30.26069641 C35.84478826 34.23329308 33.34026144 38.36170915 31.00663757 43.32319641 C30.3290663 44.72135936 29.64924825 46.118435 28.96757507 47.51460266 C28.60115906 48.26628723 28.23474304 49.0179718 27.85722351 49.79243469 C25.52558207 54.4882305 23.07314737 59.1213554 20.63163757 63.76069641 C20.13841003 64.69921448 19.6451825 65.63773254 19.13700867 66.60469055 C17.96984143 68.82404234 16.80143897 71.04273226 15.63163757 73.26069641 C14.64163757 73.26069641 13.65163757 73.26069641 12.63163757 73.26069641 C8.77401406 56.85263248 5.38091687 40.51717877 3.15898132 23.79975891 C2.74918358 21.03194585 2.74918358 21.03194585 0.63163757 18.26069641 C-1.46678611 17.78347169 -1.46678611 17.78347169 -3.80586243 17.88569641 C-4.58832336 17.87796204 -5.3707843 17.87022766 -6.17695618 17.86225891 C-8.9035787 18.35800846 -9.65421162 19.11755347 -11.36836243 21.26069641 C-12.5460465 27.58738173 -10.83707563 34.52963007 -9.68086243 40.76069641 C-9.50152161 41.75190491 -9.32218079 42.7431134 -9.1374054 43.76435852 C-8.55842361 46.93188995 -7.96471738 50.09639355 -7.36836243 53.26069641 C-7.07953186 54.81941467 -7.07953186 54.81941467 -6.78486633 56.40962219 C-4.64778747 67.87700524 -2.26604566 79.24116032 0.75663757 90.51069641 C0.99817566 91.42149963 1.23971375 92.33230286 1.48857117 93.27070618 C2.7253953 97.72318839 4.07698791 101.36069869 6.63163757 105.26069641 C6.63163757 105.92069641 6.63163757 106.58069641 6.63163757 107.26069641 C7.24652039 107.21429016 7.8614032 107.16788391 8.49491882 107.12007141 C10.92908932 107.01136842 13.21100159 106.96884668 15.63163757 107.26069641 C17.69413757 109.26069641 17.69413757 109.26069641 18.63163757 111.26069641 C13.61084135 115.62456603 7.56162367 115.52515557 1.13554382 115.09272766 C-0.70605904 114.86622036 -2.53906945 114.57133107 -4.36836243 114.26069641 C-4.36836243 114.92069641 -4.36836243 115.58069641 -4.36836243 116.26069641 C44.14163757 116.75569641 44.14163757 116.75569641 93.63163757 117.26069641 C93.63163757 117.59069641 93.63163757 117.92069641 93.63163757 118.26069641 C80.45344481 118.35342618 67.27532983 118.42447685 54.0968771 118.4679451 C47.97740583 118.48880897 41.85815799 118.51710533 35.73881531 118.56245422 C29.83196889 118.60595382 23.92533722 118.62984255 18.01834297 118.64020538 C15.76610497 118.64758928 13.51387855 118.66200832 11.2617321 118.68361664 C8.10409634 118.71270452 4.94734501 118.71665005 1.78959656 118.71479797 C0.86098816 118.72917908 -0.06762024 118.74356018 -1.02436829 118.75837708 C-7.00222037 118.7205024 -10.45772057 117.71795181 -15.36836243 114.26069641 C-21.9141816 107.53304893 -23.51552686 99.60053762 -23.52949524 90.58979797 C-23.53446014 89.82177856 -23.53942505 89.05375916 -23.54454041 88.26246643 C-23.55912665 85.72540891 -23.5659587 83.18841395 -23.57148743 80.65132141 C-23.57724251 78.88258361 -23.5830002 77.11384582 -23.58876038 75.34510803 C-23.5992608 71.63630382 -23.6051095 67.92752121 -23.6085968 64.21870422 C-23.61407451 59.47988097 -23.63809106 54.74134605 -23.66656876 50.00261307 C-23.68524825 46.34790733 -23.69040359 42.69327025 -23.69193268 39.03852081 C-23.69494858 37.29231442 -23.70294102 35.54610893 -23.71611786 33.79994965 C-23.73328724 31.34947165 -23.73127171 28.8996877 -23.72480774 26.44917297 C-23.73402252 25.73616028 -23.7432373 25.02314758 -23.75273132 24.28852844 C-23.7019399 18.10189425 -22.29057984 12.74734317 -18.46601868 7.79975891 C-17.79441711 7.16811829 -17.12281555 6.53647766 -16.43086243 5.88569641 C-15.76183899 5.23858704 -15.09281555 4.59147766 -14.40351868 3.92475891 C-9.78616121 0.14933803 -5.84397762 -0.02771936 0 0 Z " fill="#995C8E" transform="translate(132.3683624267578,7.7393035888671875)"/>
<path d="M0 0 C3.4914117 0.05023614 4.22700674 0.3587131 7.25 2.5 C9.63602534 5.92991142 9.59543233 7.28061097 9.25 11.375 C8.296875 13.953125 8.296875 13.953125 7 16.625 C3.51388632 24.63124413 1.82043973 32.82198622 0.25 41.375 C0.10288574 42.17550781 -0.04422852 42.97601563 -0.19580078 43.80078125 C-2.34812149 55.97219125 -3.1676418 67.94856684 -3.1081543 80.31420898 C-3.21980168 89.47944453 -3.21980168 89.47944453 -5.8515625 93.22265625 C-8.75 95.375 -8.75 95.375 -12.25390625 95.5390625 C-21.48165184 92.46658408 -26.81066586 82.27986699 -31.046875 74.01757812 C-38.42715252 59.0892895 -38.42715252 59.0892895 -39.75 51.375 C-40.01103516 51.87201416 -40.27207031 52.36902832 -40.54101562 52.88110352 C-40.90904297 53.58162842 -41.27707031 54.28215332 -41.65625 55.00390625 C-42.06625244 55.78451416 -42.47625488 56.56512207 -42.89868164 57.36938477 C-43.8073128 59.09619438 -44.71799261 60.82192741 -45.63061523 62.54663086 C-47.75067376 66.55513865 -49.85790839 70.56550646 -51.87890625 74.625 C-59.96909066 90.71458121 -59.96909066 90.71458121 -66.75 95.375 C-69.7109375 95.75 -69.7109375 95.75 -72.75 94.375 C-77.44690793 87.93939309 -79.29439452 79.86164845 -81.1875 72.25 C-81.47898926 71.10362061 -81.77047852 69.95724121 -82.07080078 68.77612305 C-95.39822292 14.87835389 -95.39822292 14.87835389 -90.3125 5.8125 C-86.63422792 3.74907908 -82.86388318 3.34463515 -78.75 4.375 C-75.76700313 7.5306056 -75.16475782 10.32050452 -74.5390625 14.5546875 C-74.25325317 16.39909424 -74.25325317 16.39909424 -73.96166992 18.28076172 C-73.86598724 18.92914001 -73.77030457 19.57751831 -73.67172241 20.24554443 C-73.17126429 23.62630042 -72.63256873 27.00080557 -72.08984375 30.375 C-71.9271273 31.38927567 -71.9271273 31.38927567 -71.76112366 32.42404175 C-70.22041175 41.84254899 -68.01361589 51.10862347 -65.75 60.375 C-63.23606987 57.23329482 -61.40209304 53.97293781 -59.5703125 50.39453125 C-58.97089844 49.22986328 -58.37148437 48.06519531 -57.75390625 46.86523438 C-57.12737758 45.6394387 -56.50107681 44.41352652 -55.875 43.1875 C-43.46603318 18.96496252 -43.46603318 18.96496252 -39.75 16.375 C-36.41109792 15.88807678 -34.56566861 15.89010508 -31.64648438 17.62548828 C-29.41155237 19.68721881 -29.02098127 20.85920143 -28.40625 23.8046875 C-28.11754028 25.11300537 -28.11754028 25.11300537 -27.82299805 26.44775391 C-27.63390869 27.37249512 -27.44481934 28.29723633 -27.25 29.25 C-26.83289185 31.15180488 -26.4123183 33.05285303 -25.98828125 34.953125 C-25.78283691 35.87931641 -25.57739258 36.80550781 -25.36572266 37.75976562 C-24.30874313 42.24920442 -22.90230596 46.60007059 -21.44921875 50.9765625 C-20.75 53.375 -20.75 53.375 -20.75 56.375 C-20.09 56.375 -19.43 56.375 -18.75 56.375 C-18.79640625 55.16585937 -18.8428125 53.95671875 -18.890625 52.7109375 C-18.88564452 46.34339872 -17.68257709 40.23792126 -16.5 34 C-16.29503906 32.845 -16.09007812 31.69 -15.87890625 30.5 C-10.39242201 1.0392422 -10.39242201 1.0392422 0 0 Z " fill="#FBF8FA" transform="translate(211.75,20.625)"/>
<path d="M0 0 C7.59 0 15.18 0 23 0 C25.21576221 8.4198964 27.01716469 16.85513451 28.64160156 25.40722656 C28.80370117 26.24608398 28.96580078 27.08494141 29.1328125 27.94921875 C29.27605957 28.70549561 29.41930664 29.46177246 29.56689453 30.2409668 C29.84285583 32.01537168 29.84285583 32.01537168 31 33 C31.17015625 32.04222656 31.3403125 31.08445313 31.515625 30.09765625 C33.34730329 19.97272396 35.58280998 10.00216562 38 0 C45.92 0 53.84 0 62 0 C63.77314208 10.25889344 65.16521028 20.54342329 66.5 30.8671875 C67.27282282 36.77203686 68.08846382 42.64943982 69.1171875 48.515625 C70.1314094 54.43423502 70.14286249 59.99977557 70 66 C64.39 66 58.78 66 53 66 C51.5858119 63.17162381 51.57457412 60.52367701 51.28125 57.375 C51.21844849 56.71346924 51.15564697 56.05193848 51.09094238 55.37036133 C50.89020782 53.24724084 50.69498537 51.12365546 50.5 49 C50.3688622 47.60022546 50.23735577 46.2004854 50.10546875 44.80078125 C49.85899659 42.18379535 49.6150952 39.56662263 49.37304688 36.94921875 C48.93364961 32.29758906 48.46913321 27.64871052 48 23 C47.55346069 24.84730713 47.55346069 24.84730713 47.09790039 26.73193359 C45.99519794 31.29095807 44.88932058 35.84920739 43.7824707 40.40722656 C43.30341009 42.38195048 42.82521654 44.35688495 42.34790039 46.33203125 C41.66258693 49.16722214 40.97418244 52.00164694 40.28515625 54.8359375 C40.07157974 55.72243988 39.85800323 56.60894226 39.63795471 57.52230835 C39.33775673 58.753358 39.33775673 58.753358 39.03149414 60.00927734 C38.85606583 60.73319672 38.68063751 61.45711609 38.49989319 62.20297241 C38 64 38 64 37 66 C33.04 66 29.08 66 25 66 C22.9261616 60.71080815 21.25242166 55.52686823 19.95703125 50 C19.69704597 48.91827515 19.69704597 48.91827515 19.43180847 47.81469727 C18.88726221 45.54424182 18.34976047 43.27218922 17.8125 41 C17.4412229 39.44650273 17.06948214 37.8931162 16.69726562 36.33984375 C15.79282072 32.56115268 14.89468301 28.78101375 14 25 C13.44556192 29.07063122 12.89436566 33.14168807 12.34594727 37.21313477 C12.15962584 38.59313302 11.97247584 39.97301971 11.78442383 41.3527832 C10.66693062 49.55667337 9.677688 57.74647352 9 66 C3.39 66 -2.22 66 -8 66 C-7.34179821 56.59517855 -6.41323834 47.25180217 -5.32543945 37.88964844 C-5.06367135 35.63508862 -4.80595776 33.38009305 -4.54882812 31.125 C-3.72479087 23.93933245 -2.86551216 16.75846626 -1.93359375 9.5859375 C-1.77818115 8.38759277 -1.62276855 7.18924805 -1.46264648 5.95458984 C-1 3 -1 3 0 0 Z " fill="#050505" transform="translate(127,156)"/>
<path d="M0 0 C7.92 0 15.84 0 24 0 C26.8811379 11.25015752 29.6636323 22.4517659 31 34 C31.13575439 33.32533691 31.27150879 32.65067383 31.41137695 31.95556641 C32.04026737 28.84438191 32.67634091 25.73470603 33.3125 22.625 C33.52583984 21.56410156 33.73917969 20.50320312 33.95898438 19.41015625 C34.17490234 18.35957031 34.39082031 17.30898437 34.61328125 16.2265625 C34.80704346 15.27346191 35.00080566 14.32036133 35.20043945 13.33837891 C36.27722052 8.84253027 37.67159124 4.4280292 39 0 C46.92 0 54.84 0 63 0 C64.04651517 7.86660721 65.090272 15.73356545 66.12921143 23.60117626 C66.61176889 27.25461141 67.09552154 30.9078799 67.58203125 34.56079102 C68.05170894 38.08765965 68.51821355 41.6149349 68.98254395 45.14251137 C69.16003046 46.48662515 69.33864957 47.83058989 69.51843262 49.17439842 C69.77051695 51.06011889 70.01816063 52.94643136 70.265625 54.83276367 C70.40774414 55.90531906 70.54986328 56.97787445 70.69628906 58.08293152 C71 61 71 61 71 66 C65.06 66 59.12 66 53 66 C51.68 52.47 50.36 38.94 49 25 C48.67 25 48.34 25 48 25 C47.75765625 26.20914063 47.5153125 27.41828125 47.265625 28.6640625 C45.45350653 37.56497673 43.47618932 46.31027761 40.8828125 55.01953125 C39.80559669 58.65632622 38.88501935 62.31241938 38 66 C33.71 66 29.42 66 25 66 C23.56981087 60.37813954 22.14581848 54.75475968 20.72753906 49.12988281 C20.24421348 47.21669201 19.75919906 45.30392703 19.27246094 43.39160156 C18.57302239 40.64237986 17.8796769 37.8916827 17.1875 35.140625 C16.96876221 34.28631897 16.75002441 33.43201294 16.5246582 32.55181885 C16.32445068 31.75129089 16.12424316 30.95076294 15.91796875 30.12597656 C15.74031982 29.42426331 15.5626709 28.72255005 15.37963867 27.99957275 C15 26 15 26 15 22 C14.34 22 13.68 22 13 22 C13.02501587 22.80546265 13.02501587 22.80546265 13.05053711 23.62719727 C13.17378519 31.07949562 12.51742065 38.42756041 11.77319336 45.83422852 C11.56051937 47.95727184 11.35692156 50.08105448 11.15429688 52.20507812 C10.13761158 62.58716526 10.13761158 62.58716526 9 66 C3.72 66 -1.56 66 -7 66 C-6.62224497 51.51939043 -4.83645461 37.3996196 -2.81567383 23.07543945 C-2.6498455 21.8975032 -2.6498455 21.8975032 -2.48066711 20.69577026 C-2.27281407 19.226379 -2.06279779 17.75729114 -1.85002136 16.28860474 C-1.07613025 10.85892962 -0.54727593 5.47275931 0 0 Z " fill="#050505" transform="translate(208,156)"/>
<path d="M0 0 C7.27249887 4.42781394 12.10920071 10.51088878 14.71484375 18.62109375 C17.17787593 31.22773777 16.45114128 45.13101158 9.984375 56.4296875 C5.86926981 62.34244391 0.96635342 66.17586994 -6.23046875 67.67578125 C-15.74904407 68.96459324 -23.63886205 68.73652163 -31.625 63 C-38.29472546 57.56160847 -41.45514934 50.43867641 -42.625 42 C-42.94787349 38.26893898 -43.07506687 34.55654235 -43.125 30.8125 C-43.14361084 29.89839355 -43.16222168 28.98428711 -43.18139648 28.04248047 C-43.10013485 19.28358083 -40.59443196 10.97478466 -34.41796875 4.5390625 C-25.12443806 -3.43839086 -11.23064036 -5.04863649 0 0 Z " fill="#050505" transform="translate(101.625,156)"/>
<path d="M0 0 C1.546875 0.7115625 1.546875 0.7115625 3.125 1.4375 C8.57344413 6.29372195 12.65865774 14.68565762 13.23828125 22.01171875 C13.50051963 34.99941942 11.67653581 48.12678359 4 59 C3.57074219 59.63292969 3.14148438 60.26585937 2.69921875 60.91796875 C-1.77625647 66.83063883 -7.6749179 70.36461423 -15.03125 71.4453125 C-23.23123316 71.75591792 -28.59112086 69.94403199 -34.75 64.625 C-43.58532881 54.31711639 -43.9206458 43.47849735 -43.23828125 30.45751953 C-42.13920676 19.12218779 -36.32782032 9.65334957 -28 2.125 C-18.95130693 -4.28449092 -9.85145082 -4.84043146 0 0 Z " fill="#FBF8FA" transform="translate(324,34)"/>
<path d="M0 0 C6.92782636 5.26410821 10.36642701 11.52044821 12 20 C13.58631193 35.013986 11.00810516 49.90456918 1.44140625 61.96484375 C-3.25587405 67.09605294 -8.55340899 70.39239129 -15.515625 71.34375 C-23.82979363 71.64979302 -30.32923186 69.37074501 -36.46484375 63.73828125 C-39.03946762 60.82299468 -40.60164145 57.60524668 -42 54 C-42.53560547 52.65808594 -42.53560547 52.65808594 -43.08203125 51.2890625 C-46.99144249 37.28172521 -43.25344257 23.5708846 -36.375 11.25 C-34.5859375 8.203125 -34.5859375 8.203125 -33 6 C-32.34 6 -31.68 6 -31 6 C-30.67 5.01 -30.34 4.02 -30 3 C-28.2578125 1.6484375 -28.2578125 1.6484375 -26.125 0.375 C-25.42632812 -0.05039062 -24.72765625 -0.47578125 -24.0078125 -0.9140625 C-16.59538959 -4.92311614 -7.38125484 -3.47712005 0 0 Z " fill="#FBF9FB" transform="translate(263,34)"/>
<path d="M0 0 C34.6 0 34.6 0 43 7 C46.87383214 11.01105235 48.87049044 14.05735658 49.25 19.75 C49.14678926 24.87300586 47.94638041 29.04064372 44.2421875 32.76953125 C42.53518472 34.24501746 40.79000339 35.62804351 39 37 C42.16989528 44.25031566 45.54652792 51.38895341 48.99609375 58.50976562 C49.38410156 59.31994141 49.77210938 60.13011719 50.171875 60.96484375 C50.6992627 62.05720337 50.6992627 62.05720337 51.23730469 63.17163086 C52 65 52 65 52 67 C45.73 67 39.46 67 33 67 C31.80375 64.628125 30.6075 62.25625 29.375 59.8125 C29.01196777 59.09553955 28.64893555 58.3785791 28.27490234 57.63989258 C25.01957998 51.1554868 22.04727354 44.60242601 19 38 C18.67 47.57 18.34 57.14 18 67 C12.06 67 6.12 67 0 67 C0 44.89 0 22.78 0 0 Z " fill="#070707" transform="translate(326,155)"/>
<path d="M0 0 C11.88 0 23.76 0 36 0 C36 4.62 36 9.24 36 14 C30.06 14 24.12 14 18 14 C18 17.96 18 21.92 18 26 C23.28 26 28.56 26 34 26 C34 30.62 34 35.24 34 40 C28.72 40 23.44 40 18 40 C18 43.96 18 47.92 18 52 C23.94 52 29.88 52 36 52 C36 56.62 36 61.24 36 66 C24.12 66 12.24 66 0 66 C0 44.22 0 22.44 0 0 Z " fill="#030303" transform="translate(426,156)"/>
<path d="M0 0 C11.88 0 23.76 0 36 0 C36 4.62 36 9.24 36 14 C30.06 14 24.12 14 18 14 C18 17.96 18 21.92 18 26 C23.28 26 28.56 26 34 26 C34 30.62 34 35.24 34 40 C28.72 40 23.44 40 18 40 C18 43.96 18 47.92 18 52 C23.94 52 29.88 52 36 52 C36 56.62 36 61.24 36 66 C24.12 66 12.24 66 0 66 C0 44.22 0 22.44 0 0 Z " fill="#040404" transform="translate(285,156)"/>
<path d="M0 0 C0.70640625 0.00064453 1.4128125 0.00128906 2.140625 0.00195312 C5.26979709 0.02862221 7.76185525 0.19145175 10.75 1.1875 C10.75 6.4675 10.75 11.7475 10.75 17.1875 C3.625 16.9375 3.625 16.9375 1.41748047 16.82714844 C-3.65719505 16.74181351 -6.36724248 18.01848467 -10.25 21.1875 C-15.1930984 27.30133224 -15.05893828 33.54204678 -14.25 41.1875 C-12.6291488 45.96474563 -10.03270088 48.87763673 -6.25 52.1875 C-0.82364835 53.99628388 5.08114562 53.23950784 10.75 53.1875 C10.75 58.4675 10.75 63.7475 10.75 69.1875 C2.74662803 71.85529066 -8.33412754 71.27925153 -15.9375 67.64453125 C-23.29888758 63.00635968 -29.29715976 57.48433914 -32.25 49.1875 C-32.60191406 48.30964844 -32.95382812 47.43179688 -33.31640625 46.52734375 C-35.70832257 37.97048831 -35.9849962 26.45435538 -32.0625 18.375 C-30.66015625 16.12109375 -30.66015625 16.12109375 -29.25 14.1875 C-28.5075 13.115 -27.765 12.0425 -27 10.9375 C-19.15528366 3.09278366 -11.03706699 -0.19561966 0 0 Z " fill="#060606" transform="translate(410.25,153.8125)"/>
<path d="M0 0 C1.21042969 -0.00257813 2.42085937 -0.00515625 3.66796875 -0.0078125 C6.8125 0.125 6.8125 0.125 9.8125 1.125 C9.8125 6.405 9.8125 11.685 9.8125 17.125 C2.0625 16.9375 2.0625 16.9375 -0.35839844 16.85473633 C-4.69374374 16.80395709 -6.99840014 17.17585669 -10.1875 20.125 C-10.8475 20.125 -11.5075 20.125 -12.1875 20.125 C-15.30274757 27.80927735 -16.75947079 35.39404362 -14.50390625 43.6171875 C-12.35799391 48.3364138 -9.82964935 50.62496396 -5.1875 53.125 C-2.36991229 53.40960482 -0.08806159 53.51374738 2.6875 53.375 C6.214375 53.25125 6.214375 53.25125 9.8125 53.125 C9.8125 58.405 9.8125 63.685 9.8125 69.125 C-1.31575492 71.35065098 -11.27649526 71.03707975 -21.1875 65.125 C-28.39254441 59.71821958 -32.37341893 52.56724321 -35.1875 44.125 C-36.38927259 32.69059063 -36.43842431 21.58983357 -29.1875 12.125 C-20.82801948 2.84173631 -12.38058865 -0.02653931 0 0 Z " fill="#070707" transform="translate(45.1875,153.875)"/>
<path d="M0 0 C3.36829349 2.52622012 4.68134219 5.06666446 6 9 C7.15624515 19.75157829 4.88163914 28.72360683 -1.75 37.25 C-4.85708827 39.66662421 -7.09227163 40 -11 40 C-14.00093587 37.81012788 -15.67057753 35.43386996 -17 32 C-17.75836782 23.35813416 -18.54415973 14.20205958 -13 7 C-12.56816406 6.41734375 -12.13632813 5.8346875 -11.69140625 5.234375 C-8.04633052 0.60502066 -5.90354315 -0.59035432 0 0 Z " fill="#985E8F" transform="translate(253,48)"/>
<path d="M0 0 C3.71760362 1.96206858 4.74956787 4.07236062 6 8 C6.24117651 10.63611536 6.38118987 13.11652022 6.375 15.75 C6.37338867 16.45938721 6.37177734 17.16877441 6.37011719 17.8996582 C6.18198827 25.9661466 3.63566422 32.18822127 -2 38 C-5.26959907 40.28871935 -8.07973263 40.17819397 -12 40 C-16.78303623 31.97684246 -18.26225164 25.26319891 -16.3125 15.9375 C-14.11266166 8.12105312 -9.05036283 -1.31984458 0 0 Z " fill="#9B5C8F" transform="translate(314,48)"/>
<path d="M0 0 C4.00111626 2.84523823 5.76409641 5.73709047 6.72265625 10.56640625 C7.63135292 18.53989953 7.9555094 27.39777306 5 35 C3.07675139 37.40406076 1.72160933 38.63919534 -1 40 C-4.61591352 40.39303408 -6.32950951 40.5214926 -9.25 38.25 C-13.67023342 32.56684275 -13.33423099 27.61368539 -13.3125 20.625 C-13.32861328 19.59632813 -13.34472656 18.56765625 -13.36132812 17.5078125 C-13.36560091 10.87644512 -12.4714035 6.70710525 -8.75 1.125 C-5.75562863 -0.79995302 -3.44900067 -0.47572423 0 0 Z " fill="#F7F7F7" transform="translate(91,169)"/>
<path d="M0 0 C1.18568172 0.00771534 1.18568172 0.00771534 2.3953166 0.01558656 C3.23274255 0.01317214 4.0701685 0.01075772 4.932971 0.00827014 C7.75517359 0.00260855 10.5771523 0.01131475 13.39934492 0.01990479 C15.41607427 0.01883252 17.43280331 0.01689466 19.44953108 0.01415223 C24.93907152 0.00929198 30.42853107 0.01697426 35.91806173 0.02710527 C41.6520156 0.03586664 47.38596678 0.0341287 53.11992598 0.03374451 C62.75067711 0.03468203 72.3813968 0.04337776 82.01213789 0.05701417 C93.16044659 0.07274061 104.30872084 0.07801232 115.45703983 0.07727861 C126.16352618 0.07666905 136.87000124 0.08176797 147.5764842 0.09007043 C152.14105012 0.09360882 156.70561205 0.09543447 161.27017927 0.09596413 C166.64138194 0.09696594 172.01255547 0.10304926 177.38374853 0.11313027 C179.35990359 0.11606038 181.336062 0.11727961 183.31221914 0.11670274 C186.00018728 0.11621485 188.68807282 0.12184 191.37602949 0.12911195 C192.16648397 0.12756334 192.95693845 0.12601474 193.77134609 0.12441921 C199.1573154 0.14864589 199.1573154 0.14864589 201.38567305 1.26282471 C201.38567305 1.92282471 201.38567305 2.58282471 201.38567305 3.26282471 C132.41567305 2.93282471 63.44567305 2.60282471 -7.61432695 2.26282471 C-5.07380605 -0.27769619 -3.46454531 0.0222262 0 0 Z " fill="#885A86" transform="translate(133.61432695388794,7.737175285816193)"/>
<path d="M0 0 C-0.48597656 1.12792969 -0.97195313 2.25585938 -1.47265625 3.41796875 C-3.22144989 8.1037464 -3.49986439 12.34598094 -3.4375 17.3125 C-3.43137695 18.14483154 -3.42525391 18.97716309 -3.41894531 19.8347168 C-3.18466987 29.09490422 -0.59171412 36.6109492 5 44 C4.01 44 3.02 44 2 44 C1.67 44.99 1.34 45.98 1 47 C0.34 47 -0.32 47 -1 47 C-1.33 47.99 -1.66 48.98 -2 50 C-4.3872196 47.02133832 -6.07089415 44.02634179 -7.69921875 40.578125 C-8.42915039 39.04091797 -8.42915039 39.04091797 -9.17382812 37.47265625 C-9.9230957 35.87744141 -9.9230957 35.87744141 -10.6875 34.25 C-11.19861328 33.17105469 -11.70972656 32.09210938 -12.23632812 30.98046875 C-13.49489953 28.32217776 -14.74929268 25.66199771 -16 23 C-11.2109375 18.1796875 -11.2109375 18.1796875 -9.3125 16.5625 C-5.31801769 11.80716391 -5.76633878 5.84153045 -6 0 C-3.50907189 -1.24546405 -2.58919267 -0.7767578 0 0 Z " fill="#F1F1F1" transform="translate(380,170)"/>
<path d="M0 0 C-0.6875 1.9375 -0.6875 1.9375 -2 4 C-4.625 4.75 -4.625 4.75 -7 5 C-8.47047336 8.91063224 -8.47047336 8.91063224 -9 13 C-8.67 12.34 -8.34 11.68 -8 11 C-7.34 11 -6.68 11 -6 11 C-5.67 11.66 -5.34 12.32 -5 13 C-4.01 13.66 -3.02 14.32 -2 15 C-4.75 19.875 -4.75 19.875 -7 21 C-7.33 21.66 -7.66 22.32 -8 23 C-9.32 22.67 -10.64 22.34 -12 22 C-11.67 24.64 -11.34 27.28 -11 30 C-11.99 30.33 -12.98 30.66 -14 31 C-14.33 52.45 -14.66 73.9 -15 96 C-15.33 96 -15.66 96 -16 96 C-16.06964775 85.7075049 -16.1228862 75.41506628 -16.15543652 65.12238312 C-16.17106257 60.3425715 -16.19224475 55.56292166 -16.22631836 50.78320312 C-16.2590212 46.1666455 -16.27687602 41.55024305 -16.28463173 36.93357849 C-16.29015567 35.17619893 -16.30094249 33.41882742 -16.31719017 31.66151428 C-16.33911002 29.19147687 -16.34196091 26.72207284 -16.34057617 24.25195312 C-16.351362 23.53265625 -16.36214783 22.81335938 -16.3732605 22.07226562 C-16.33584819 15.86593451 -14.87938906 10.54779103 -11.1328125 5.46875 C-10.47023438 4.8190625 -9.80765625 4.169375 -9.125 3.5 C-8.46757813 2.8296875 -7.81015625 2.159375 -7.1328125 1.46875 C-4.55612496 -0.30567219 -3.06481667 -0.2990065 0 0 Z " fill="#AC7CA3" transform="translate(125,10)"/>
<path d="M0 0 C7.2 0.48 7.2 0.48 10.5 2.625 C12.58825548 5.93140451 12.48801343 8.16560875 12 12 C10.37441457 14.20174229 9.42498699 14.90384578 6.73828125 15.51171875 C4.4921875 15.67447917 2.24609375 15.83723958 0 16 C0 10.72 0 5.44 0 0 Z " fill="#E9E9E9" transform="translate(344,168)"/>
<path d="M0 0 C24.09 0 48.18 0 73 0 C73 0.99 73 1.98 73 3 C48.58 3 24.16 3 -1 3 C-0.67 2.01 -0.34 1.02 0 0 Z " fill="#A07998" transform="translate(257,124)"/>
<path d="M0 0 C0.66 0.33 1.32 0.66 2 1 C3.23283771 4.69851313 3.13161347 8.10931103 3.11352539 11.9597168 C3.11367142 12.76970123 3.11381744 13.57968567 3.1139679 14.41421509 C3.113271 17.09257685 3.10548903 19.77086913 3.09765625 22.44921875 C3.09579128 24.30581118 3.09436775 26.1624041 3.09336853 28.01899719 C3.0895496 32.90655881 3.07972461 37.79409074 3.06866455 42.68164062 C3.05843704 47.66861571 3.05386803 52.65559558 3.04882812 57.64257812 C3.03810181 67.42839847 3.02103284 77.21419676 3 87 C0.78980275 83.68470413 0.75767048 82.71812176 0.78881836 78.86791992 C0.79219711 77.81799362 0.79557587 76.76806732 0.79905701 75.68632507 C0.81251663 74.54589249 0.82597626 73.4054599 0.83984375 72.23046875 C0.84504532 71.0439119 0.85024689 69.85735504 0.85560608 68.63484192 C0.87344594 64.81893827 0.90451176 61.00330048 0.9375 57.1875 C1.11240296 36.27057391 1.11240296 36.27057391 0.56640625 15.36328125 C0.52692368 14.4516069 0.4874411 13.53993256 0.44676208 12.60063171 C0.27025702 9.12821665 0.10685668 6.32057004 -1 3 C-0.67 2.01 -0.34 1.02 0 0 Z " fill="#8E5E85" transform="translate(346,20)"/>
<path d="M0 0 C1.34210855 0.10825106 2.68806019 0.17472864 4.03417969 0.20532227 C5.20494049 0.2352401 5.20494049 0.2352401 6.39935303 0.26576233 C7.23178528 0.28247482 8.06421753 0.29918732 8.921875 0.31640625 C10.21185394 0.3475779 10.21185394 0.3475779 11.52789307 0.37937927 C14.26851598 0.44463739 17.00923275 0.50364917 19.75 0.5625 C21.6106867 0.60570781 23.47136398 0.64932282 25.33203125 0.69335938 C29.88792523 0.80029442 34.4439134 0.90162851 39 1 C39 5.95 39 10.9 39 16 C38.67 16 38.34 16 38 16 C38 11.38 38 6.76 38 2 C26.12 2 14.24 2 2 2 C1.67 6.62 1.34 11.24 1 16 C-0.32 17.32 -1.64 18.64 -3 20 C-3 13.73 -3 7.46 -3 1 C-3.99 0.67 -4.98 0.34 -6 0 C-3.45770939 -1.27114531 -2.68179058 -0.7253516 0 0 Z M-2 1 C-2 1.66 -2 2.32 -2 3 C-1.34 3 -0.68 3 0 3 C0 2.34 0 1.68 0 1 C-0.66 1 -1.32 1 -2 1 Z " fill="#C7C7C7" transform="translate(424,154)"/>
<path d="M0 0 C3.09759737 0.75719047 4.60048674 1.39648626 6.8125 3.6875 C8.7420926 7.5740553 9.03224928 10.68890786 8.9375 15 C8.91945313 16.06863281 8.90140625 17.13726562 8.8828125 18.23828125 C8.85960937 19.04652344 8.83640625 19.85476562 8.8125 20.6875 C8.4825 20.6875 8.1525 20.6875 7.8125 20.6875 C7.4825 18.7075 7.1525 16.7275 6.8125 14.6875 C5.8225 15.1825 5.8225 15.1825 4.8125 15.6875 C5.1425 13.3775 5.4725 11.0675 5.8125 8.6875 C3.48035852 7.48121992 1.31607861 6.5220262 -1.1875 5.6875 C-1.5175 6.3475 -1.8475 7.0075 -2.1875 7.6875 C-4.1875 8.6875 -4.1875 8.6875 -6.1875 9.6875 C-7.89671589 11.2287312 -7.89671589 11.2287312 -9.1875 12.6875 C-9.87890625 10.953125 -9.87890625 10.953125 -10.1875 8.6875 C-7.75793743 4.43382495 -4.84443113 1.0448773 0 0 Z " fill="#8F6086" transform="translate(311.1875,47.3125)"/>
<path d="M0 0 C0 3.50948532 -0.94699288 5.43055633 -2.375 8.625 C-6.52194714 18.4183554 -7.42687879 27.39725755 -8 38 C-8.33 38 -8.66 38 -9 38 C-9.33 36.02 -9.66 34.04 -10 32 C-11.485 32.495 -11.485 32.495 -13 33 C-12.67 26.4 -12.34 19.8 -12 13 C-11.67 13 -11.34 13 -11 13 C-11 15.64 -11 18.28 -11 21 C-10.34 21 -9.68 21 -9 21 C-8.814375 19.700625 -8.814375 19.700625 -8.625 18.375 C-8.01941879 15.10486147 -7.11693965 12.12743101 -6 9 C-5.34 9 -4.68 9 -4 9 C-3.896875 7.88625 -3.79375 6.7725 -3.6875 5.625 C-3.460625 4.42875 -3.23375 3.2325 -3 2 C-2.01 1.34 -1.02 0.68 0 0 Z " fill="#8D5C85" transform="translate(288,43)"/>
<path d="M0 0 C0.99 0.33 1.98 0.66 3 1 C4.18681319 8.91208791 4.18681319 8.91208791 3 13 C2.96111651 15.33300933 2.9551365 17.66709801 3 20 C3.66 20.33 4.32 20.66 5 21 C5 21.66 5 22.32 5 23 C6.32 23 7.64 23 9 23 C9 22.34 9 21.68 9 21 C9.66 21 10.32 21 11 21 C11.33 22.32 11.66 23.64 12 25 C9.29120665 26.35439668 6.99066732 26.06501451 4 26 C-1.2277659 17.2308443 -2.07536895 10.11742363 0 0 Z " fill="#94678B" transform="translate(298,62)"/>
<path d="M0 0 C2 2 2 2 2 5 C2.66 5 3.32 5 4 5 C4.19335938 6.26457031 4.38671875 7.52914062 4.5859375 8.83203125 C4.84857079 10.49224885 5.11161295 12.15240181 5.375 13.8125 C5.50132812 14.64587891 5.62765625 15.47925781 5.7578125 16.33789062 C5.88671875 17.14033203 6.015625 17.94277344 6.1484375 18.76953125 C6.26364746 19.50792236 6.37885742 20.24631348 6.49755859 21.00708008 C6.95689366 23.29767611 6.95689366 23.29767611 9 26 C9.33 26 9.66 26 10 26 C10 28.64 10 31.28 10 34 C9.34 34 8.68 34 8 34 C-0.15819318 9.08028856 -0.15819318 9.08028856 0 0 Z " fill="#8E6D8B" transform="translate(183,43)"/>
<path d="M0 0 C1.65 0 3.3 0 5 0 C4.34 1.32 3.68 2.64 3 4 C2.67 4 2.34 4 2 4 C1.67 22.48 1.34 40.96 1 60 C0.67 60 0.34 60 0 60 C0 40.2 0 20.4 0 0 Z " fill="#0D0D0D" transform="translate(426,156)"/>
<path d="M0 0 C0.33 0 0.66 0 1 0 C1 2.97 1 5.94 1 9 C1.66 9 2.32 9 3 9 C2.01 15.6 1.02 22.2 0 29 C-0.33 29 -0.66 29 -1 29 C-1.82653734 22.86000832 -2.13149475 16.75107968 -2.1875 10.5625 C-2.20039063 9.86447266 -2.21328125 9.16644531 -2.2265625 8.44726562 C-2.23379324 4.73427863 -2.1149862 3.17247929 0 0 Z " fill="#996491" transform="translate(194,39)"/>
<path d="M0 0 C2.44563312 2.44563312 3.34131255 4.75525172 4.6875 7.9375 C5.14511719 8.99839844 5.60273438 10.05929688 6.07421875 11.15234375 C7 14 7 14 6 17 C3.03 15.35 0.06 13.7 -3 12 C-2.34 11.34 -1.68 10.68 -1 10 C-1 9.01 -1 8.02 -1 7 C-0.34 7 0.32 7 1 7 C0.4740625 5.824375 0.4740625 5.824375 -0.0625 4.625 C-0.371875 3.75875 -0.68125 2.8925 -1 2 C-0.67 1.34 -0.34 0.68 0 0 Z " fill="#9A6E8F" transform="translate(259,133)"/>
<path d="M0 0 C0.66 0.66 1.32 1.32 2 2 C1.1875 4.4375 1.1875 4.4375 0 7 C-0.99 7.33 -1.98 7.66 -3 8 C-3.95362501 10.29920559 -3.95362501 10.29920559 -4.5625 13 C-5.25390625 15.75 -5.25390625 15.75 -6 18 C-6.66 18.33 -7.32 18.66 -8 19 C-8.38995102 20.86492402 -8.38995102 20.86492402 -8.5 23 C-8.65625 25.1875 -8.65625 25.1875 -9 27 C-9.66 27.33 -10.32 27.66 -11 28 C-10.74246819 17.41778397 -7.45234068 7.6652647 0 0 Z " fill="#F1E2F1" transform="translate(292,40)"/>
<path d="M0 0 C0.66 0 1.32 0 2 0 C2 0.66 2 1.32 2 2 C5.465 1.505 5.465 1.505 9 1 C8 3 8 3 5.25 4.125 C1.38790233 6.35313327 0.10359951 8.54207855 -2.01953125 12.35546875 C-2.34308594 12.89816406 -2.66664063 13.44085938 -3 14 C-3.33 14 -3.66 14 -4 14 C-4 10.7 -4 7.4 -4 4 C-3.34 4 -2.68 4 -2 4 C-2 3.34 -2 2.68 -2 2 C-1.34 2 -0.68 2 0 2 C0 1.34 0 0.68 0 0 Z " fill="#915C86" transform="translate(205,17)"/>
<path d="M0 0 C0.66 0.33 1.32 0.66 2 1 C1.75 3.875 1.75 3.875 1 7 C-0.9375 8.125 -0.9375 8.125 -3 9 C-4.39238047 10.86747263 -4.39238047 10.86747263 -5 13 C-4.67 13.99 -4.34 14.98 -4 16 C-7.75 19 -7.75 19 -10 19 C-8.21585549 12.39866531 -4.87983506 4.87983506 0 0 Z " fill="#F4E7F2" transform="translate(170,39)"/>
<path d="M0 0 C2.3125 1.375 2.3125 1.375 4 4 C4.62056219 7.32704769 4.87102591 10.62087887 5 14 C3.00449854 12.00449854 2.18623607 10.52075165 1 8 C0.62875 7.2575 0.2575 6.515 -0.125 5.75 C-0.41375 5.1725 -0.7025 4.595 -1 4 C-1.66 4 -2.32 4 -3 4 C-3 3.34 -3 2.68 -3 2 C-4.65 2.66 -6.3 3.32 -8 4 C-8 3.01 -8 2.02 -8 1 C-5.15916359 -0.42041821 -3.14522722 -0.31452272 0 0 Z " fill="#8E6486" transform="translate(253,48)"/>
<path d="M0 0 C5.94 0 11.88 0 18 0 C17.67 1.32 17.34 2.64 17 4 C15.02 4.33 13.04 4.66 11 5 C11 4.34 11 3.68 11 3 C10.01 3 9.02 3 8 3 C8 3.66 8 4.32 8 5 C5.36 4.67 2.72 4.34 0 4 C0 2.68 0 1.36 0 0 Z " fill="#915E8C" transform="translate(296,104)"/>
<path d="M0 0 C3.83307169 -0.11719175 7.66567608 -0.18758077 11.5 -0.25 C12.57765625 -0.28351563 13.6553125 -0.31703125 14.765625 -0.3515625 C21.69580492 -0.43607689 26.07635985 0.34804709 32 4 C31.67 5.32 31.34 6.64 31 8 C29.02 7.01 27.04 6.02 25 5 C25 4.34 25 3.68 25 3 C22.48322887 1.74161443 20.58706712 1.79181027 17.7734375 1.68359375 C16.7421875 1.64169922 15.7109375 1.59980469 14.6484375 1.55664062 C13.56820312 1.51732422 12.48796875 1.47800781 11.375 1.4375 C9.74304688 1.37272461 9.74304688 1.37272461 8.078125 1.30664062 C5.3855483 1.2003547 2.69287747 1.09831943 0 1 C0 0.67 0 0.34 0 0 Z " fill="#FEF2FE" transform="translate(201,127)"/>
<path d="M0 0 C3.48848999 0.3245107 5.54613133 0.63644584 8.31640625 2.85546875 C12.03799587 5.82949015 16.14438801 7.55418814 20.453125 9.53515625 C23 11 23 11 24 14 C19.62647496 12.36519488 15.55667256 10.30407063 11.4375 8.125 C10.77814453 7.78597656 10.11878906 7.44695312 9.43945312 7.09765625 C5.71978436 5.13127859 2.82135482 3.20184287 0 0 Z " fill="#8C6385" transform="translate(229,128)"/>
<path d="M0 0 C2.31716987 3.93918878 3.20146337 8.22409977 4.25 12.625 C4.44851562 13.40101562 4.64703125 14.17703125 4.8515625 14.9765625 C5.32778912 16.96429101 5.67413796 18.98216196 6 21 C5.34 21.66 4.68 22.32 4 23 C0.4162291 15.20919369 -0.15161334 8.52403902 0 0 Z " fill="#946A8D" transform="translate(129,86)"/>
<path d="M0 0 C2.29633824 3.44450737 2.54016485 5.93812283 3 10 C2.34 10 1.68 10 1 10 C1 10.66 1 11.32 1 12 C-6.59 12 -14.18 12 -22 12 C-22 11.67 -22 11.34 -22 11 C-11.605 10.505 -11.605 10.505 -1 10 C-1 7.69 -1 5.38 -1 3 C-0.67 2.01 -0.34 1.02 0 0 Z " fill="#C3C4C0" transform="translate(269,144)"/>
<path d="M0 0 C0.33 0.99 0.66 1.98 1 3 C1.66 3 2.32 3 3 3 C4.04616643 6.1384993 4.04169366 8.05038303 3.87890625 11.32421875 C3.83056641 12.35224609 3.78222656 13.38027344 3.73242188 14.43945312 C3.67634766 15.51130859 3.62027344 16.58316406 3.5625 17.6875 C3.51029297 18.77095703 3.45808594 19.85441406 3.40429688 20.97070312 C3.27458784 23.64742591 3.13962067 26.32377888 3 29 C2.67 29 2.34 29 2 29 C1.93941406 27.99839844 1.87882812 26.99679688 1.81640625 25.96484375 C1.73191595 24.62238669 1.64727232 23.27993928 1.5625 21.9375 C1.48128906 20.62652344 1.40007812 19.31554687 1.31640625 17.96484375 C1.02101751 14.26336762 0.56734612 10.66629552 0 7 C0.66 7 1.32 7 2 7 C1.34 6.01 0.68 5.02 0 4 C0 2.68 0 1.36 0 0 Z " fill="#9F7597" transform="translate(273,40)"/>
<path d="M0 0 C0.66 0 1.32 0 2 0 C3.98 3.96 5.96 7.92 8 12 C7.01 12.495 7.01 12.495 6 13 C6 12.34 6 11.68 6 11 C4.68 10.67 3.36 10.34 2 10 C2 9.34 2 8.68 2 8 C1.34 8 0.68 8 0 8 C-0.38063221 5.6739143 -0.71269945 3.33944736 -1 1 C-0.67 0.67 -0.34 0.34 0 0 Z " fill="#945F85" transform="translate(179,93)"/>
<path d="M0 0 C0.99 0 1.98 0 3 0 C3.33 7.26 3.66 14.52 4 22 C3.34 22 2.68 22 2 22 C1.46740456 18.89773201 0.95097025 15.79298602 0.4375 12.6875 C0.28603516 11.80642578 0.13457031 10.92535156 -0.02148438 10.01757812 C-0.16005859 9.17001953 -0.29863281 8.32246094 -0.44140625 7.44921875 C-0.57232666 6.66893311 -0.70324707 5.88864746 -0.83813477 5.0847168 C-1 3 -1 3 0 0 Z " fill="#8B5F86" transform="translate(216,63)"/>
<path d="M0 0 C0.66 0 1.32 0 2 0 C3.13764351 4.26616316 4 7.56486311 4 12 C3.34 12 2.68 12 2 12 C1.34 13.98 0.68 15.96 0 18 C-0.33 18 -0.66 18 -1 18 C-0.505 9.09 -0.505 9.09 0 0 Z " fill="#CDCDCD" transform="translate(221,178)"/>
<path d="M0 0 C0.66 0 1.32 0 2 0 C2.19406478 1.64507218 2.38007935 3.29109594 2.5625 4.9375 C2.66691406 5.85402344 2.77132813 6.77054688 2.87890625 7.71484375 C2.91886719 8.46894531 2.95882813 9.22304688 3 10 C2.67 10.33 2.34 10.66 2 11 C1.75650989 13.51606449 1.61636634 16.03086024 1.4765625 18.5546875 C0.93493272 21.33386981 0.16783058 22.24950579 -2 24 C-2 21.36 -2 18.72 -2 16 C-1.34 16 -0.68 16 0 16 C0 10.72 0 5.44 0 0 Z " fill="#9B5585" transform="translate(339,48)"/>
<path d="M0 0 C0.33 0 0.66 0 1 0 C1.50333542 2.60356241 2.00279378 5.20776651 2.5 7.8125 C2.71462891 8.91948242 2.71462891 8.91948242 2.93359375 10.04882812 C3.50926281 13.07794391 4 15.909196 4 19 C3.01 19 2.02 19 1 19 C0.90912109 18.04287109 0.90912109 18.04287109 0.81640625 17.06640625 C0.73261719 16.24011719 0.64882812 15.41382812 0.5625 14.5625 C0.48128906 13.73878906 0.40007812 12.91507813 0.31640625 12.06640625 C0.21069185 10.01337975 0.21069185 10.01337975 -1 9 C-1.1328125 7.1875 -1.1328125 7.1875 -1.125 5 C-1.12757812 4.278125 -1.13015625 3.55625 -1.1328125 2.8125 C-1 1 -1 1 0 0 Z " fill="#967091" transform="translate(123,56)"/>
<path d="M0 0 C0.33 0 0.66 0 1 0 C1 4.95 1 9.9 1 15 C-2.76300374 16.25433458 -6.27210909 16.10695422 -10.1875 16.0625 C-10.93708984 16.05798828 -11.68667969 16.05347656 -12.45898438 16.04882812 C-14.30602383 16.03706354 -16.15302213 16.01912865 -18 16 C-18 15.67 -18 15.34 -18 15 C-13.05 15 -8.1 15 -3 15 C-3.33 14.01 -3.66 13.02 -4 12 C-3.01 11.67 -2.02 11.34 -1 11 C-0.67 7.37 -0.34 3.74 0 0 Z " fill="#2C2C2C" transform="translate(420,208)"/>
<path d="M0 0 C7.50769231 -0.36923077 7.50769231 -0.36923077 10 1.5 C10.495 2.2425 10.495 2.2425 11 3 C7.53076119 5.31282587 6.07794425 5.42478586 2 5 C0.125 3.5 0.125 3.5 -1 2 C-0.67 1.34 -0.34 0.68 0 0 Z " fill="#916194" transform="translate(139,117)"/>
<path d="M0 0 C0.66 0.33 1.32 0.66 2 1 C0.02 4.96 -1.96 8.92 -4 13 C-4.66 12.34 -5.32 11.68 -6 11 C-5.95192789 7.97145729 -5.90842635 5.8172716 -5 3 C-2.5625 0.9375 -2.5625 0.9375 0 0 Z " fill="#F5EBF7" transform="translate(169,72)"/>
<path d="M0 0 C-2 2 -2 2 -5.046875 2.01953125 C-6.26890625 1.95121094 -7.4909375 1.88289063 -8.75 1.8125 C-14.81287925 1.60246483 -14.81287925 1.60246483 -19.875 4.5 C-20.57625 5.325 -21.2775 6.15 -22 7 C-22 5.68 -22 4.36 -22 3 C-14.50699493 -1.35956659 -8.45618229 -2.18224059 0 0 Z " fill="#F0DEEF" transform="translate(258,32)"/>
<path d="M0 0 C1.0209375 0.2165625 1.0209375 0.2165625 2.0625 0.4375 C1.375 2.375 1.375 2.375 0.0625 4.4375 C-2.5625 5.1875 -2.5625 5.1875 -4.9375 5.4375 C-5.370625 6.860625 -5.370625 6.860625 -5.8125 8.3125 C-6.9375 11.4375 -6.9375 11.4375 -8.9375 13.4375 C-9.875 10.875 -9.875 10.875 -9.9375 7.4375 C-7.37069992 3.62157465 -4.62713545 0.68914783 0 0 Z " fill="#8B5F81" transform="translate(122.9375,9.5625)"/>
<path d="M0 0 C0.99 0 1.98 0 3 0 C4.231394 3.69418201 3.64432764 6.2056261 3 10 C2.34 9.67 1.68 9.34 1 9 C1 8.34 1 7.68 1 7 C-0.32 7.33 -1.64 7.66 -3 8 C-2.37240135 5.07120629 -1.41377341 2.63904371 0 0 Z " fill="#A06791" transform="translate(332,84)"/>
<path d="M0 0 C1.58367747 0.14204741 3.16693318 0.28880153 4.75 0.4375 C5.63171875 0.51871094 6.5134375 0.59992188 7.421875 0.68359375 C9.69350452 0.96238465 11.79851823 1.38790577 14 2 C13.67 2.99 13.34 3.98 13 5 C12.01 4.67 11.02 4.34 10 4 C7.3430809 4.87914688 7.3430809 4.87914688 5 6 C3.10646634 4.10646634 1.5801368 2.15473199 0 0 Z " fill="#945883" transform="translate(193,114)"/>
<path d="M0 0 C0.66 0.33 1.32 0.66 2 1 C1.50269348 5.97306516 0.44697666 9.63799813 -2 14 C-2.66 14 -3.32 14 -4 14 C-3.855625 13.29875 -3.71125 12.5975 -3.5625 11.875 C-2.98521625 8.92443859 -2.48304859 5.96729849 -2 3 C-1.34 3 -0.68 3 0 3 C0 2.01 0 1.02 0 0 Z " fill="#916487" transform="translate(317,69)"/>
<path d="M0 0 C0.66 0.99 1.32 1.98 2 3 C1.4225 3.350625 0.845 3.70125 0.25 4.0625 C-2.21796045 6.18768816 -3.4621383 8.4300765 -4.984375 11.28125 C-6.32906035 13.55687136 -8.03723303 15.24752949 -10 17 C-8.58163643 11.8423143 -6.32608425 7.20024742 -3 3 C-2.34 3 -1.68 3 -1 3 C-0.67 2.01 -0.34 1.02 0 0 Z " fill="#FAEAF7" transform="translate(233,37)"/>
<path d="M0 0 C2.40326095 4.80652191 2.58524209 6.73282118 2 12 C-0.475 13.485 -0.475 13.485 -3 15 C-2.01 10.05 -1.02 5.1 0 0 Z " fill="#9B7599" transform="translate(336,68)"/>
<path d="M0 0 C0.66 0 1.32 0 2 0 C0.68 5.28 -0.64 10.56 -2 16 C-2.66 16 -3.32 16 -4 16 C-4.30095713 10.88372874 -3.85699442 8.22835174 -1 4 C-0.30420546 1.80869466 -0.30420546 1.80869466 0 0 Z " fill="#8F5F83" transform="translate(199,32)"/>
<path d="M0 0 C6.27 0.66 12.54 1.32 19 2 C19 2.33 19 2.66 19 3 C12.18491136 3.82810601 6.48129797 4.50413785 0 2 C0 1.34 0 0.68 0 0 Z " fill="#8E6288" transform="translate(233,103)"/>
<path d="M0 0 C-0.48324819 5.15464734 -3.18610761 8.81550319 -6 13 C-7.14271055 9.57186835 -6.82699932 8.69088901 -5.6875 5.375 C-5.42324219 4.57835937 -5.15898437 3.78171875 -4.88671875 2.9609375 C-3.71304666 0.36541596 -2.81485142 0 0 0 Z " fill="#8C6885" transform="translate(159,57)"/>
<path d="M0 0 C1.32 0.66 2.64 1.32 4 2 C3.67 3.65 3.34 5.3 3 7 C2.34 6.67 1.68 6.34 1 6 C0.67 6.66 0.34 7.32 0 8 C-1.32 7.67 -2.64 7.34 -4 7 C-2.68 4.69 -1.36 2.38 0 0 Z " fill="#F7EFF7" transform="translate(348,111)"/>
<path d="M0 0 C4.16138263 -0.08159574 7.9472484 0.01751476 12 1 C12 2.65 12 4.3 12 6 C11.360625 5.505 10.72125 5.01 10.0625 4.5 C5.95976517 2.49049723 2.48556418 2.73614328 -2 3 C-1.34 2.67 -0.68 2.34 0 2 C0 1.34 0 0.68 0 0 Z " fill="#906486" transform="translate(171,35)"/>
<path d="M0 0 C0.66 0.33 1.32 0.66 2 1 C1.979375 1.928125 1.95875 2.85625 1.9375 3.8125 C1.84230396 7.02286011 1.84230396 7.02286011 3 10 C2.34 10 1.68 10 1 10 C1.33 11.32 1.66 12.64 2 14 C0.68 13.67 -0.64 13.34 -2 13 C-1.855625 12.154375 -1.71125 11.30875 -1.5625 10.4375 C-0.9941203 6.96406851 -0.48797607 3.48554338 0 0 Z " fill="#8C5A84" transform="translate(257,130)"/>
<path d="M0 0 C0.66 0 1.32 0 2 0 C4 2 4 2 4.125 5.625 C4.08375 6.73875 4.0425 7.8525 4 9 C3.01 9.495 3.01 9.495 2 10 C1.34 9.67 0.68 9.34 0 9 C0 6.03 0 3.06 0 0 Z " fill="#915A87" transform="translate(209,79)"/>
<path d="M0 0 C0.66 0.33 1.32 0.66 2 1 C2.28571429 9.57142857 2.28571429 9.57142857 0 13 C-1 12 -1 12 -1.1328125 10.0390625 C-1.13023437 9.24242188 -1.12765625 8.44578125 -1.125 7.625 C-1.12886719 6.43777344 -1.12886719 6.43777344 -1.1328125 5.2265625 C-1 3 -1 3 0 0 Z " fill="#8C6684" transform="translate(298,65)"/>
<path d="M0 0 C0.66 0 1.32 0 2 0 C2.8638129 1.45264038 3.71580454 2.9123163 4.5625 4.375 C5.27599609 5.59316406 5.27599609 5.59316406 6.00390625 6.8359375 C6.33261719 7.55007812 6.66132813 8.26421875 7 9 C6.67 9.66 6.34 10.32 6 11 C5.34 11 4.68 11 4 11 C2.35 7.7 0.7 4.4 -1 1 C-0.67 0.67 -0.34 0.34 0 0 Z " fill="#EDD9EA" transform="translate(328,38)"/>
<path d="M0 0 C0.66 0.33 1.32 0.66 2 1 C0.79157144 5.43090471 -0.51668565 7.98112756 -4 11 C-4.25 5.375 -4.25 5.375 -2 2 C-1.34 2 -0.68 2 0 2 C0 1.34 0 0.68 0 0 Z " fill="#8E618A" transform="translate(274,80)"/>
<path d="M0 0 C5.41538462 -0.36923077 5.41538462 -0.36923077 8.375 1.5 C8.91125 1.995 9.4475 2.49 10 3 C9.67 3.66 9.34 4.32 9 5 C7.68428397 4.7452486 6.37239624 4.47065859 5.0625 4.1875 C4.33160156 4.03667969 3.60070312 3.88585938 2.84765625 3.73046875 C2.23792969 3.48941406 1.62820313 3.24835937 1 3 C0.67 2.01 0.34 1.02 0 0 Z " fill="#98678B" transform="translate(308,48)"/>
<path d="M0 0 C1.32 0 2.64 0 4 0 C3.01 3.96 2.02 7.92 1 12 C-1.23551759 8.64672361 -1.17283528 8.09256343 -0.625 4.3125 C-0.51414063 3.50425781 -0.40328125 2.69601563 -0.2890625 1.86328125 C-0.19367188 1.24839844 -0.09828125 0.63351563 0 0 Z " fill="#F3E2F2" transform="translate(213,40)"/>
<path d="M0 0 C0.598125 0.763125 1.19625 1.52625 1.8125 2.3125 C3.46959332 4.3483575 5.10297674 6.1978279 7 8 C4.69 8.33 2.38 8.66 0 9 C0 6.03 0 3.06 0 0 Z " fill="#F3EFF7" transform="translate(112,115)"/>
<path d="M0 0 C0.33 0.99 0.66 1.98 1 3 C2.32 3 3.64 3 5 3 C5.33 2.34 5.66 1.68 6 1 C6.33 1.99 6.66 2.98 7 4 C5.25 6.0625 5.25 6.0625 3 8 C0.75 7.75 0.75 7.75 -1 7 C-0.67 6.01 -0.34 5.02 0 4 C0 2.68 0 1.36 0 0 Z " fill="#F1E5EA" transform="translate(142,108)"/>
<path d="M0 0 C0.66 0 1.32 0 2 0 C2.66 0.99 3.32 1.98 4 3 C4.33 3 4.66 3 5 3 C5 5.64 5 8.28 5 11 C4.34 11 3.68 11 3 11 C2.49632243 9.54293274 1.99717444 8.08429904 1.5 6.625 C1.2215625 5.81289062 0.943125 5.00078125 0.65625 4.1640625 C0 2 0 2 0 0 Z " fill="#94788F" transform="translate(188,66)"/>
<path d="M0 0 C3.61938095 2.64116988 5.98706523 4.97413046 8 9 C8 9.66 8 10.32 8 11 C7.01 10.67 6.02 10.34 5 10 C4.3125 7.9375 4.3125 7.9375 4 6 C3.34 6 2.68 6 2 6 C0.375 3.5 0.375 3.5 -1 1 C-0.67 0.67 -0.34 0.34 0 0 Z " fill="#F7E6F4" transform="translate(265,37)"/>
<path d="M0 0 C1.98 0.99 3.96 1.98 6 3 C5.67 4.32 5.34 5.64 5 7 C3.02 6.01 1.04 5.02 -1 4 C-0.67 2.68 -0.34 1.36 0 0 Z " fill="#F2E6F3" transform="translate(227,128)"/>
<path d="M0 0 C4.95 0 9.9 0 15 0 C15 0.33 15 0.66 15 1 C11.04 1 7.08 1 3 1 C3.33 2.32 3.66 3.64 4 5 C3.01 5.495 3.01 5.495 2 6 C1.34 4.02 0.68 2.04 0 0 Z " fill="#F8E7F7" transform="translate(257,127)"/>
<path d="M0 0 C1.1875 1.6875 1.1875 1.6875 2 4 C0.625 6.75 0.625 6.75 -1 9 C-1.66 8.67 -2.32 8.34 -3 8 C-3 6.35 -3 4.7 -3 3 C-2.01 2.67 -1.02 2.34 0 2 C0 1.34 0 0.68 0 0 Z " fill="#886482" transform="translate(148,73)"/>
<path d="M0 0 C-0.80814651 1.33597652 -1.62163181 2.668725 -2.4375 4 C-2.88996094 4.7425 -3.34242188 5.485 -3.80859375 6.25 C-4.20175781 6.8275 -4.59492188 7.405 -5 8 C-5.33 8 -5.66 8 -6 8 C-6 5.36 -6 2.72 -6 0 C-3 -1 -3 -1 0 0 Z " fill="#8E678A" transform="translate(207,23)"/>
<path d="M0 0 C3.1875 -0.3125 3.1875 -0.3125 7 0 C9.9375 2.5 9.9375 2.5 12 5 C10.25 5.75 10.25 5.75 8 6 C6 4.1875 6 4.1875 4 2 C1.86690808 0.76487921 1.86690808 0.76487921 0 0 Z " fill="#E3E3E3" transform="translate(84,169)"/>
<path d="M0 0 C1.9375 0.6875 1.9375 0.6875 4 2 C4.75 4.625 4.75 4.625 5 7 C1.535 5.02 1.535 5.02 -2 3 C-1.34 2.01 -0.68 1.02 0 0 Z " fill="#8E6E87" transform="translate(261,143)"/>
<path d="M0 0 C2.64 0.33 5.28 0.66 8 1 C8 2.32 8 3.64 8 5 C5.36 4.67 2.72 4.34 0 4 C0 2.68 0 1.36 0 0 Z " fill="#8F5A80" transform="translate(296,104)"/>
<path d="M0 0 C1.32 0.66 2.64 1.32 4 2 C3.67 2.99 3.34 3.98 3 5 C2.67 4.67 2.34 4.34 2 4 C1.67 4.66 1.34 5.32 1 6 C0.67 6 0.34 6 0 6 C-0.33 6.66 -0.66 7.32 -1 8 C-1.625 5.6875 -1.625 5.6875 -2 3 C-1.34 2.01 -0.68 1.02 0 0 Z " fill="#915985" transform="translate(155,103)"/>
<path d="M0 0 C0.99 0.33 1.98 0.66 3 1 C2.67 1.99 2.34 2.98 2 4 C-4.75 5.125 -4.75 5.125 -7 4 C-7 3.34 -7 2.68 -7 2 C-5.02 2 -3.04 2 -1 2 C-0.67 1.34 -0.34 0.68 0 0 Z " fill="#8F6283" transform="translate(247,83)"/>
<path d="M0 0 C0.66 0.33 1.32 0.66 2 1 C0.125 6.75 0.125 6.75 -1 9 C-1.66 9 -2.32 9 -3 9 C-3.36923077 3.46153846 -3.36923077 3.46153846 -1.5 1.125 C-1.005 0.75375 -0.51 0.3825 0 0 Z " fill="#F9E7F6" transform="translate(300,53)"/>
<path d="M0 0 C4.29 0 8.58 0 13 0 C13 0.99 13 1.98 13 3 C8.62065881 2.48041715 4.31196609 1.94324258 0 1 C0 0.67 0 0.34 0 0 Z " fill="#8F5B89" transform="translate(307,29)"/>
<path d="M0 0 C4.875 2.75 4.875 2.75 6 5 C6.039992 6.99960012 6.04346799 9.00047242 6 11 C3.10067643 8.60490662 2.49831724 6.68754757 2 3 C1.34 3 0.68 3 0 3 C0 2.01 0 1.02 0 0 Z " fill="#F2E2F2" transform="translate(215,21)"/>
<path d="M0 0 C1.94566951 3.47547073 2.07637127 5.12506344 1 9 C1.66 9 2.32 9 3 9 C2.67 10.98 2.34 12.96 2 15 C-0.02558881 11.65060119 -0.21738987 9.13037449 -0.125 5.25 C-0.09792969 3.77273437 -0.09792969 3.77273437 -0.0703125 2.265625 C-0.04710937 1.51796875 -0.02390625 0.7703125 0 0 Z " fill="#8C5C7D" transform="translate(138,34)"/>
<path d="M0 0 C0.66 0 1.32 0 2 0 C0.86092693 3.41721921 -0.40937023 4.55740622 -3 7 C-4.11375 8.11375 -4.11375 8.11375 -5.25 9.25 C-5.8275 9.8275 -6.405 10.405 -7 11 C-5.51131293 6.39860359 -3.25370145 3.49772906 0 0 Z " fill="#242424" transform="translate(69,159)"/>
<path d="M0 0 C0.99 0.33 1.98 0.66 3 1 C2.505 1.433125 2.01 1.86625 1.5 2.3125 C-0.33218192 3.99740483 -0.33218192 3.99740483 0 7 C-1.65 7.33 -3.3 7.66 -5 8 C-5.33 7.34 -5.66 6.68 -6 6 C-4 4 -2 2 0 0 Z " fill="#F7EAF5" transform="translate(316,80)"/>
<path d="M0 0 C0.33 0 0.66 0 1 0 C1.06058594 0.83144531 1.12117187 1.66289063 1.18359375 2.51953125 C1.26738281 3.60621094 1.35117188 4.69289063 1.4375 5.8125 C1.55931641 7.43091797 1.55931641 7.43091797 1.68359375 9.08203125 C1.90212461 12.05989905 1.90212461 12.05989905 3 15 C1.68 15 0.36 15 -1 15 C-0.67 10.05 -0.34 5.1 0 0 Z " fill="#EAD8E8" transform="translate(235,68)"/>
<path d="M0 0 C0.66 0 1.32 0 2 0 C1.67 3.63 1.34 7.26 1 11 C0.34 10.67 -0.32 10.34 -1 10 C-0.67 6.7 -0.34 3.4 0 0 Z " fill="#936C8B" transform="translate(257,63)"/>
<path d="M0 0 C1.32 0 2.64 0 4 0 C3.67 1.65 3.34 3.3 3 5 C2.01 5 1.02 5 0 5 C-0.66 4.01 -1.32 3.02 -2 2 C-1.34 2 -0.68 2 0 2 C0 1.34 0 0.68 0 0 Z " fill="#101010" transform="translate(67,211)"/>
<path d="M0 0 C1.98362069 2.91708924 1.9876191 4.12380904 1.625 7.75 C1.41875 8.8225 1.2125 9.895 1 11 C0.34 10.67 -0.32 10.34 -1 10 C-1.125 2.25 -1.125 2.25 0 0 Z " fill="#E4E4E4" transform="translate(239,180)"/>
<path d="M0 0 C0.66 0 1.32 0 2 0 C3.60725635 3.21451269 3.05748185 6.43612536 3 10 C-0.00617269 6.99382731 0.40414684 4.17618402 0 0 Z " fill="#8B6583" transform="translate(186,56)"/>
<path d="M0 0 C0.66 1.32 1.32 2.64 2 4 C1.34 4 0.68 4 0 4 C-0.33 6.64 -0.66 9.28 -1 12 C-1.33 12 -1.66 12 -2 12 C-2.28571429 3.42857143 -2.28571429 3.42857143 0 0 Z " fill="#966E8E" transform="translate(112,18)"/>
<path d="M0 0 C1.32 0 2.64 0 4 0 C4 4 4 4 3 7 C2.34 7 1.68 7 1 7 C0.34 5.02 -0.32 3.04 -1 1 C-0.67 0.67 -0.34 0.34 0 0 Z " fill="#ECECEC" transform="translate(80,200)"/>
<path d="M0 0 C0.66 0.99 1.32 1.98 2 3 C1.67 3.99 1.34 4.98 1 6 C0.34 6 -0.32 6 -1 6 C-1.33 6.99 -1.66 7.98 -2 9 C-2.66 8.67 -3.32 8.34 -4 8 C-2.68 5.36 -1.36 2.72 0 0 Z " fill="#976D94" transform="translate(162,89)"/>
<path d="M0 0 C0.33 0 0.66 0 1 0 C1.36923077 7.50769231 1.36923077 7.50769231 -0.5 10 C-0.995 10.33 -1.49 10.66 -2 11 C-2 8.36 -2 5.72 -2 3 C-1.34 3 -0.68 3 0 3 C0 2.01 0 1.02 0 0 Z " fill="#8E5887" transform="translate(339,61)"/>
<path d="M0 0 C0.66 0.33 1.32 0.66 2 1 C1.67 4.63 1.34 8.26 1 12 C0.67 12 0.34 12 0 12 C-0.19477739 10.37585622 -0.38059458 8.75063577 -0.5625 7.125 C-0.66691406 6.22007813 -0.77132812 5.31515625 -0.87890625 4.3828125 C-1 2 -1 2 0 0 Z " fill="#9F7592" transform="translate(193,56)"/>
<path d="M0 0 C1.60080151 4.00200378 0.29279692 7.04556236 -1 11 C-2.4606285 8.35261084 -3 7.10551666 -3 4 C-2.34 3.67 -1.68 3.34 -1 3 C-0.67 2.01 -0.34 1.02 0 0 Z " fill="#A7A7A7" transform="translate(159,181)"/>
<path d="M0 0 C2 2 2 2 2.1953125 4.8203125 C2.16050781 6.45613281 2.16050781 6.45613281 2.125 8.125 C2.10695313 9.22070312 2.08890625 10.31640625 2.0703125 11.4453125 C2.04710937 12.28835937 2.02390625 13.13140625 2 14 C1.67 14 1.34 14 1 14 C1 11.03 1 8.06 1 5 C0.34 5 -0.32 5 -1 5 C-0.67 3.35 -0.34 1.7 0 0 Z " fill="#C3C3C3" transform="translate(374,179)"/>
<path d="M0 0 C2.64 0.33 5.28 0.66 8 1 C6.35 2.32 4.7 3.64 3 5 C1.5 3.625 1.5 3.625 0 2 C0 1.34 0 0.68 0 0 Z " fill="#1B1B1B" transform="translate(398,169)"/>
<path d="M0 0 C3.96 1.98 3.96 1.98 8 4 C6.02 4.99 6.02 4.99 4 6 C2.62437146 4.71034824 1.29233607 3.37310707 0 2 C0 1.34 0 0.68 0 0 Z " fill="#F6E6F4" transform="translate(257,145)"/>
<path d="M0 0 C0.66 0.33 1.32 0.66 2 1 C1.75 2.875 1.75 2.875 1 5 C-1.0625 6.25 -1.0625 6.25 -3 7 C-3 6.01 -3 5.02 -3 4 C-2.34 4 -1.68 4 -1 4 C-0.67 2.68 -0.34 1.36 0 0 Z " fill="#8B6387" transform="translate(344,113)"/>
<path d="M0 0 C-0.875 3.875 -0.875 3.875 -2 5 C-3.66617115 5.04063832 -5.33388095 5.042721 -7 5 C-2.25 0 -2.25 0 0 0 Z " fill="#92658D" transform="translate(263,98)"/>
<path d="M0 0 C0.66 0 1.32 0 2 0 C0.60667426 3.36720387 -0.9789286 4.9859524 -4 7 C-4.66 6.67 -5.32 6.34 -6 6 C-4 4 -2 2 0 0 Z " fill="#876581" transform="translate(325,96)"/>
<path d="M0 0 C0.66 0 1.32 0 2 0 C2.66 1.65 3.32 3.3 4 5 C3.34 5.66 2.68 6.32 2 7 C2 6.34 2 5.68 2 5 C1.01 4.67 0.02 4.34 -1 4 C-0.67 2.68 -0.34 1.36 0 0 Z " fill="#976A8B" transform="translate(179,93)"/>
<path d="M0 0 C1.875 0.1875 1.875 0.1875 4 1 C5.25 3.5625 5.25 3.5625 6 6 C4.68 6 3.36 6 2 6 C1.34 4.02 0.68 2.04 0 0 Z " fill="#956185" transform="translate(280,89)"/>
<path d="M0 0 C0.66 0.33 1.32 0.66 2 1 C2 2.65 2 4.3 2 6 C0.35 6.33 -1.3 6.66 -3 7 C-2.01 4.69 -1.02 2.38 0 0 Z " fill="#946D87" transform="translate(171,71)"/>
<path d="M0 0 C0.66 0 1.32 0 2 0 C2 2.31 2 4.62 2 7 C1.01 7.33 0.02 7.66 -1 8 C-1.125 2.25 -1.125 2.25 0 0 Z " fill="#8D5E85" transform="translate(215,46)"/>
<path d="M0 0 C1.67542976 0.28604898 3.34385343 0.61781233 5 1 C4.67 2.32 4.34 3.64 4 5 C2.35 5 0.7 5 -1 5 C-0.01 4.34 0.98 3.68 2 3 C1.01 2.34 0.02 1.68 -1 1 C-0.67 0.67 -0.34 0.34 0 0 Z " fill="#966E96" transform="translate(211,16)"/>
<path d="M0 0 C1.5 1.1875 1.5 1.1875 3 3 C3.1875 5.6875 3.1875 5.6875 3 8 C2.67 7.34 2.34 6.68 2 6 C1.01 6.33 0.02 6.66 -1 7 C-0.67 4.69 -0.34 2.38 0 0 Z " fill="#926488" transform="translate(220,87)"/>
<path d="M0 0 C0.66 0 1.32 0 2 0 C2.33 1.98 2.66 3.96 3 6 C1.68 6 0.36 6 -1 6 C-0.67 4.02 -0.34 2.04 0 0 Z " fill="#926185" transform="translate(174,82)"/>
<path d="M0 0 C0.99 0 1.98 0 3 0 C2.34 1.98 1.68 3.96 1 6 C0.01 6 -0.98 6 -2 6 C-1.34 4.02 -0.68 2.04 0 0 Z " fill="#F5E6F1" transform="translate(257,74)"/>
<path d="M0 0 C2.475 0.495 2.475 0.495 5 1 C5 2.32 5 3.64 5 5 C4.34 5 3.68 5 3 5 C3 4.34 3 3.68 3 3 C2.34 3 1.68 3 1 3 C0.67 2.01 0.34 1.02 0 0 Z " fill="#F5E1F3" transform="translate(129,25)"/>
<path d="M0 0 C0.66 0.33 1.32 0.66 2 1 C2 2.65 2 4.3 2 6 C0.68 5.67 -0.64 5.34 -2 5 C-1.125 1.125 -1.125 1.125 0 0 Z " fill="#8D6191" transform="translate(254,131)"/>
<path d="M0 0 C1.485 0.99 1.485 0.99 3 2 C5.11280345 2.63292383 5.11280345 2.63292383 7 3 C5.25 4.125 5.25 4.125 3 5 C0.75 4.125 0.75 4.125 -1 3 C-0.67 2.01 -0.34 1.02 0 0 Z " fill="#F3E4F1" transform="translate(294,99)"/>
<path d="M0 0 C0.66 0 1.32 0 2 0 C2.33 2.64 2.66 5.28 3 8 C2.01 7.34 1.02 6.68 0 6 C-0.1875 2.875 -0.1875 2.875 0 0 Z " fill="#997391" transform="translate(280,82)"/>
<path d="M0 0 C0.66 0.99 1.32 1.98 2 3 C-0.31 4.65 -2.62 6.3 -5 8 C-4.34 6.35 -3.68 4.7 -3 3 C-2.34 3 -1.68 3 -1 3 C-0.67 2.01 -0.34 1.02 0 0 Z " fill="#F0DFF0" transform="translate(233,37)"/>
</svg>
