<?xml version="1.0" encoding="UTF-8"?>
<svg version="1.1" xmlns="http://www.w3.org/2000/svg" width="480" height="185">
<path d="M0 0 C158.4 0 316.8 0 480 0 C480 61.05 480 122.1 480 185 C321.6 185 163.2 185 0 185 C0 123.95 0 62.9 0 0 Z " fill="#FDFCFC" transform="translate(0,0)"/>
<path d="M0 0 C0.69287109 0.01804688 1.38574219 0.03609375 2.09960938 0.0546875 C3.79617664 0.10148936 5.49202476 0.17322376 7.1875 0.25 C7.1875 1.24 7.1875 2.23 7.1875 3.25 C6.43984375 3.29898438 5.6921875 3.34796875 4.921875 3.3984375 C3.93703125 3.47320312 2.9521875 3.54796875 1.9375 3.625 C0.47570312 3.72941406 0.47570312 3.72941406 -1.015625 3.8359375 C-3.75646531 4.24170436 -5.52308666 4.70622128 -7.8125 6.25 C-8.72961184 9.00133552 -8.94164981 10.63462546 -8.95294189 13.46961975 C-8.95865204 14.32909714 -8.96436218 15.18857452 -8.97024536 16.07409668 C-8.97136322 17.01394409 -8.97248108 17.9537915 -8.97363281 18.92211914 C-8.97859772 19.91420883 -8.98356262 20.90629852 -8.98867798 21.92845154 C-9.00329801 25.21402678 -9.01009991 28.49955381 -9.015625 31.78515625 C-9.02137476 34.06294252 -9.02713252 36.34072878 -9.03289795 38.61851501 C-9.04340623 43.39419786 -9.04925064 48.16986386 -9.05273438 52.94555664 C-9.05823128 59.07837714 -9.08228561 65.21097697 -9.11070633 71.34372807 C-9.12928291 76.04732424 -9.13453555 80.75086661 -9.13607025 85.45449638 C-9.13910651 87.7164271 -9.14716752 89.97835665 -9.16025543 92.24025154 C-9.17721854 95.39610002 -9.17546005 98.55140044 -9.16894531 101.70727539 C-9.1781601 102.64914703 -9.18737488 103.59101868 -9.1968689 104.56143188 C-9.19129974 105.41808945 -9.18573059 106.27474701 -9.17999268 107.15736389 C-9.18145924 107.90380692 -9.1829258 108.65024996 -9.1844368 109.41931248 C-8.95191289 111.66618935 -8.95191289 111.66618935 -5.8125 113.25 C-3.38494043 113.44236879 -1.07283431 113.5181439 1.35464382 113.50168228 C2.46223493 113.5060426 2.46223493 113.5060426 3.59220162 113.51049101 C6.08608015 113.51783583 8.57971608 113.51082692 11.07359314 113.50396729 C12.87174578 113.50626995 14.66989748 113.50944516 16.4680472 113.51342177 C21.42465827 113.52180517 26.38119277 113.51762848 31.3378042 113.51144934 C36.67735155 113.50694025 42.01688536 113.51390093 47.35643005 113.51940918 C57.82297357 113.52832157 68.28948846 113.52637292 78.75603312 113.5205839 C87.25993535 113.51607441 95.76382954 113.51545141 104.26773262 113.51763153 C106.08047683 113.51809123 106.08047683 113.51809123 107.92984213 113.51856022 C110.38458661 113.51919964 112.83933108 113.51984807 115.29407556 113.5205054 C138.33482477 113.52621416 161.3755581 113.51964237 184.41630471 113.50890467 C204.20129119 113.49996979 223.98625419 113.50151962 243.77124023 113.51074219 C266.72576028 113.52143713 289.68026638 113.52566359 312.63478857 113.51951766 C315.08100958 113.51888054 317.5272306 113.5182518 319.97345161 113.51763153 C321.17715588 113.51732298 322.38086014 113.51701443 323.6210403 113.51669653 C332.11764799 113.51496717 340.61424687 113.51788988 349.1108532 113.52259064 C359.46126776 113.52819092 369.81165198 113.52670108 380.16206305 113.51602915 C385.44651678 113.51076075 390.73091984 113.5087355 396.01537323 113.51532745 C400.84818623 113.52126498 405.68090138 113.51804829 410.51370544 113.50737235 C412.26670262 113.50512894 414.01970798 113.50629552 415.77269994 113.51112393 C418.14675756 113.51716389 420.52047547 113.51100995 422.89451504 113.50168228 C423.92670856 113.50870578 423.92670856 113.50870578 424.97975448 113.51587117 C428.51194058 113.48793994 431.27939446 113.37090305 434.1875 111.25 C435.09296071 108.53361788 435.31644259 106.94918583 435.32794189 104.1577301 C435.33365204 103.3263855 435.33936218 102.49504089 435.34524536 101.63850403 C435.34636322 100.72985092 435.34748108 99.82119781 435.34863281 98.88500977 C435.35359772 97.92539337 435.35856262 96.96577698 435.36367798 95.9770813 C435.37829893 92.7985157 435.38510081 89.61999997 435.390625 86.44140625 C435.39637563 84.23567198 435.40213337 82.02993773 435.40789795 79.82420349 C435.41840714 75.19814826 435.42425064 70.57211041 435.42773438 65.94604492 C435.43322496 60.01295653 435.45726551 54.08009695 435.48570633 48.14708042 C435.50430997 43.59095076 435.50953705 39.03487652 435.51107025 34.47871208 C435.51410145 32.29100224 435.52214561 30.10329347 435.53525543 27.9156208 C435.55227141 24.85836364 435.5504467 21.8016698 435.54394531 18.74438477 C435.5531601 17.83775589 435.56237488 16.93112701 435.5718689 15.99702454 C435.5491907 11.16738734 435.5491907 11.16738734 433.85272217 6.71910095 C429.95362159 3.27921618 424.90724344 4.09712984 420.01911926 4.09178162 C419.06917184 4.08684364 418.11922442 4.08190566 417.14049071 4.07681805 C413.94367856 4.0614073 410.74688654 4.05307274 407.55004883 4.04467773 C405.26391929 4.03510202 402.97779153 4.02509213 400.69166565 4.01467896 C394.47304473 3.98759057 388.25441619 3.96660231 382.03576875 3.94667697 C375.5414657 3.92484166 369.04718625 3.89744098 362.55290222 3.87062073 C351.64864107 3.82634203 340.74437197 3.78551239 329.84008789 3.74731445 C318.60798193 3.70795872 307.37588675 3.66653231 296.14379883 3.62231445 C295.45160402 3.61959018 294.75940922 3.61686591 294.04623882 3.61405908 C290.57374605 3.60037959 287.10125346 3.58665932 283.62876093 3.57291877 C254.81502999 3.45895648 226.0012749 3.35221988 197.1875 3.25 C197.1875 2.26 197.1875 1.27 197.1875 0.25 C275.7275 0.25 354.2675 0.25 435.1875 0.25 C435.1875 0.91 435.1875 1.57 435.1875 2.25 C435.826875 2.559375 436.46625 2.86875 437.125 3.1875 C439.1875 4.25 439.1875 4.25 440.1875 5.25 C440.29806252 6.64230041 440.34039704 8.04009802 440.3548584 9.43670654 C440.36634918 10.33958405 440.37783997 11.24246155 440.38967896 12.17269897 C440.39708099 13.17112823 440.40448303 14.1695575 440.41210938 15.19824219 C440.42349945 16.24374237 440.43488953 17.28924255 440.44662476 18.36642456 C440.5572667 29.30836171 440.60470604 40.25098052 440.64746094 51.19335938 C440.66975706 56.39095982 440.71155323 61.58784463 440.77050781 66.78515625 C440.84144058 73.04983401 440.87827053 79.31383684 440.89057922 85.57889557 C440.90100627 87.96959893 440.92349248 90.36028081 440.95817566 92.75075531 C441.00420537 96.09603642 441.00640181 99.43865387 440.99804688 102.78417969 C441.02164276 103.77451202 441.04523865 104.76484436 441.06954956 105.78518677 C441.05848175 106.69934357 441.04741394 107.61350037 441.03601074 108.55535889 C441.04116447 109.34588024 441.04631821 110.1364016 441.05162811 110.95087814 C439.65053873 114.67865321 436.62309063 116.40794433 433.1875 118.25 C430.39543616 118.72405924 428.22594449 118.92640829 425.45287132 118.8792057 C424.32614374 118.89010651 424.32614374 118.89010651 423.17665398 118.90122753 C420.66302166 118.91945581 418.1509194 118.90213373 415.63729858 118.88491821 C413.81577577 118.89068027 411.99425877 118.89862195 410.17275393 118.90855443 C405.16997018 118.92943899 400.16766295 118.91910522 395.16487741 118.90362334 C389.7687751 118.89232057 384.37275529 118.90976712 378.97666931 118.92352295 C368.4073527 118.9457704 357.83821349 118.94094767 347.26888989 118.92645974 C338.68117406 118.91517465 330.09350801 118.91363345 321.5057869 118.91907883 C320.28424463 118.91984499 319.06270237 118.92061116 317.80414367 118.92140054 C315.32274605 118.92299914 312.84134845 118.9246202 310.35995086 118.9262635 C287.08592096 118.94052511 263.8119895 118.92412114 240.53797574 118.89726166 C220.55714486 118.87491691 200.57653455 118.87880714 180.59570312 118.90185547 C157.40270554 118.9285965 134.20979421 118.93915768 111.01678336 118.92379415 C108.54504944 118.92220137 106.07331551 118.92062952 103.60158157 118.91907883 C102.38537742 118.91830745 101.16917327 118.91753607 99.91611444 118.91674132 C91.33525375 118.91241965 82.75444767 118.91972082 74.17359543 118.93147659 C63.72150601 118.94548101 53.2696044 118.94174472 42.81753658 118.91507287 C37.48221129 118.9019079 32.14719945 118.89682808 26.8118763 118.91331863 C21.93149186 118.92817528 17.05171257 118.92010098 12.17138334 118.89343087 C10.40234242 118.88782774 8.63325077 118.89072717 6.86424224 118.90280981 C4.46557593 118.91794135 2.0690021 118.90250128 -0.3295536 118.8792057 C-1.36812411 118.89676445 -1.36812411 118.89676445 -2.42767584 118.91467792 C-6.24385146 118.84022214 -7.7440625 118.30597674 -10.74085879 115.8548221 C-12.95292087 113.07343884 -13.43915977 112.01596529 -13.44741821 108.5375824 C-13.46856689 107.16022919 -13.46856689 107.16022919 -13.49014282 105.75505066 C-13.48002167 104.76008072 -13.46990051 103.76511078 -13.45947266 102.73999023 C-13.46823425 101.68254608 -13.47699585 100.62510193 -13.48602295 99.53561401 C-13.50801655 96.04285567 -13.49346418 92.55136479 -13.4765625 89.05859375 C-13.47993036 86.63151303 -13.48478272 84.20443395 -13.49105835 81.77735901 C-13.49842947 76.69231092 -13.48771476 71.6077021 -13.46435547 66.52270508 C-13.43585326 59.99977167 -13.45228062 53.47786615 -13.48221779 46.95497036 C-13.5002708 41.94411957 -13.49454198 36.93351319 -13.48157883 31.92265511 C-13.47824012 29.51725201 -13.48234811 27.11182682 -13.49397659 24.70644951 C-13.50665329 21.3472385 -13.48735102 17.98970131 -13.45947266 14.63061523 C-13.47465439 13.13512398 -13.47465439 13.13512398 -13.49014282 11.60942078 C-13.38686666 4.90399468 -13.38686666 4.90399468 -10.50765991 1.62562561 C-6.9699605 -0.18003716 -3.86862847 -0.19250591 0 0 Z " fill="#BFBFBF" transform="translate(15.8125,37.75)"/>
<path d="M0 0 C0.78761719 0.09667969 1.57523438 0.19335938 2.38671875 0.29296875 C4.5625 0.625 4.5625 0.625 7.3125 1.3125 C9.61523445 1.83755387 9.61523445 1.83755387 11.75 0.625 C16.1515605 -0.93999929 20.07487437 -0.5462771 24.5625 0.625 C28.56023443 2.71999847 31.5955843 5.19396476 34.125 8.9375 C34.88304493 13.59406171 34.87345834 18.19710515 32.5859375 22.43359375 C29.80916626 26.02548171 26.8032163 28.1282766 22.5625 29.625 C17.75110398 30.22168888 14.00656616 29.47669423 9.5625 27.625 C7.4442921 27.86269206 7.4442921 27.86269206 5.5625 28.625 C0.19799101 30.41316966 -4.54134524 30.31334152 -9.6875 28.0625 C-13.7791777 25.76697216 -15.98639017 23.08716274 -17.4375 18.625 C-18.26519522 14.24511278 -17.79421667 10.77577722 -15.75 6.8125 C-11.64090842 1.14861702 -6.85568994 -0.87923926 0 0 Z " fill="#F79E1E" transform="translate(234.4375,87.375)"/>
<path d="M0 0 C4.84474781 2.05163912 8.65314956 4.96535735 11.5625 9.375 C13.81668527 15.0594672 13.67676035 18.89848101 11.8125 24.6875 C9.35126629 29.18561678 6.94289005 32.35236998 2 34 C2 34.66 2 35.32 2 36 C0.10448978 36.05441656 -1.7914792 36.09298035 -3.6875 36.125 C-4.74324219 36.14820313 -5.79898438 36.17140625 -6.88671875 36.1953125 C-11.48373065 35.90691778 -14.14291034 34.73464828 -17.625 31.75 C-22.16672666 26.49115861 -23.54073586 22.31426224 -23.2734375 15.45703125 C-22.65521638 9.9018729 -20.68274053 6.23730912 -16.5625 2.5625 C-11.33195781 -1.00465285 -6.10643674 -1.19560982 0 0 Z " fill="#EEF3F2" transform="translate(151,85)"/>
<path d="M0 0 C0.75023438 0.49757813 1.50046875 0.99515625 2.2734375 1.5078125 C3.60375 1.78625 3.60375 1.78625 4.9609375 2.0703125 C7.2734375 3.5078125 7.2734375 3.5078125 8.06640625 5.6796875 C9.38518894 11.66288948 9.59873998 15.96323174 6.7109375 21.5078125 C2.91148158 26.18406593 -0.6416713 29.08368997 -6.73828125 29.921875 C-12.36115379 30.07403145 -16.08432035 29.91986048 -20.7265625 26.5078125 C-24.69678782 22.29644552 -27.11420324 18.10685474 -27.2890625 12.2578125 C-26.99799165 8.25713653 -26.55265771 5.51053866 -23.7265625 2.5078125 C-17.3418355 -2.45262924 -7.18303961 -3.9311191 0 0 Z " fill="#322719" transform="translate(107.7265625,90.4921875)"/>
<path d="M0 0 C0.74572266 -0.01611328 1.49144531 -0.03222656 2.25976562 -0.04882812 C5.33116519 -0.051568 7.9315745 0.16442865 10.8046875 1.28125 C13.28309979 4.62004376 12.85009299 8.08576338 12.75 12.125 C12.75708984 12.91970703 12.76417969 13.71441406 12.77148438 14.53320312 C12.7052689 20.69124221 11.35417164 24.88801492 7.3125 29.6875 C5.3125 31.3125 5.3125 31.3125 2.3125 31.3125 C1.30517601 29.37879769 0.30686712 27.44039694 -0.6875 25.5 C-1.244375 24.42105469 -1.80125 23.34210938 -2.375 22.23046875 C-3.6875 19.3125 -3.6875 19.3125 -3.6875 16.3125 C0.6025 16.3125 4.8925 16.3125 9.3125 16.3125 C9.3125 13.6725 9.3125 11.0325 9.3125 8.3125 C8.3225 8.8075 8.3225 8.8075 7.3125 9.3125 C4.45923421 9.30090136 1.65803994 9.21669182 -1.1875 9.0625 C-1.97253906 9.03542969 -2.75757813 9.00835937 -3.56640625 8.98046875 C-5.84375 8.859375 -5.84375 8.859375 -9.6875 8.3125 C-10.3475 7.3225 -11.0075 6.3325 -11.6875 5.3125 C-12.0175 6.6325 -12.3475 7.9525 -12.6875 9.3125 C-12.0275 9.3125 -11.3675 9.3125 -10.6875 9.3125 C-8.84442045 12.91176342 -7.01473483 16.51767031 -5.1875 20.125 C-4.66285156 21.14916016 -4.13820312 22.17332031 -3.59765625 23.22851562 C-3.10136719 24.21142578 -2.60507813 25.19433594 -2.09375 26.20703125 C-1.63291016 27.11300049 -1.17207031 28.01896973 -0.69726562 28.95239258 C0.3125 31.3125 0.3125 31.3125 0.3125 34.3125 C-5.61689046 33.95673657 -8.49380075 32.50619925 -12.6875 28.3125 C-16.68173357 23.51002151 -16.03012141 18.42245601 -15.875 12.5 C-15.86146484 11.52095703 -15.84792969 10.54191406 -15.83398438 9.53320312 C-15.79875312 7.12573375 -15.74949265 4.71940436 -15.6875 2.3125 C-10.33428777 0.53752474 -5.62466147 -0.02469123 0 0 Z " fill="#3D5896" transform="translate(190.6875,86.6875)"/>
<path d="M0 0 C1.14662109 0.10054688 1.14662109 0.10054688 2.31640625 0.203125 C4.81352176 0.84694852 5.79870002 1.80228884 7.4375 3.75 C6.4475 5.235 6.4475 5.235 5.4375 6.75 C3.21496132 10.69500616 2.55983335 14.28571483 3.4375 18.75 C4.5515335 21.55909308 5.89195493 24.1556922 7.4375 26.75 C3.89718628 29.40523529 1.01343796 30.29586013 -3.44140625 30.09375 C-7.9754146 29.35895675 -11.84889473 27.65133169 -14.953125 24.20703125 C-17.72274666 19.94532468 -18.53309864 15.74024956 -17.5625 10.75 C-16.15945927 6.9910513 -14.31096365 4.31134774 -11.0625 1.875 C-7.20355933 0.1384767 -4.2213593 -0.4285644 0 0 Z " fill="#EB041D" transform="translate(234.5625,87.25)"/>
<path d="M0 0 C0.66 0 1.32 0 2 0 C2.33 1.32 2.66 2.64 3 4 C3.804375 3.7215625 3.804375 3.7215625 4.625 3.4375 C7 3 7 3 9.9375 3.5 C15.0701553 4.33798454 19.16290122 2.68736004 24 1 C24 1.66 24 2.32 24 3 C24.66 3 25.32 3 26 3 C26 3.66 26 4.32 26 5 C26.99 4.34 27.98 3.68 29 3 C31.6875 2.875 31.6875 2.875 34 3 C33.67 5.97 33.34 8.94 33 12 C30.69 12 28.38 12 26 12 C25.34 10.68 24.68 9.36 24 8 C24 9.65 24 11.3 24 13 C23.01 13 22.02 13 21 13 C21 13.66 21 14.32 21 15 C23.31 15 25.62 15 28 15 C28 16.32 28 17.64 28 19 C26.89591797 18.98259766 26.89591797 18.98259766 25.76953125 18.96484375 C24.30580078 18.95130859 24.30580078 18.95130859 22.8125 18.9375 C21.84957031 18.92589844 20.88664062 18.91429688 19.89453125 18.90234375 C17.14175094 18.99521758 14.69150832 19.4607921 12 20 C11.030625 19.835 10.06125 19.67 9.0625 19.5 C5.73406055 18.95658132 3.29696225 19.42661526 0 20 C-1.34364908 19.71104321 -2.68066964 19.38504062 -4 19 C-3.46048934 12.31006781 -2.11293829 6.36539272 0 0 Z " fill="#FBF5F6" transform="translate(350,94)"/>
<path d="M0 0 C11.55 0 23.1 0 35 0 C35 1.32 35 2.64 35 4 C33.02 4 31.04 4 29 4 C28.34 8.95 27.68 13.9 27 19 C25.35 19 23.7 19 22 19 C22.99 14.05 23.98 9.1 25 4 C21.7 4 18.4 4 15 4 C15 5.32 15 6.64 15 8 C16.98 8 18.96 8 21 8 C21 8.99 21 9.98 21 11 C18.69 11 16.38 11 14 11 C13.67 13.64 13.34 16.28 13 19 C11.68 19 10.36 19 9 19 C9.66 14.05 10.32 9.1 11 4 C8.36 4 5.72 4 3 4 C3 5.32 3 6.64 3 8 C4.65 8 6.3 8 8 8 C8 8.99 8 9.98 8 11 C5.69 11 3.38 11 1 11 C1 12.65 1 14.3 1 16 C3.31 16 5.62 16 8 16 C8 16.99 8 17.98 8 19 C4.37 19 0.74 19 -3 19 C-3 15.04 -3 11.08 -3 7 C-3.66 7 -4.32 7 -5 7 C-4.67 8.98 -4.34 10.96 -4 13 C-4.99 13 -5.98 13 -7 13 C-6.67 14.98 -6.34 16.96 -6 19 C-6.99 19 -7.98 19 -9 19 C-10.25 11.5 -10.25 11.5 -8 7 C-11.3 7 -14.6 7 -18 7 C-18 6.34 -18 5.68 -18 5 C-16.68 5 -15.36 5 -14 5 C-14 4.34 -14 3.68 -14 3 C-9.71 3 -5.42 3 -1 3 C-0.67 2.01 -0.34 1.02 0 0 Z " fill="#2A79A6" transform="translate(405,87)"/>
<path d="M0 0 C1.22976562 -0.05607422 1.22976562 -0.05607422 2.484375 -0.11328125 C5.25 0.3125 5.25 0.3125 12.25 4.3125 C12.25 9.9225 12.25 15.5325 12.25 21.3125 C5.65392662 24.13938859 2.10594329 25.19060111 -4.75 24.3125 C-8.375 22.8125 -8.375 22.8125 -10.75 21.3125 C-10.75 20.3225 -10.75 19.3325 -10.75 18.3125 C-9.43 18.3125 -8.11 18.3125 -6.75 18.3125 C-7.41 17.85875 -8.07 17.405 -8.75 16.9375 C-9.41 16.40125 -10.07 15.865 -10.75 15.3125 C-10.75 14.6525 -10.75 13.9925 -10.75 13.3125 C-10.110625 13.4775 -9.47125 13.6425 -8.8125 13.8125 C-4.77413348 14.47182515 -0.83192742 14.39253779 3.25 14.3125 C2.49074219 14.20292969 1.73148438 14.09335937 0.94921875 13.98046875 C-0.04464844 13.82191406 -1.03851563 13.66335937 -2.0625 13.5 C-3.04863281 13.34917969 -4.03476563 13.19835938 -5.05078125 13.04296875 C-7.90587885 12.27031571 -9.01228424 11.66626215 -10.75 9.3125 C-11.125 6.8125 -11.125 6.8125 -10.75 4.3125 C-7.92998441 0.55247921 -4.48205535 0.13223455 0 0 Z " fill="#EAADB0" transform="translate(185.75,22.6875)"/>
<path d="M0 0 C3.02267052 0.42610333 4.92793458 0.65425335 7.9375 0 C10.0625 -0.375 10.0625 -0.375 12.16015625 0.6015625 C14.99355224 3.6153184 14.68430346 6.70399481 14.625 10.625 C14.64884766 11.34945312 14.67269531 12.07390625 14.69726562 12.8203125 C14.69140625 14.9375 14.69140625 14.9375 14.0625 18.625 C11.6875 20.6796875 11.6875 20.6796875 9.0625 21.625 C6.5 20.75 6.5 20.75 4.0625 19.625 C2.03330157 19.88223969 2.03330157 19.88223969 0.0625 20.625 C-4.28239403 21.92846821 -4.28239403 21.92846821 -7.0625 20.640625 C-9.86701421 17.62577223 -9.52081127 14.5267444 -9.4375 10.625 C-9.45296875 9.90054688 -9.4684375 9.17609375 -9.484375 8.4296875 C-9.46022243 5.15701401 -9.37468537 3.13851932 -7.21484375 0.6015625 C-4.45972696 -0.57987695 -2.94230308 -0.48056106 0 0 Z " fill="#146150" transform="translate(142.9375,92.375)"/>
<path d="M0 0 C2.93804996 -0.08086376 5.87388075 -0.1404283 8.8125 -0.1875 C9.64587891 -0.21263672 10.47925781 -0.23777344 11.33789062 -0.26367188 C12.54155273 -0.27817383 12.54155273 -0.27817383 13.76953125 -0.29296875 C14.87711792 -0.31653442 14.87711792 -0.31653442 16.00708008 -0.34057617 C18.56065712 0.09581241 19.43223494 0.97735364 21 3 C21.25 5.12109375 21.25 5.12109375 21 7.4375 C20.9071875 8.58025391 20.9071875 8.58025391 20.8125 9.74609375 C19.60548417 13.09440207 18.04547506 14.19873772 15 16 C12.23866047 16.28614917 9.91854388 16.38589883 7.1875 16.25 C6.49462891 16.23195313 5.80175781 16.21390625 5.08789062 16.1953125 C3.39132336 16.14851064 1.69547524 16.07677624 0 16 C0.02320313 16.60328125 0.04640625 17.2065625 0.0703125 17.828125 C0.08835937 18.62734375 0.10640625 19.4265625 0.125 20.25 C0.14820313 21.03890625 0.17140625 21.8278125 0.1953125 22.640625 C-0.0171622 25.20731941 -0.71345895 26.7916067 -2 29 C-2.99 29 -3.98 29 -5 29 C-4.85957123 27.35369672 -4.71250671 25.70795821 -4.5625 24.0625 C-4.48128906 23.14597656 -4.40007813 22.22945312 -4.31640625 21.28515625 C-4 19 -4 19 -3 18 C-2.6246465 15.92382596 -2.2996863 13.83843889 -2 11.75 C-1.42901584 7.80664062 -0.82095447 3.89953374 0 0 Z " fill="#E82129" transform="translate(42,29)"/>
<path d="M0 0 C0.66 0 1.32 0 2 0 C2.42667969 0.95261719 2.85335937 1.90523438 3.29296875 2.88671875 C6.66459059 9.83953476 9.11544966 14.43320901 16.75 17.1875 C17.83796875 17.49042969 18.9259375 17.79335937 20.046875 18.10546875 C23.00337445 19.00102216 24.75666378 19.9005357 27 22 C27.5625 24.4375 27.5625 24.4375 27 27 C24.80547256 29.70658384 23.06050828 30.81223788 19.6171875 31.421875 C12.9602632 31.77956048 12.9602632 31.77956048 9.48828125 28.9609375 C6.59230929 25.51486726 4.37525059 21.98297817 2.1875 18.0625 C1.78080078 17.37220703 1.37410156 16.68191406 0.95507812 15.97070312 C-1.37954076 11.83116879 -2.59821049 8.87937955 -2 4 C-1 1.625 -1 1.625 0 0 Z " fill="#EE2C33" transform="translate(43,84)"/>
<path d="M0 0 C1.95803507 -0.05389087 3.91648909 -0.09274217 5.875 -0.125 C7.51082031 -0.15980469 7.51082031 -0.15980469 9.1796875 -0.1953125 C12 0 12 0 14 2 C14.67551028 8.34979659 12.835358 13.95861324 11 20 C8.54137599 20.05383848 6.0839245 20.09359038 3.625 20.125 C2.57699219 20.15013672 2.57699219 20.15013672 1.5078125 20.17578125 C-0.32897486 20.19344267 -2.16601963 20.10303261 -4 20 C-6 18 -6 18 -6.4375 14.625 C-6 11 -6 11 -4.1875 8.5625 C0.49323823 6.26802048 4.87850352 6.67710355 10 7 C10 5.68 10 4.36 10 3 C6.7 3 3.4 3 0 3 C0 2.01 0 1.02 0 0 Z " fill="#DA333C" transform="translate(64,37)"/>
<path d="M0 0 C1.93719378 -0.05406122 3.87481921 -0.09282025 5.8125 -0.125 C6.89144531 -0.14820313 7.97039062 -0.17140625 9.08203125 -0.1953125 C12 0 12 0 15 2 C14.32418477 8.08233706 13.26361972 14.01314152 12 20 C9.54137599 20.05383848 7.0839245 20.09359038 4.625 20.125 C3.57699219 20.15013672 3.57699219 20.15013672 2.5078125 20.17578125 C0.67102514 20.19344267 -1.16601963 20.10303261 -3 20 C-5 18 -5 18 -5.3125 14.5625 C-5 11 -5 11 -3.6875 9.125 C-0.43097457 6.95398305 2.39770434 6.88828187 6.1875 6.9375 C7.08855469 6.94652344 7.98960938 6.95554687 8.91796875 6.96484375 C9.60503906 6.97644531 10.29210937 6.98804688 11 7 C10.67 6.01 10.34 5.02 10 4 C6.7 3.67 3.4 3.34 0 3 C0 2.01 0 1.02 0 0 Z " fill="#393939" transform="translate(120,37)"/>
<path d="M0 0 C1.45823212 -0.0270043 2.91660675 -0.04639787 4.375 -0.0625 C5.18710938 -0.07410156 5.99921875 -0.08570312 6.8359375 -0.09765625 C9 0 9 0 11 1 C12.423125 0.6596875 12.423125 0.6596875 13.875 0.3125 C17 0 17 0 19.375 1.9375 C19.91125 2.618125 20.4475 3.29875 21 4 C20.34 5.32 19.68 6.64 19 8 C18.01 8 17.02 8 16 8 C15.67 11.3 15.34 14.6 15 18 C9.18564666 17.71637301 5.80098077 15.18303812 2 11 C-0.25703943 7.28989924 -0.165923 4.31399808 0 0 Z " fill="#98611B" transform="translate(82,99)"/>
<path d="M0 0 C1.32 0 2.64 0 4 0 C3.7834375 1.423125 3.7834375 1.423125 3.5625 2.875 C2.88786802 7.56851104 2.45255333 12.28051526 2 17 C5.3 17.33 8.6 17.66 12 18 C12.103125 16.700625 12.20625 15.40125 12.3125 14.0625 C12.848308 9.09839647 14.24930225 4.65751666 16 0 C16.99 0 17.98 0 19 0 C18.71260986 6.10704039 17.68648827 11.95341869 16.1875 17.875 C15.87167969 19.13054688 15.55585937 20.38609375 15.23046875 21.6796875 C13.91687059 25.22431745 13.12333523 26.88266313 10 29 C6.546875 29.390625 6.546875 29.390625 2.75 29.25 C1.48671875 29.21390625 0.2234375 29.1778125 -1.078125 29.140625 C-2.52445312 29.07101563 -2.52445312 29.07101563 -4 29 C-4 28.01 -4 27.02 -4 26 C2.435 25.505 2.435 25.505 9 25 C9.33 24.01 9.66 23.02 10 22 C8.95199219 22.03480469 8.95199219 22.03480469 7.8828125 22.0703125 C6.97273438 22.08835937 6.06265625 22.10640625 5.125 22.125 C3.76761719 22.15980469 3.76761719 22.15980469 2.3828125 22.1953125 C0 22 0 22 -2 20 C-2.59814965 13.27081645 -1.11482892 6.61929671 0 0 Z " fill="#C14854" transform="translate(81,36)"/>
<path d="M0 0 C0.66 0 1.32 0 2 0 C2.33 3.96 2.66 7.92 3 12 C3.66 12 4.32 12 5 12 C5 10.35 5 8.7 5 7 C5.99 6.67 6.98 6.34 8 6 C8 7.98 8 9.96 8 12 C8.66 12.33 9.32 12.66 10 13 C9.67 13.33 9.34 13.66 9 14 C10.32 14.33 11.64 14.66 13 15 C13 15.99 13 16.98 13 18 C13.66 18 14.32 18 15 18 C15 17.01 15 16.02 15 15 C17.88834003 12.89229241 19.38462395 12 23 12 C23.33 11.34 23.66 10.68 24 10 C24 10.99 24 11.98 24 13 C23.01 13 22.02 13 21 13 C21 13.66 21 14.32 21 15 C23.31 15 25.62 15 28 15 C28 16.32 28 17.64 28 19 C26.89591797 18.98259766 26.89591797 18.98259766 25.76953125 18.96484375 C24.30580078 18.95130859 24.30580078 18.95130859 22.8125 18.9375 C21.84957031 18.92589844 20.88664062 18.91429688 19.89453125 18.90234375 C17.14175094 18.99521758 14.69150832 19.4607921 12 20 C11.030625 19.835 10.06125 19.67 9.0625 19.5 C5.73406055 18.95658132 3.29696225 19.42661526 0 20 C-1.34364908 19.71104321 -2.68066964 19.38504062 -4 19 C-3.46048934 12.31006781 -2.11293829 6.36539272 0 0 Z " fill="#D9A3A7" transform="translate(350,94)"/>
<path d="M0 0 C4.84474781 2.05163912 8.65314956 4.96535735 11.5625 9.375 C13.81668527 15.0594672 13.67676035 18.89848101 11.8125 24.6875 C9.55135861 28.81993082 7.26145057 32.20543629 2.6875 33.8125 C1.8521875 33.9053125 1.8521875 33.9053125 1 34 C2.375 32 2.375 32 4 30 C4.66 30 5.32 30 6 30 C6.309375 29.21625 6.61875 28.4325 6.9375 27.625 C8 25 8 25 9 23 C9.52657873 17.71694786 9.64191122 13.33137143 7.3125 8.5 C3.33255793 4.19735993 0.53396713 2.794912 -5.3125 2.375 C-10.91959322 2.4963985 -13.63550945 4.40175019 -17.5390625 8.2734375 C-21.14009138 12.52919891 -20.43840501 17.68530068 -20 23 C-18.8646327 25.98244913 -18.8646327 25.98244913 -17 28 C-16.54625 28.556875 -16.0925 29.11375 -15.625 29.6875 C-11.06382544 33.37152561 -5.62428818 33.53437266 0 34 C-2 36 -2 36 -5.8125 36.25 C-10.82494182 36.09618861 -13.76769429 35.05626204 -17.625 31.75 C-22.16672666 26.49115861 -23.54073586 22.31426224 -23.2734375 15.45703125 C-22.65521638 9.9018729 -20.68274053 6.23730912 -16.5625 2.5625 C-11.33195781 -1.00465285 -6.10643674 -1.19560982 0 0 Z " fill="#437F71" transform="translate(151,85)"/>
<path d="M0 0 C3.63 0 7.26 0 11 0 C11 0.66 11 1.32 11 2 C8.69 2 6.38 2 4 2 C4 3.65 4 5.3 4 7 C5.65 7 7.3 7 9 7 C9 7.99 9 8.98 9 10 C6.69 10 4.38 10 2 10 C2 11.65 2 13.3 2 15 C4.31 15 6.62 15 9 15 C9 15.99 9 16.98 9 18 C5.37 18 1.74 18 -2 18 C-2 14.04 -2 10.08 -2 6 C-2.66 6 -3.32 6 -4 6 C-3.67 7.98 -3.34 9.96 -3 12 C-3.99 12 -4.98 12 -6 12 C-5.67 13.98 -5.34 15.96 -5 18 C-5.99 18 -6.98 18 -8 18 C-9.25 10.5 -9.25 10.5 -7 6 C-10.3 6 -13.6 6 -17 6 C-17 5.34 -17 4.68 -17 4 C-15.68 4 -14.36 4 -13 4 C-13 3.34 -13 2.68 -13 2 C-8.71 2 -4.42 2 0 2 C0 1.34 0 0.68 0 0 Z " fill="#086498" transform="translate(404,88)"/>
<path d="M0 0 C1.875 1.875 1.875 1.875 2.4375 4.875 C1.875 7.875 1.875 7.875 0.14453125 9.54296875 C-3.75174523 11.82976786 -7.73776813 11.28954159 -12.125 10.875 C-17.55357143 9.44642857 -17.55357143 9.44642857 -19.125 7.875 C-19.42633118 5.01235383 -19.57142032 3.4702271 -17.8125 1.125 C-12.883485 -2.52612222 -5.50562664 -1.98202559 0 0 Z " fill="#E3252D" transform="translate(194.125,24.125)"/>
<path d="M0 0 C0.70189453 0.01353516 1.40378906 0.02707031 2.12695312 0.04101562 C3.85579829 0.07629818 5.58424765 0.13010417 7.3125 0.1875 C7.3125 1.1775 7.3125 2.1675 7.3125 3.1875 C2.6925 3.1875 -1.9275 3.1875 -6.6875 3.1875 C-6.6875 4.8375 -6.6875 6.4875 -6.6875 8.1875 C-6.07261719 8.17589844 -5.45773438 8.16429687 -4.82421875 8.15234375 C-4.01597656 8.14332031 -3.20773438 8.13429688 -2.375 8.125 C-1.17423828 8.10759766 -1.17423828 8.10759766 0.05078125 8.08984375 C2.3125 8.1875 2.3125 8.1875 5.3125 9.1875 C6.40391746 13.0074611 6.53103376 14.71323525 4.84375 18.375 C2.3125 21.1875 2.3125 21.1875 -1.578125 21.7734375 C-3.03240937 21.7337752 -4.48611628 21.66250701 -5.9375 21.5625 C-7.05511719 21.52189453 -7.05511719 21.52189453 -8.1953125 21.48046875 C-10.02728993 21.41000808 -11.85777151 21.30238993 -13.6875 21.1875 C-13.3575 19.8675 -13.0275 18.5475 -12.6875 17.1875 C-8.0675 16.8575 -3.4475 16.5275 1.3125 16.1875 C1.6425 14.8675 1.9725 13.5475 2.3125 12.1875 C1.15621094 12.22230469 1.15621094 12.22230469 -0.0234375 12.2578125 C-1.02632812 12.27585937 -2.02921875 12.29390625 -3.0625 12.3125 C-4.06023437 12.33570313 -5.05796875 12.35890625 -6.0859375 12.3828125 C-8.6875 12.1875 -8.6875 12.1875 -10.6875 10.1875 C-11.24100773 4.09891498 -11.24100773 4.09891498 -9.6484375 1.4765625 C-6.61657014 -0.51649772 -3.49579463 -0.12729784 0 0 Z " fill="#3E3E3E" transform="translate(147.6875,36.8125)"/>
<path d="M0 0 C1.485 0.99 1.485 0.99 3 2 C3 2.66 3 3.32 3 4 C9.27 4 15.54 4 22 4 C22 6.64 22 9.28 22 12 C17.9347162 14.0326419 13.24830408 13.17904475 9 12 C9.66708984 13.37285156 9.66708984 13.37285156 10.34765625 14.7734375 C11.19650391 16.55621094 11.19650391 16.55621094 12.0625 18.375 C12.63097656 19.55835937 13.19945312 20.74171875 13.78515625 21.9609375 C14.18605469 22.96382812 14.58695313 23.96671875 15 25 C14.67 25.66 14.34 26.32 14 27 C13.34 27 12.68 27 12 27 C10.32686677 23.71158124 8.66260393 20.41875318 7 17.125 C6.52304688 16.18785156 6.04609375 15.25070313 5.5546875 14.28515625 C5.10351562 13.38925781 4.65234375 12.49335937 4.1875 11.5703125 C3.76855469 10.74289551 3.34960938 9.91547852 2.91796875 9.06298828 C2 7 2 7 2 5 C1.34 5 0.68 5 0 5 C0 3.35 0 1.7 0 0 Z " fill="#F2F3F8" transform="translate(178,91)"/>
<path d="M0 0 C2.74637817 0.37881078 3.80049058 0.77832287 5.6875 2.875 C8.18772134 6.92297741 8.39652203 10.32104008 8 15 C5.97333762 18.70390021 4.51955484 20.65363011 1 23 C-2.88515018 18.36288527 -4.33500266 15.30047809 -4.30078125 9.140625 C-3.78981129 5.50411149 -2.018797 3.0281955 0 0 Z " fill="#FE5E00" transform="translate(241,91)"/>
<path d="M0 0 C0.78826172 0.02255859 1.57652344 0.04511719 2.38867188 0.06835938 C4.32243929 0.12695839 6.25522167 0.21663173 8.1875 0.3125 C8.1875 1.6325 8.1875 2.9525 8.1875 4.3125 C-0.2275 4.8075 -0.2275 4.8075 -8.8125 5.3125 C-9.4725 7.9525 -10.1325 10.5925 -10.8125 13.3125 C-8.1725 13.3125 -5.5325 13.3125 -2.8125 13.3125 C-2.8125 14.3025 -2.8125 15.2925 -2.8125 16.3125 C-5.7825 16.3125 -8.7525 16.3125 -11.8125 16.3125 C-12.4725 20.2725 -13.1325 24.2325 -13.8125 28.3125 C-15.1325 28.6425 -16.4525 28.9725 -17.8125 29.3125 C-17.39319818 25.32913272 -16.93293335 21.72648966 -15.8125 17.875 C-14.81375536 14.31697222 -14.53538144 11.19529385 -14.44921875 7.5234375 C-12.27507195 -0.02605383 -6.65877273 -0.36279986 0 0 Z " fill="#181818" transform="translate(117.8125,28.6875)"/>
<path d="M0 0 C1.4540625 0.0309375 1.4540625 0.0309375 2.9375 0.0625 C6.38169134 10.43607631 6.38169134 10.43607631 5.9375 16.0625 C4.6175 16.0625 3.2975 16.0625 1.9375 16.0625 C1.9375 15.4025 1.9375 14.7425 1.9375 14.0625 C-0.3725 14.0625 -2.6825 14.0625 -5.0625 14.0625 C-5.0625 14.7225 -5.0625 15.3825 -5.0625 16.0625 C-6.7125 16.0625 -8.3625 16.0625 -10.0625 16.0625 C-9.08644493 13.58206646 -8.10682337 11.10314915 -7.125 8.625 C-6.84720703 7.91794922 -6.56941406 7.21089844 -6.28320312 6.48242188 C-3.73914879 0.07630916 -3.73914879 0.07630916 0 0 Z " fill="#2859A0" transform="translate(328.0625,88.9375)"/>
<path d="M0 0 C1.32 0 2.64 0 4 0 C3.67 2.31 3.34 4.62 3 7 C4.98 7 6.96 7 9 7 C9 8.32 9 9.64 9 11 C6.36 11 3.72 11 1 11 C0.67 15.62 0.34 20.24 0 25 C2.31 25 4.62 25 7 25 C7 26.32 7 27.64 7 29 C5.54257537 29.08096803 4.08387193 29.13917774 2.625 29.1875 C1.81289062 29.22230469 1.00078125 29.25710937 0.1640625 29.29296875 C-0.55007812 29.19628906 -1.26421875 29.09960938 -2 29 C-4.39974933 25.400376 -4.11503618 24.20324725 -3.6875 20 C-3.58824219 18.948125 -3.48898438 17.89625 -3.38671875 16.8125 C-3 14 -3 14 -2 11 C-2.66 11 -3.32 11 -4 11 C-3.67 9.68 -3.34 8.36 -3 7 C-2.34 7 -1.68 7 -1 7 C-0.67 4.69 -0.34 2.38 0 0 Z " fill="#383838" transform="translate(162,29)"/>
<path d="M0 0 C0 0.66 0 1.32 0 2 C-0.75925781 2.26554687 -1.51851562 2.53109375 -2.30078125 2.8046875 C-3.29464844 3.15789062 -4.28851563 3.51109375 -5.3125 3.875 C-6.79169922 4.39707031 -6.79169922 4.39707031 -8.30078125 4.9296875 C-11.15594377 5.95305924 -11.15594377 5.95305924 -14 8 C-14.47730962 11.72301503 -14.1387261 12.79191085 -12 16 C-6.98667142 19.13333036 -1.73939385 20.03587257 4 21 C4 21.33 4 21.66 4 22 C-4.32440797 22.4692255 -11.52213512 22.04313177 -18 16.375 C-18.66 15.59125 -19.32 14.8075 -20 14 C-20.33 13.67 -20.66 13.34 -21 13 C-21.5 10.25 -21.5 10.25 -21 7 C-15.24326377 0.87722851 -8.0115701 -0.27626104 0 0 Z " fill="#EE2D34" transform="translate(37,99)"/>
<path d="M0 0 C0.33 0.66 0.66 1.32 1 2 C-1.26149069 7.82812029 -4.25714595 12.24821577 -10 15 C-12.875 15.25 -12.875 15.25 -15 15 C-15.82304823 8.18045755 -15.82304823 8.18045755 -13.72265625 5.16796875 C-9.39368616 1.13348642 -5.83913515 0.20488194 0 0 Z " fill="#DB7D1F" transform="translate(116,101)"/>
<path d="M0 0 C0.66 0 1.32 0 2 0 C2.144375 1.134375 2.28875 2.26875 2.4375 3.4375 C2.61171478 6.80777201 2.61171478 6.80777201 4 8 C5.84891946 8.23363881 7.70488031 8.41303635 9.5625 8.5625 C10.57441406 8.64628906 11.58632812 8.73007812 12.62890625 8.81640625 C13.41136719 8.87699219 14.19382813 8.93757813 15 9 C14.67 10.65 14.34 12.3 14 14 C13.01257813 14.03738281 12.02515625 14.07476562 11.0078125 14.11328125 C9.08582031 14.21189453 9.08582031 14.21189453 7.125 14.3125 C5.84882813 14.37050781 4.57265625 14.42851563 3.2578125 14.48828125 C2.18273437 14.65714844 1.10765625 14.82601562 0 15 C-0.99 16.485 -0.99 16.485 -2 18 C-4.7885289 18.22107787 -7.34653181 18.28107535 -10.125 18.1875 C-11.25615234 18.16719727 -11.25615234 18.16719727 -12.41015625 18.14648438 C-14.27374127 18.11109985 -16.13695978 18.05729167 -18 18 C-18 17.67 -18 17.34 -18 17 C-13.05 17 -8.1 17 -3 17 C-2.87625 15.494375 -2.7525 13.98875 -2.625 12.4375 C-2.1955696 8.06228885 -1.36053236 4.17229925 0 0 Z " fill="#F2F2F2" transform="translate(135,40)"/>
<path d="M0 0 C1.21236328 0.02707031 1.21236328 0.02707031 2.44921875 0.0546875 C3.37154297 0.08949219 3.37154297 0.08949219 4.3125 0.125 C4.3125 1.115 4.3125 2.105 4.3125 3.125 C1.6725 3.125 -0.9675 3.125 -3.6875 3.125 C-3.6875 3.785 -3.6875 4.445 -3.6875 5.125 C-2.718125 5.434375 -1.74875 5.74375 -0.75 6.0625 C2.3125 7.125 2.3125 7.125 3.3125 8.125 C3.02519945 10.46444736 2.69313221 12.7989143 2.3125 15.125 C-2.01484391 17.35423777 -4.97150182 17.04970553 -9.6875 16.125 C-9.6875 14.805 -9.6875 13.485 -9.6875 12.125 C-7.3775 12.125 -5.0675 12.125 -2.6875 12.125 C-2.3575 11.465 -2.0275 10.805 -1.6875 10.125 C-2.491875 9.815625 -3.29625 9.50625 -4.125 9.1875 C-6.6875 8.125 -6.6875 8.125 -7.6875 7.125 C-7.9375 4.6875 -7.9375 4.6875 -7.6875 2.125 C-4.48369983 -0.01086678 -3.66810033 -0.10632175 0 0 Z " fill="#22549D" transform="translate(314.6875,88.875)"/>
<path d="M0 0 C5.15464734 0.48324819 8.81550319 3.18610761 13 6 C13 4.02 13 2.04 13 0 C14.32 0.66 15.64 1.32 17 2 C17 5.96 17 9.92 17 14 C12.25869791 12.64737628 8.67711421 10.66645646 4.625 7.875 C3.56539062 7.15054688 2.50578125 6.42609375 1.4140625 5.6796875 C0.61742187 5.12539062 -0.17921875 4.57109375 -1 4 C-0.67 2.68 -0.34 1.36 0 0 Z " fill="#E6EEEC" transform="translate(138,94)"/>
<path d="M0 0 C3.0683258 3.70917866 5.10673884 7.84613218 7.25 12.125 C7.62640625 12.85332031 8.0028125 13.58164063 8.390625 14.33203125 C9.32491431 16.19030521 10.17006746 18.09283178 11 20 C10.67 20.66 10.34 21.32 10 22 C7.875 22 7.875 22 5 21 C-0.72406503 14.89250478 -2.13420457 10.18647893 -2 2 C-1.34 2 -0.68 2 0 2 C0 1.34 0 0.68 0 0 Z " fill="#395594" transform="translate(179,96)"/>
<path d="M0 0 C4.62 0 9.24 0 14 0 C14 2.31 14 4.62 14 7 C13.34 7 12.68 7 12 7 C12 7.66 12 8.32 12 9 C7.71 9 3.42 9 -1 9 C-0.67 6.03 -0.34 3.06 0 0 Z " fill="#F9EDEE" transform="translate(45,33)"/>
<path d="M0 0 C0.33 0 0.66 0 1 0 C1.08636719 0.65226562 1.17273438 1.30453125 1.26171875 1.9765625 C2.25367408 8.14670666 3.4466558 11.66348171 8 16 C12.70512042 18.90934951 17.64450444 18.59252291 23 18 C28.69855602 16.32332989 31.3062489 12.62435886 34.15234375 7.609375 C34.43207031 7.07828125 34.71179688 6.5471875 35 6 C36 9 36 9 35.28515625 10.8671875 C32.11751323 16.06900384 28.8632377 19.92383714 23 22 C16.54957124 22.87122674 11.38029903 22.95451978 6 19 C1.8672495 14.61623645 -0.38364155 10.52115438 -0.375 4.4375 C-0.28029767 2.95608497 -0.16629463 1.47509495 0 0 Z " fill="#379C96" transform="translate(81,98)"/>
<path d="M0 0 C2.93804996 -0.08086376 5.87388075 -0.1404283 8.8125 -0.1875 C9.64587891 -0.21263672 10.47925781 -0.23777344 11.33789062 -0.26367188 C12.54155273 -0.27817383 12.54155273 -0.27817383 13.76953125 -0.29296875 C14.87711792 -0.31653442 14.87711792 -0.31653442 16.00708008 -0.34057617 C18.56065712 0.09581241 19.43223494 0.97735364 21 3 C21.25 5.12109375 21.25 5.12109375 21 7.4375 C20.9071875 8.58025391 20.9071875 8.58025391 20.8125 9.74609375 C19.61173621 13.0770587 18.01724624 14.19616723 15 16 C11.44921875 16.390625 11.44921875 16.390625 7.6875 16.25 C6.43324219 16.21390625 5.17898437 16.1778125 3.88671875 16.140625 C2.93410156 16.09421875 1.98148438 16.0478125 1 16 C0.75 9.375 0.75 9.375 3 6 C2.67 8.31 2.34 10.62 2 13 C6.29 13 10.58 13 15 13 C15 12.34 15 11.68 15 11 C15.66 11 16.32 11 17 11 C17 8.69 17 6.38 17 4 C12.38 4 7.76 4 3 4 C3 3.67 3 3.34 3 3 C8.94 2.505 8.94 2.505 15 2 C8.07 1.505 8.07 1.505 1 1 C0.67 1.99 0.34 2.98 0 4 C0 2.68 0 1.36 0 0 Z " fill="#DF5C62" transform="translate(42,29)"/>
<path d="M0 0 C0.33 0.66 0.66 1.32 1 2 C4.96 2 8.92 2 13 2 C13.66 3.32 14.32 4.64 15 6 C14.34 5.67 13.68 5.34 13 5 C10.9625237 4.77141886 8.91959697 4.58975722 6.875 4.4375 C5.23144531 4.31181641 5.23144531 4.31181641 3.5546875 4.18359375 C2.71164063 4.12300781 1.86859375 4.06242187 1 4 C1 4.99 1 5.98 1 7 C4.3 7 7.6 7 11 7 C11 8.32 11 9.64 11 11 C10.24074219 11.04898438 9.48148438 11.09796875 8.69921875 11.1484375 C7.70535156 11.22320312 6.71148437 11.29796875 5.6875 11.375 C4.20830078 11.47941406 4.20830078 11.47941406 2.69921875 11.5859375 C-0.21528433 11.83865472 -0.21528433 11.83865472 -3 14 C-3 13.34 -3 12.68 -3 12 C-3.99 12.495 -3.99 12.495 -5 13 C-7.55157655 13.0716735 -10.07472971 13.09308442 -12.625 13.0625 C-13.33140625 13.05798828 -14.0378125 13.05347656 -14.765625 13.04882812 C-16.51045275 13.03703875 -18.255237 13.01910324 -20 13 C-20.33 13.99 -20.66 14.98 -21 16 C-21 14.68 -21 13.36 -21 12 C-19.44539063 11.94392578 -19.44539063 11.94392578 -17.859375 11.88671875 C-16.48954816 11.82104212 -15.11975809 11.75459536 -13.75 11.6875 C-13.06808594 11.66494141 -12.38617188 11.64238281 -11.68359375 11.61914062 C-7.5812822 11.40008515 -4.85055811 11.07413129 -2 8 C-1.10594825 5.97993559 -1.10594825 5.97993559 -0.75 3.8125 C-0.5025 2.554375 -0.255 1.29625 0 0 Z " fill="#F3D8D8" transform="translate(63,33)"/>
<path d="M0 0 C1.98 0 3.96 0 6 0 C3.69 5.28 1.38 10.56 -1 16 C-2.98 16 -4.96 16 -7 16 C-7.53154742 14.39935157 -8.04988353 12.79431126 -8.5625 11.1875 C-8.85253906 10.29417969 -9.14257812 9.40085937 -9.44140625 8.48046875 C-10 6 -10 6 -9 3 C-7.2925002 4.28062485 -5.62626404 5.61767557 -4 7 C-4 7.66 -4 8.32 -4 9 C-3.34 9 -2.68 9 -2 9 C-1.34 6.03 -0.68 3.06 0 0 Z " fill="#1E5199" transform="translate(292,89)"/>
<path d="M0 0 C2.0625 0.4375 2.0625 0.4375 4 1 C3.67 1.66 3.34 2.32 3 3 C2.95977609 5.3329866 2.95679753 7.66706666 3 10 C2.34 10 1.68 10 1 10 C1.80020812 17.5054003 3.11993896 23.83769289 9 29 C12.20780218 30.12428864 12.20780218 30.12428864 15 30 C15 30.99 15 31.98 15 33 C9.07060954 32.64423657 6.19369925 31.19369925 2 27 C-1.96802226 22.20842595 -1.37755134 17.1572213 -1.25 11.25 C-1.24484375 10.27933594 -1.2396875 9.30867188 -1.234375 8.30859375 C-1.15432726 1.15432726 -1.15432726 1.15432726 0 0 Z " fill="#325091" transform="translate(176,88)"/>
<path d="M0 0 C0.33 0 0.66 0 1 0 C1.02578125 0.97582031 1.0515625 1.95164062 1.078125 2.95703125 C1.13484375 4.22933594 1.1915625 5.50164062 1.25 6.8125 C1.29640625 8.07707031 1.3428125 9.34164062 1.390625 10.64453125 C1.68709985 14.03756674 1.68709985 14.03756674 3.890625 15.96484375 C6.69269906 17.33993565 8.05283893 16.88414832 11 16 C11.763125 15.814375 12.52625 15.62875 13.3125 15.4375 C13.869375 15.293125 14.42625 15.14875 15 15 C15.66 16.32 16.32 17.64 17 19 C17.99 19 18.98 19 20 19 C19.67 19.99 19.34 20.98 19 22 C7.19367261 22.55826767 7.19367261 22.55826767 3 19 C2.30390625 18.42894531 1.6078125 17.85789062 0.890625 17.26953125 C-1.55893364 14.32904866 -1.44818465 12.71327628 -1.3125 8.9375 C-1.28800781 7.89464844 -1.26351562 6.85179688 -1.23828125 5.77734375 C-1 3 -1 3 0 0 Z " fill="#F4F8F7" transform="translate(132,96)"/>
<path d="M0 0 C0.66 0 1.32 0 2 0 C2 0.66 2 1.32 2 2 C2.66 2 3.32 2 4 2 C4 2.66 4 3.32 4 4 C4.99 3.34 5.98 2.68 7 2 C9.6875 1.875 9.6875 1.875 12 2 C11.67 4.97 11.34 7.94 11 11 C8.69 11 6.38 11 4 11 C3.34 9.68 2.68 8.36 2 7 C1.67 8.32 1.34 9.64 1 11 C0.01 11 -0.98 11 -2 11 C-2.05399736 9.54207116 -2.09279177 8.08357288 -2.125 6.625 C-2.15980469 5.40683594 -2.15980469 5.40683594 -2.1953125 4.1640625 C-2 2 -2 2 0 0 Z " fill="#8E8F8F" transform="translate(372,95)"/>
<path d="M0 0 C1.07310858 3.27185553 0.89263102 5.42947592 0.0625 8.75 C-0.13214844 9.54921875 -0.32679688 10.3484375 -0.52734375 11.171875 C-0.68332031 11.77515625 -0.83929688 12.3784375 -1 13 C-1.33 13 -1.66 13 -2 13 C-2 10.69 -2 8.38 -2 6 C-2.66 6 -3.32 6 -4 6 C-3.67 7.98 -3.34 9.96 -3 12 C-3.99 12 -4.98 12 -6 12 C-5.67 13.98 -5.34 15.96 -5 18 C-5.99 18 -6.98 18 -8 18 C-9.25 10.5 -9.25 10.5 -7 6 C-10.3 6 -13.6 6 -17 6 C-17 5.34 -17 4.68 -17 4 C-15.68 4 -14.36 4 -13 4 C-13 3.34 -13 2.68 -13 2 C-8.71 2 -4.42 2 0 2 C0 1.34 0 0.68 0 0 Z " fill="#83ADC5" transform="translate(404,88)"/>
<path d="M0 0 C1.32 0.33 2.64 0.66 4 1 C4.47455278 8.28965794 4.38698527 13.02882561 0 19 C-1.31494512 20.35147138 -2.64264858 21.69112542 -4 23 C-4 23.66 -4 24.32 -4 25 C-4.515625 24.855625 -5.03125 24.71125 -5.5625 24.5625 C-8.68509571 23.84190099 -11.82550692 23.42733561 -15 23 C-15 22.67 -15 22.34 -15 22 C-14.04287109 21.92652344 -14.04287109 21.92652344 -13.06640625 21.8515625 C-12.24011719 21.77679688 -11.41382813 21.70203125 -10.5625 21.625 C-9.73878906 21.55539063 -8.91507813 21.48578125 -8.06640625 21.4140625 C-7.38449219 21.27742188 -6.70257813 21.14078125 -6 21 C-5.67 20.34 -5.34 19.68 -5 19 C-5.99 19 -6.98 19 -8 19 C-7.67 18.34 -7.34 17.68 -7 17 C-4.69 16.34 -2.38 15.68 0 15 C0 10.05 0 5.1 0 0 Z " fill="#EEF4F2" transform="translate(157,96)"/>
<path d="M0 0 C3.02189223 0.39091338 4.99923252 0.58984076 8 -0.0625 C10.125 -0.4375 10.125 -0.4375 12.2421875 0.52734375 C14.64517701 3.12476602 14.5389978 5.06412136 14.4765625 8.51367188 C14.44304687 9.25166016 14.40953125 9.98964844 14.375 10.75 C14.35695312 11.49958984 14.33890625 12.24917969 14.3203125 13.02148438 C14.27324109 14.8690371 14.20149766 16.71593159 14.125 18.5625 C13.795 17.9025 13.465 17.2425 13.125 16.5625 C11.10036745 15.91036708 11.10036745 15.91036708 9.125 15.5625 C9.785 15.2325 10.445 14.9025 11.125 14.5625 C11.20586147 12.77156809 11.26412702 10.97960372 11.3125 9.1875 C11.34730469 8.18976563 11.38210937 7.19203125 11.41796875 6.1640625 C11.32128906 5.30554688 11.22460938 4.44703125 11.125 3.5625 C10.135 2.9025 9.145 2.2425 8.125 1.5625 C8.125 3.5425 8.125 5.5225 8.125 7.5625 C5.38798813 6.54589559 2.98936009 5.47853244 0.5 3.9375 C-1.85032776 2.31198186 -1.85032776 2.31198186 -4.875 2.5625 C-5.535 3.2225 -6.195 3.8825 -6.875 4.5625 C-7.205 3.5725 -7.535 2.5825 -7.875 1.5625 C-4.45028821 -0.72064119 -3.87615138 -0.57140833 0 0 Z " fill="#2C7061" transform="translate(142.875,92.4375)"/>
<path d="M0 0 C0.33 1.32 0.66 2.64 1 4 C5.79308342 4.46522293 5.79308342 4.46522293 9.9375 2.5 C10.288125 2.005 10.63875 1.51 11 1 C11.639375 1.474375 12.27875 1.94875 12.9375 2.4375 C16.92181519 4.47031387 20.58494074 4.7210529 25 5 C24.67 5.66 24.34 6.32 24 7 C14.58997722 7.3690205 14.58997722 7.3690205 10 5 C10.928125 5.928125 10.928125 5.928125 11.875 6.875 C13.25 8.25 14.625 9.625 16 11 C13.03 10.505 13.03 10.505 10 10 C9.67 10.66 9.34 11.32 9 12 C8.34 11.34 7.68 10.68 7 10 C4.31160615 9.73008094 1.70858064 9.91262643 -1 10 C-1.33 11.98 -1.66 13.96 -2 16 C-2.93423645 12.98968256 -3.04449911 12.13349732 -2 9 C0.64 9 3.28 9 6 9 C6 7.68 6 6.36 6 5 C4.02 5 2.04 5 0 5 C0 3.35 0 1.7 0 0 Z " fill="#E3DCDC" transform="translate(165,31)"/>
<path d="M0 0 C0.99 0 1.98 0 3 0 C3 0.99 3 1.98 3 3 C3.886875 2.896875 4.77375 2.79375 5.6875 2.6875 C9 3 9 3 11.875 5.1875 C14 8 14 8 14.3125 10.8125 C14.1578125 11.8953125 14.1578125 11.8953125 14 13 C10.57189475 12.93143789 7.95225689 12.78160908 5.234375 10.55078125 C2.29300046 7.25958304 0.27597504 4.55358812 0 0 Z " fill="#DC7A1D" transform="translate(82,103)"/>
<path d="M0 0 C0.66 0.33 1.32 0.66 2 1 C2 1.99 2 2.98 2 4 C-3.06132317 6.45397487 -7.58461513 6.82225868 -12.9375 5 C-13.618125 4.67 -14.29875 4.34 -15 4 C-15 3.01 -15 2.02 -15 1 C-10.38267941 -2.07821373 -5.04127325 -1.68042442 0 0 Z " fill="#F6E8E9" transform="translate(192,26)"/>
<path d="M0 0 C0.66 0 1.32 0 2 0 C2.33 3.96 2.66 7.92 3 12 C5.33075929 11.04134491 5.33075929 11.04134491 7 8 C7.22036864 11.85645121 6.60355101 14.49223216 5 18 C3.68 18 2.36 18 1 18 C1 17.34 1 16.68 1 16 C-0.32 15.67 -1.64 15.34 -3 15 C-2.44854729 9.76119922 -1.57077907 5.02649303 0 0 Z " fill="#E6E5E5" transform="translate(350,94)"/>
<path d="M0 0 C0.66 0 1.32 0 2 0 C1.84015625 0.54785156 1.6803125 1.09570312 1.515625 1.66015625 C0.32810805 7.04896422 0.0892535 12.9182937 2.3125 18 C3.1478125 18.99 3.1478125 18.99 4 20 C4.45375 20.556875 4.9075 21.11375 5.375 21.6875 C9.93617456 25.37152561 15.37571182 25.53437266 21 26 C19 28 19 28 15.1875 28.25 C10.17505818 28.09618861 7.23230571 27.05626204 3.375 23.75 C-1.23965397 18.40671646 -2.437003 14.28199951 -2.23828125 7.34765625 C-1.96188319 4.62445573 -1.28882917 2.41655469 0 0 Z " fill="#417E6F" transform="translate(130,93)"/>
<path d="M0 0 C2.64 0 5.28 0 8 0 C7.8858134 1.93816735 7.75826577 3.87555099 7.625 5.8125 C7.55539062 6.89144531 7.48578125 7.97039062 7.4140625 9.08203125 C7 12 7 12 5 15 C5 14.01 5 13.02 5 12 C2.69 12 0.38 12 -2 12 C-2 10.35 -2 8.7 -2 7 C0.31 7 2.62 7 5 7 C5 6.01 5 5.02 5 4 C3.35 4 1.7 4 0 4 C0 2.68 0 1.36 0 0 Z " fill="#AACADC" transform="translate(408,91)"/>
<path d="M0 0 C1.18916016 0.02707031 1.18916016 0.02707031 2.40234375 0.0546875 C4.35208348 0.10166918 6.30119878 0.17340956 8.25 0.25 C8.25 1.57 8.25 2.89 8.25 4.25 C7.04601562 4.28738281 5.84203125 4.32476562 4.6015625 4.36328125 C3.02600989 4.42892928 1.45049046 4.49537701 -0.125 4.5625 C-0.9190625 4.58505859 -1.713125 4.60761719 -2.53125 4.63085938 C-4.61215581 4.72785075 -6.68441332 4.97994825 -8.75 5.25 C-9.74 6.735 -9.74 6.735 -10.75 8.25 C-11.08 7.59 -11.41 6.93 -11.75 6.25 C-12.41 7.24 -13.07 8.23 -13.75 9.25 C-13.42710837 6.34397529 -12.93055622 4.50954956 -11.25 2.09375 C-7.58407063 -0.60987291 -4.4265588 -0.19086323 0 0 Z " fill="#393939" transform="translate(117.75,28.75)"/>
<path d="M0 0 C2.96406107 1.36417024 3.94369448 2.38288388 6 5 C6 5.66 6 6.32 6 7 C0.125 5.125 0.125 5.125 -1 4 C-3.10131921 3.87397946 -5.20743788 3.8242078 -7.3125 3.8125 C-9.03919922 3.79123047 -9.03919922 3.79123047 -10.80078125 3.76953125 C-13.8939954 3.99236353 -15.33117997 4.60372992 -18 6 C-18.99 5.67 -19.98 5.34 -21 5 C-15.47054668 -1.70236766 -8.16519496 -1.15741413 0 0 Z " fill="#E0B976" transform="translate(106,86)"/>
<path d="M0 0 C-0.29073322 2.81042113 -0.81563062 3.83347282 -2.9375 5.75 C-8.60587207 8.06362125 -14.00633409 7.8249652 -19.625 5.5 C-20.40875 5.005 -21.1925 4.51 -22 4 C-22 3.01 -22 2.02 -22 1 C-21.01 1.33 -20.02 1.66 -19 2 C-17.04433497 2.11979145 -15.08429234 2.17528496 -13.125 2.1875 C-12.09632813 2.20167969 -11.06765625 2.21585938 -10.0078125 2.23046875 C-6.4212646 1.95565534 -3.49215052 0 0 0 Z " fill="#E14A51" transform="translate(197,40)"/>
<path d="M0 0 C1.32 0 2.64 0 4 0 C3.85890014 2.10448938 3.71195825 4.2085877 3.5625 6.3125 C3.48128906 7.48425781 3.40007812 8.65601562 3.31640625 9.86328125 C3 13 3 13 2 16 C0.35 16 -1.3 16 -3 16 C-2.52013969 10.43109483 -1.70084819 5.32932432 0 0 Z " fill="#20539D" transform="translate(300,89)"/>
<path d="M0 0 C1.17046875 0.01804687 2.3409375 0.03609375 3.546875 0.0546875 C4.88492188 0.08949219 4.88492188 0.08949219 6.25 0.125 C6.25 0.455 6.25 0.785 6.25 1.125 C5.50234375 1.17398438 4.7546875 1.22296875 3.984375 1.2734375 C2.99953125 1.34820312 2.0146875 1.42296875 1 1.5 C0.02546875 1.56960937 -0.9490625 1.63921875 -1.953125 1.7109375 C-5.06584202 2.0234174 -5.06584202 2.0234174 -8.75 4.125 C-5.12 4.785 -1.49 5.445 2.25 6.125 C1.92 6.785 1.59 7.445 1.25 8.125 C-3.55995208 9.00682455 -6.97843655 9.1566894 -11.75 8.125 C-14.47502965 8.50222015 -14.47502965 8.50222015 -16.75 9.125 C-16.5625 7.3125 -16.5625 7.3125 -15.75 5.125 C-13.4375 3.5 -13.4375 3.5 -10.75 2.125 C-10.17378906 1.76921875 -9.59757812 1.4134375 -9.00390625 1.046875 C-5.92788032 -0.21125692 -3.30898881 -0.06617978 0 0 Z " fill="#4D3D25" transform="translate(98.75,88.875)"/>
<path d="M0 0 C0.99 0 1.98 0 3 0 C2.59128562 8.68518048 0.38135792 16.69293749 -2 25 C-2.33 25 -2.66 25 -3 25 C-2.96744792 23.046875 -2.93489583 21.09375 -2.90234375 19.140625 C-2.90798784 17.01286758 -2.90798784 17.01286758 -3.58984375 15.12109375 C-4.17625773 12.08849572 -3.41267955 9.77894454 -2.625 6.8125 C-2.34914063 5.74644531 -2.07328125 4.68039063 -1.7890625 3.58203125 C-1 1 -1 1 0 0 Z " fill="#CF464F" transform="translate(97,36)"/>
<path d="M0 0 C9.39759036 3.28915663 9.39759036 3.28915663 12 6 C12 7.32 12 8.64 12 10 C9.69 10.33 7.38 10.66 5 11 C4.15841464 9.73461631 3.32700252 8.46246221 2.5 7.1875 C1.80390625 6.12595703 1.80390625 6.12595703 1.09375 5.04296875 C0 3 0 3 0 0 Z " fill="#FCEDEE" transform="translate(55,101)"/>
<path d="M0 0 C1.65 0 3.3 0 5 0 C5 0.99 5 1.98 5 3 C5.66 3 6.32 3 7 3 C7.2475 3.94875 7.495 4.8975 7.75 5.875 C8.6857077 9.08693191 8.6857077 9.08693191 11.125 10.375 C11.74375 10.58125 12.3625 10.7875 13 11 C12.67 11.99 12.34 12.98 12 14 C9.69 13.67 7.38 13.34 5 13 C4.67 14.32 4.34 15.64 4 17 C3.17377329 11.39436958 2.93204344 6.57710648 4 1 C2.68 0.67 1.36 0.34 0 0 Z " fill="#E3E9F2" transform="translate(300,88)"/>
<path d="M0 0 C1.0528418 0.01353516 1.0528418 0.01353516 2.12695312 0.02734375 C3.85561525 0.05086296 5.58410145 0.08673287 7.3125 0.125 C7.3125 1.115 7.3125 2.105 7.3125 3.125 C6.58804687 3.16238281 5.86359375 3.19976562 5.1171875 3.23828125 C-0.59310048 3.62658083 -4.60628818 4.3303335 -9.6875 7.125 C-10.6775 6.795 -11.6675 6.465 -12.6875 6.125 C-9.99775301 -0.08210844 -6.19823367 -0.15047066 0 0 Z " fill="#C0C0C0" transform="translate(15.6875,37.875)"/>
<path d="M0 0 C-0.1875 1.8125 -0.1875 1.8125 -1 4 C-4.72669087 6.76820742 -7.45782516 7.409928 -12.0625 7.375 C-13.08472656 7.38273437 -14.10695312 7.39046875 -15.16015625 7.3984375 C-18.3254001 6.95434552 -19.73655356 6.22545093 -22 4 C-22 3.34 -22 2.68 -22 2 C-21.360625 2.165 -20.72125 2.33 -20.0625 2.5 C-12.08119549 3.80307012 -7.06036012 0 0 0 Z " fill="#E22E36" transform="translate(197,34)"/>
<path d="M0 0 C2.875 0.3125 2.875 0.3125 6 1 C6.66 1.99 7.32 2.98 8 4 C7.195625 4.66 6.39125 5.32 5.5625 6 C2.24851076 9.87979228 2.25422975 12.00014825 2 17 C2.99 17.33 3.98 17.66 5 18 C2.69 18 0.38 18 -2 18 C-1.93999894 16.3739713 -1.8512115 14.74898451 -1.75 13.125 C-1.70359375 12.22007813 -1.6571875 11.31515625 -1.609375 10.3828125 C-1 8 -1 8 1.046875 6.6796875 C1.69140625 6.45539063 2.3359375 6.23109375 3 6 C2.5359375 5.071875 2.5359375 5.071875 2.0625 4.125 C1.375 2.75 0.6875 1.375 0 0 Z " fill="#825A21" transform="translate(99,99)"/>
<path d="M0 0 C0.66 0 1.32 0 2 0 C2.33 2.64 2.66 5.28 3 8 C1.68 8 0.36 8 -1 8 C-1 9.65 -1 11.3 -1 13 C3.95 13 8.9 13 14 13 C14 13.33 14 13.66 14 14 C13.01257813 14.03738281 12.02515625 14.07476562 11.0078125 14.11328125 C9.08582031 14.21189453 9.08582031 14.21189453 7.125 14.3125 C5.84882813 14.37050781 4.57265625 14.42851563 3.2578125 14.48828125 C2.18273437 14.65714844 1.10765625 14.82601562 0 15 C-0.99 16.485 -0.99 16.485 -2 18 C-4.7885289 18.22107787 -7.34653181 18.28107535 -10.125 18.1875 C-11.25615234 18.16719727 -11.25615234 18.16719727 -12.41015625 18.14648438 C-14.27374127 18.11109985 -16.13695978 18.05729167 -18 18 C-18 17.67 -18 17.34 -18 17 C-13.05 17 -8.1 17 -3 17 C-2.87625 15.494375 -2.7525 13.98875 -2.625 12.4375 C-2.1955696 8.06228885 -1.36053236 4.17229925 0 0 Z " fill="#BCBCBC" transform="translate(135,40)"/>
<path d="M0 0 C0.721875 0.144375 1.44375 0.28875 2.1875 0.4375 C3.5796875 0.7159375 3.5796875 0.7159375 5 1 C6.66666667 1.33333333 8.33333333 1.66666667 10 2 C10 2.33 10 2.66 10 3 C7.69 3 5.38 3 3 3 C3.66 3.94875 4.32 4.8975 5 5.875 C7 9 7 9 7 11 C8.65 10.34 10.3 9.68 12 9 C11.42655063 11.86724686 11.1385485 12.8614515 9 15 C8.01 15 7.02 15 6 15 C4.99267601 13.06629769 3.99436712 11.12789694 3 9.1875 C2.443125 8.10855469 1.88625 7.02960938 1.3125 5.91796875 C0 3 0 3 0 0 Z " fill="#27468A" transform="translate(187,103)"/>
<path d="M0 0 C0.66 0 1.32 0 2 0 C2.33 1.32 2.66 2.64 3 4 C6.63 4.33 10.26 4.66 14 5 C14.33 3.68 14.66 2.36 15 1 C15.33 1 15.66 1 16 1 C16 3.31 16 5.62 16 8 C13.52076199 8.02685095 11.0418116 8.04676547 8.5625 8.0625 C7.85544922 8.07087891 7.14839844 8.07925781 6.41992188 8.08789062 C4.61306441 8.09653588 2.80612397 8.05220011 1 8 C0 7 0 7 -0.0625 3.4375 C-0.041875 2.303125 -0.02125 1.16875 0 0 Z " fill="#BC2938" transform="translate(59,49)"/>
<path d="M0 0 C1.37478516 0.01740234 1.37478516 0.01740234 2.77734375 0.03515625 C3.69644531 0.04417969 4.61554688 0.05320313 5.5625 0.0625 C6.27277344 0.07410156 6.98304687 0.08570313 7.71484375 0.09765625 C7.71484375 2.07765625 7.71484375 4.05765625 7.71484375 6.09765625 C4.08484375 6.09765625 0.45484375 6.09765625 -3.28515625 6.09765625 C-3.28515625 0.14039129 -3.28515625 0.14039129 0 0 Z " fill="#F5ECEC" transform="translate(65.28515625,47.90234375)"/>
<path d="M0 0 C3 0.125 3 0.125 4 1.125 C4.04080783 3.12458364 4.04254356 5.12545254 4 7.125 C0.625 7.75 0.625 7.75 -3 8.125 C-3.66 7.465 -4.32 6.805 -5 6.125 C-4.27477017 0.17811542 -4.27477017 0.17811542 0 0 Z " fill="#EF373E" transform="translate(34,106.875)"/>
<path d="M0 0 C1.45823212 -0.0270043 2.91660675 -0.04639787 4.375 -0.0625 C5.18710938 -0.07410156 5.99921875 -0.08570312 6.8359375 -0.09765625 C9 0 9 0 11 1 C12.423125 0.6596875 12.423125 0.6596875 13.875 0.3125 C17 0 17 0 19.375 1.9375 C19.91125 2.618125 20.4475 3.29875 21 4 C20.34 5.32 19.68 6.64 19 8 C18.01 7.67 17.02 7.34 16 7 C16 6.01 16 5.02 16 4 C14.329375 4.061875 14.329375 4.061875 12.625 4.125 C9 4 9 4 7 2 C3.41656024 1.83322718 3.41656024 1.83322718 0 2 C0 1.34 0 0.68 0 0 Z " fill="#9E6F25" transform="translate(82,99)"/>
<path d="M0 0 C2.99358859 2.58005983 4.45566888 5.54324813 6.1875 9.0625 C6.71730469 10.12597656 7.24710938 11.18945312 7.79296875 12.28515625 C9 15 9 15 9 17 C7.25 16.875 7.25 16.875 5 16 C0.82110964 10.5077441 -0.12884523 6.82879719 0 0 Z " fill="#DDE2ED" transform="translate(177,99)"/>
<path d="M0 0 C0.33 0 0.66 0 1 0 C1.05819424 3.24992446 1.09366116 6.49971435 1.125 9.75 C1.14175781 10.67039062 1.15851562 11.59078125 1.17578125 12.5390625 C1.18222656 13.42851563 1.18867187 14.31796875 1.1953125 15.234375 C1.20578613 16.05131836 1.21625977 16.86826172 1.22705078 17.70996094 C0.97829916 20.21887518 0.25700129 21.83395625 -1 24 C-1.99 24 -2.98 24 -4 24 C-3.85957123 22.35369672 -3.71250671 20.70795821 -3.5625 19.0625 C-3.48128906 18.14597656 -3.40007813 17.22945312 -3.31640625 16.28515625 C-3 14 -3 14 -2 13 C-1.60333773 10.81980521 -1.25684763 8.6303537 -0.9375 6.4375 C-0.76089844 5.23996094 -0.58429687 4.04242188 -0.40234375 2.80859375 C-0.26957031 1.88175781 -0.13679688 0.95492187 0 0 Z " fill="#D05760" transform="translate(41,34)"/>
<path d="M0 0 C0 1.98 0 3.96 0 6 C-3.3 6 -6.6 6 -10 6 C-10 4.35 -10 2.7 -10 1 C-6.78548731 -0.60725635 -3.56387464 -0.05748185 0 0 Z " fill="#F3F3F3" transform="translate(129,48)"/>
<path d="M0 0 C0.33 0.99 0.66 1.98 1 3 C0.01 3 -0.98 3 -2 3 C-2 3.66 -2 4.32 -2 5 C0.31 5 2.62 5 5 5 C5 6.32 5 7.64 5 9 C1.7 9 -1.6 9 -5 9 C-5.33 8.01 -5.66 7.02 -6 6 C-6.66 5.67 -7.32 5.34 -8 5 C-3.375 2 -3.375 2 0 2 C0 1.34 0 0.68 0 0 Z " fill="#B5B4B4" transform="translate(373,104)"/>
<path d="M0 0 C1.67641098 4.09086452 0.2409319 7.71511018 -0.9375 11.75 C-1.13279297 12.44738281 -1.32808594 13.14476562 -1.52929688 13.86328125 C-2.0108246 15.57798973 -2.50425157 17.28934877 -3 19 C-3.66 18.34 -4.32 17.68 -5 17 C-5.66 17.33 -6.32 17.66 -7 18 C-6.64751958 9.75195822 -6.64751958 9.75195822 -4.0625 6.75 C-3.381875 6.1725 -2.70125 5.595 -2 5 C-0.74563813 2.36777038 -0.74563813 2.36777038 0 0 Z " fill="#DFD6D6" transform="translate(103,39)"/>
<path d="M0 0 C4.95 0.33 9.9 0.66 15 1 C14.67 2.32 14.34 3.64 14 5 C10.7 5 7.4 5 4 5 C3.67 4.01 3.34 3.02 3 2 C2.34 2 1.68 2 1 2 C0.67 2.99 0.34 3.98 0 5 C0 3.35 0 1.7 0 0 Z " fill="#9A9899" transform="translate(246,120)"/>
<path d="M0 0 C2.0625 0.4375 2.0625 0.4375 4 1 C3.67 1.66 3.34 2.32 3 3 C2.95977609 5.3329866 2.95679753 7.66706666 3 10 C2.34 10 1.68 10 1 10 C1 13.63 1 17.26 1 21 C0.34 20.67 -0.32 20.34 -1 20 C-1.02888514 16.85418577 -1.04675923 13.70840531 -1.0625 10.5625 C-1.07087891 9.66466797 -1.07925781 8.76683594 -1.08789062 7.84179688 C-1.09111328 6.98779297 -1.09433594 6.13378906 -1.09765625 5.25390625 C-1.10551147 4.06776733 -1.10551147 4.06776733 -1.11352539 2.85766602 C-1 1 -1 1 0 0 Z " fill="#1C3B84" transform="translate(176,88)"/>
<path d="M0 0 C0.66 0.33 1.32 0.66 2 1 C1.67 1.33 1.34 1.66 1 2 C1.66 2.66 2.32 3.32 3 4 C2.02804688 4.33644531 1.05609375 4.67289062 0.0546875 5.01953125 C-3.37908724 6.74024145 -3.37908724 6.74024145 -3.8046875 10.57421875 C-3.85764484 11.94448986 -3.88012151 13.31621551 -3.875 14.6875 C-3.895625 15.38939453 -3.91625 16.09128906 -3.9375 16.81445312 C-3.98452045 18.54245468 -3.99574751 20.27136406 -4 22 C-4.33 22 -4.66 22 -5 22 C-5.33 18.37 -5.66 14.74 -6 11 C-6.33 13.97 -6.66 16.94 -7 20 C-7.33 20 -7.66 20 -8 20 C-9.07206607 10.74279458 -9.07206607 10.74279458 -6.4765625 6.5234375 C-4.73121252 4.5643712 -2.9524077 2.75108028 -1 1 C-0.67 0.67 -0.34 0.34 0 0 Z " fill="#DBE6E4" transform="translate(138,88)"/>
<path d="M0 0 C1.39456452 0.00667256 2.78911118 0.01863093 4.18359375 0.03515625 C4.89451172 0.03966797 5.60542969 0.04417969 6.33789062 0.04882812 C8.09899388 0.06064761 9.86005411 0.07858362 11.62109375 0.09765625 C11.62109375 1.08765625 11.62109375 2.07765625 11.62109375 3.09765625 C10.64527344 3.13503906 9.66945312 3.17242187 8.6640625 3.2109375 C6.75560547 3.30955078 6.75560547 3.30955078 4.80859375 3.41015625 C2.91173828 3.49716797 2.91173828 3.49716797 0.9765625 3.5859375 C-2.34494318 3.80900565 -2.34494318 3.80900565 -4.328125 5.640625 C-4.84826172 6.36185547 -4.84826172 6.36185547 -5.37890625 7.09765625 C-4.34049222 0.12544775 -4.34049222 0.12544775 0 0 Z " fill="#202020" transform="translate(143.37890625,36.90234375)"/>
<path d="M0 0 C0.33 1.32 0.66 2.64 1 4 C-4.445 4.495 -4.445 4.495 -10 5 C-6.7 5.33 -3.4 5.66 0 6 C-0.33 7.32 -0.66 8.64 -1 10 C-1 9.01 -1 8.02 -1 7 C-2.6260287 7.06000106 -4.25101549 7.1487885 -5.875 7.25 C-6.77992187 7.29640625 -7.68484375 7.3428125 -8.6171875 7.390625 C-11.17110544 7.75611148 -11.17110544 7.75611148 -12.3203125 10.046875 C-12.54460938 10.69140625 -12.76890625 11.3359375 -13 12 C-13 10.68 -13 9.36 -13 8 C-13.66 8 -14.32 8 -15 8 C-15 9.98 -15 11.96 -15 14 C-15.33 14 -15.66 14 -16 14 C-16.59600705 7.80152672 -16.59600705 7.80152672 -14.1875 4.5625 C-9.50676177 2.26802048 -5.12149648 2.67710355 0 3 C0 2.01 0 1.02 0 0 Z " fill="#D8737B" transform="translate(74,41)"/>
<path d="M0 0 C0.61875 0.495 1.2375 0.99 1.875 1.5 C1.215 2.82 0.555 4.14 -0.125 5.5 C-0.125 4.51 -0.125 3.52 -0.125 2.5 C-5.63482274 1.12254432 -11.66545091 0.6801503 -17.125 2.5 C-17.455 4.15 -17.785 5.8 -18.125 7.5 C-18.455 7.5 -18.785 7.5 -19.125 7.5 C-19.49085366 2.98780488 -19.49085366 2.98780488 -17.8125 0.75 C-12.87430787 -2.90792009 -5.3073407 -2.54752353 0 0 Z " fill="#DD767C" transform="translate(194.125,24.5)"/>
<path d="M0 0 C0.33 0 0.66 0 1 0 C0.99097656 0.96421875 0.98195312 1.9284375 0.97265625 2.921875 C0.77654968 9.86699925 0.77654968 9.86699925 3.625 15.8203125 C5.74253253 17.04885516 5.74253253 17.04885516 9 18 C8.34 18.99 7.68 19.98 7 21 C3.60207709 19.54374732 1.34459789 17.87103567 -1 15 C-1.42578125 12.08984375 -1.42578125 12.08984375 -1.3125 8.9375 C-1.28800781 7.89464844 -1.26351562 6.85179688 -1.23828125 5.77734375 C-1 3 -1 3 0 0 Z " fill="#EBF1F0" transform="translate(132,96)"/>
<path d="M0 0 C1.32 0 2.64 0 4 0 C3.67 2.31 3.34 4.62 3 7 C4.98 7 6.96 7 9 7 C9 8.32 9 9.64 9 11 C6.36 11 3.72 11 1 11 C1 10.67 1 10.34 1 10 C3.31 10 5.62 10 8 10 C8 9.34 8 8.68 8 8 C4.37 8 0.74 8 -3 8 C-2.34 7.67 -1.68 7.34 -1 7 C-0.59270772 4.67843403 -0.25561323 2.3431213 0 0 Z " fill="#4A4A4A" transform="translate(162,29)"/>
<path d="M0 0 C0.33 0 0.66 0 1 0 C0.67 4.95 0.34 9.9 0 15 C3.63 15 7.26 15 11 15 C11 15.33 11 15.66 11 16 C9.06318839 16.08107583 7.1254066 16.13922475 5.1875 16.1875 C4.10855469 16.22230469 3.02960938 16.25710937 1.91796875 16.29296875 C-1 16 -1 16 -2.88671875 14.73828125 C-4 13 -4 13 -4 9 C-3.01 9 -2.02 9 -1 9 C-1.33 7.02 -1.66 5.04 -2 3 C-1.34 3 -0.68 3 0 3 C0 2.01 0 1.02 0 0 Z " fill="#D7E0E5" transform="translate(402,91)"/>
<path d="M0 0 C1.4540625 0.0309375 1.4540625 0.0309375 2.9375 0.0625 C3.78204356 3.44067425 4.04594919 5.73715243 2.9375 9.0625 C2.2775 9.0625 1.6175 9.0625 0.9375 9.0625 C0.9375 7.0825 0.9375 5.1025 0.9375 3.0625 C-0.0525 3.5575 -0.0525 3.5575 -1.0625 4.0625 C-1.71805119 6.58983235 -1.71805119 6.58983235 -2.0625 9.0625 C-2.7225 9.0625 -3.3825 9.0625 -4.0625 9.0625 C-4.16015625 2.91015625 -4.16015625 2.91015625 -4.0625 1.0625 C-3.0625 0.0625 -3.0625 0.0625 0 0 Z " fill="#3F3F40" transform="translate(357.0625,96.9375)"/>
<path d="M0 0 C-3.02287872 2.01525248 -4.33740109 2.32673349 -7.8125 2.8125 C-12.89626137 3.72802364 -15.37887474 5.37887474 -19 9 C-19 7.68 -19 6.36 -19 5 C-13.19294045 -0.80705955 -7.91663022 -0.58497268 0 0 Z " fill="#578D80" transform="translate(151,85)"/>
<path d="M0 0 C0.66 0.33 1.32 0.66 2 1 C2 1.99 2 2.98 2 4 C4.31 4 6.62 4 9 4 C9 4.99 9 5.98 9 7 C5.37 7 1.74 7 -2 7 C-2 2 -2 2 0 0 Z " fill="#126B9D" transform="translate(404,99)"/>
<path d="M0 0 C0.66 0 1.32 0 2 0 C2 0.99 2 1.98 2 3 C5.14930893 4.04976964 7.38814456 4.10131595 10.6875 4.0625 C11.68136719 4.05347656 12.67523438 4.04445313 13.69921875 4.03515625 C14.45847656 4.02355469 15.21773437 4.01195312 16 4 C16 4.99 16 5.98 16 7 C13.70858714 7.05384521 11.41681812 7.09272087 9.125 7.125 C7.21074219 7.15980469 7.21074219 7.15980469 5.2578125 7.1953125 C2 7 2 7 0 5 C-0.125 2.375 -0.125 2.375 0 0 Z " fill="#0F0F0F" transform="translate(115,50)"/>
<path d="M0 0 C1.32 0 2.64 0 4 0 C3.25339288 5.72398793 2.17122859 11.34853777 1 17 C-1.37706418 13.33460332 -1.05094317 10.50943165 -0.625 6.25 C-0.51414062 5.07953125 -0.40328125 3.9090625 -0.2890625 2.703125 C-0.19367188 1.81109375 -0.09828125 0.9190625 0 0 Z " fill="#D32E39" transform="translate(81,36)"/>
<path d="M0 0 C0 0.66 0 1.32 0 2 C-1.15628906 2.41572266 -1.15628906 2.41572266 -2.3359375 2.83984375 C-3.33882812 3.20207031 -4.34171875 3.56429687 -5.375 3.9375 C-6.87160156 4.47697266 -6.87160156 4.47697266 -8.3984375 5.02734375 C-10.93504165 5.92349292 -10.93504165 5.92349292 -13 7 C-13 6.01 -13 5.02 -13 4 C-13.66 3.67 -14.32 3.34 -15 3 C-9.63560356 0.31780178 -5.98993047 -0.3152595 0 0 Z " fill="#EF3E45" transform="translate(37,99)"/>
<path d="M0 0 C0.33 1.32 0.66 2.64 1 4 C2.95825873 4.02694851 4.91662226 4.04637218 6.875 4.0625 C8.51082031 4.07990234 8.51082031 4.07990234 10.1796875 4.09765625 C12.95177546 4.19744303 12.95177546 4.19744303 15 3 C14.67 5.64 14.34 8.28 14 11 C13.34 10.01 12.68 9.02 12 8 C9.37654883 7.45368617 9.37654883 7.45368617 6.4375 7.375 C1.08253095 7.08253095 1.08253095 7.08253095 0 6 C-0.04080783 4.00041636 -0.04254356 1.99954746 0 0 Z " fill="#C23643" transform="translate(80,49)"/>
<path d="M0 0 C0.33 0 0.66 0 1 0 C1.1799928 5.21979128 0.97094808 9.07262981 -1 14 C-1.99 14 -2.98 14 -4 14 C-2.86792453 2.86792453 -2.86792453 2.86792453 0 0 Z " fill="#141313" transform="translate(104,44)"/>
<path d="M0 0 C0 4 0 4 -2 6.125 C-2.66 6.74375 -3.32 7.3625 -4 8 C-4 8.66 -4 9.32 -4 10 C-4.515625 9.855625 -5.03125 9.71125 -5.5625 9.5625 C-8.68509571 8.84190099 -11.82550692 8.42733561 -15 8 C-15 7.67 -15 7.34 -15 7 C-14.04287109 6.92652344 -14.04287109 6.92652344 -13.06640625 6.8515625 C-12.24011719 6.77679688 -11.41382813 6.70203125 -10.5625 6.625 C-9.73878906 6.55539063 -8.91507813 6.48578125 -8.06640625 6.4140625 C-7.38449219 6.27742188 -6.70257813 6.14078125 -6 6 C-5.67 5.34 -5.34 4.68 -5 4 C-5.99 4 -6.98 4 -8 4 C-6.4425489 0.88509781 -3.40085499 0 0 0 Z " fill="#BCD2CD" transform="translate(157,111)"/>
<path d="M0 0 C0.93423645 3.01031744 1.04449911 3.86650268 0 7 C4.95 6.67 9.9 6.34 15 6 C15 6.99 15 7.98 15 9 C11.99686252 10.50156874 9.20932478 10.09281204 5.875 10.0625 C4.59367187 10.05347656 3.31234375 10.04445313 1.9921875 10.03515625 C0.51105469 10.01775391 0.51105469 10.01775391 -1 10 C-1.125 3.375 -1.125 3.375 0 0 Z " fill="#D94B54" transform="translate(44,35)"/>
<path d="M0 0 C0.33 0 0.66 0 1 0 C1.08636719 0.65226562 1.17273438 1.30453125 1.26171875 1.9765625 C2.45874594 9.42229124 4.38895649 13.07212688 10.3125 17.875 C10.869375 18.24625 11.42625 18.6175 12 19 C10.3125 19.8125 10.3125 19.8125 8 20 C4.55186532 17.14057124 1.7453939 14.13382767 0 10 C-0.23704553 6.65044367 -0.17570344 3.35138034 0 0 Z " fill="#429B94" transform="translate(81,98)"/>
<path d="M0 0 C2.31 0 4.62 0 7 0 C7 2.64 7 5.28 7 8 C6.34 8 5.68 8 5 8 C5 6.02 5 4.04 5 2 C4.01 2 3.02 2 2 2 C2 3.98 2 5.96 2 8 C1.01 8 0.02 8 -1 8 C-0.67 5.36 -0.34 2.72 0 0 Z " fill="#2E2F2F" transform="translate(386,98)"/>
<path d="M0 0 C3.3 0 6.6 0 10 0 C9.67 1.98 9.34 3.96 9 6 C4.545 5.01 4.545 5.01 0 4 C0 2.68 0 1.36 0 0 Z " fill="#E4EEF4" transform="translate(420,91)"/>
<path d="M0 0 C-1.47692308 5.66153846 -1.47692308 5.66153846 -4.125 7.375 C-5.053125 7.684375 -5.053125 7.684375 -6 8 C-9 3.25 -9 3.25 -9 1 C-2.25 0 -2.25 0 0 0 Z " fill="#DEE3ED" transform="translate(200,106)"/>
<path d="M0 0 C0.99 0 1.98 0 3 0 C4.03041513 1.95330868 5.0490893 3.91281528 6.0625 5.875 C6.63097656 6.96554688 7.19945312 8.05609375 7.78515625 9.1796875 C8.38650391 10.57574219 8.38650391 10.57574219 9 12 C8.67 12.66 8.34 13.32 8 14 C7.34 14 6.68 14 6 14 C4.99515796 12.04414675 3.99626195 10.08523763 3 8.125 C2.1646875 6.48917969 2.1646875 6.48917969 1.3125 4.8203125 C0 2 0 2 0 0 Z " fill="#D1D8E6" transform="translate(184,104)"/>
<path d="M0 0 C2.48046875 0.98828125 2.48046875 0.98828125 5 3 C5.37859559 5.94093052 5.47775614 8.27644958 5.3125 11.1875 C5.28994141 11.93708984 5.26738281 12.68667969 5.24414062 13.45898438 C5.18529157 15.3068447 5.09560938 17.15367667 5 19 C4.67 18.34 4.34 17.68 4 17 C1.97536745 16.34786708 1.97536745 16.34786708 0 16 C0.66 15.67 1.32 15.34 2 15 C2.05429959 13.25034642 2.09292823 11.50020213 2.125 9.75 C2.14820313 8.77546875 2.17140625 7.8009375 2.1953125 6.796875 C1.99862781 3.9803502 1.44568916 2.39050964 0 0 Z " fill="#6E9C90" transform="translate(152,92)"/>
<path d="M0 0 C3.96 0 7.92 0 12 0 C12.66 1.32 13.32 2.64 14 4 C7.07 3.505 7.07 3.505 0 3 C0 2.01 0 1.02 0 0 Z " fill="#1C1C1C" transform="translate(120,37)"/>
<path d="M0 0 C6.6613344 1.03312362 11.51713579 3.08580266 17 7 C16.34 8.32 15.68 9.64 15 11 C14.319375 10.236875 13.63875 9.47375 12.9375 8.6875 C9.60251749 5.63634579 7.24127316 4.4404324 3 3 C2.01 3.495 2.01 3.495 1 4 C0.67 2.68 0.34 1.36 0 0 Z " fill="#F1595F" transform="translate(53,99)"/>
<path d="M0 0 C0.99 0.33 1.98 0.66 3 1 C2.47462276 6.0302076 1.89405214 11.01885239 1 16 C0.01 16 -0.98 16 -2 16 C-1.42978066 10.6496441 -0.79265639 5.32212148 0 0 Z " fill="#E6B4B6" transform="translate(78,39)"/>
<path d="M0 0 C2.08326131 -0.02709444 4.16662441 -0.04643873 6.25 -0.0625 C7.41015625 -0.07410156 8.5703125 -0.08570312 9.765625 -0.09765625 C12.40977128 -0.01782092 14.49826091 0.21356222 17 1 C17 1.66 17 2.32 17 3 C11.22240116 3.12036664 5.72040011 2.8320582 0 2 C0 1.34 0 0.68 0 0 Z " fill="#D3D9E7" transform="translate(182,90)"/>
<path d="M0 0 C0.33 0 0.66 0 1 0 C1 4.29 1 8.58 1 13 C0.67 13 0.34 13 0 13 C-0.33 10.69 -0.66 8.38 -1 6 C-1.99 6.495 -1.99 6.495 -3 7 C-5.3329866 7.04022391 -7.66706666 7.04320247 -10 7 C-10 6.34 -10 5.68 -10 5 C-5.545 4.505 -5.545 4.505 -1 4 C-0.67 2.68 -0.34 1.36 0 0 Z " fill="#0E317D" transform="translate(201,89)"/>
<path d="M0 0 C5.94 0.33 11.88 0.66 18 1 C17.67 1.66 17.34 2.32 17 3 C12.19004792 3.88182455 8.77156345 4.0316894 4 3 C1.27497035 3.37722015 1.27497035 3.37722015 -1 4 C-0.67 2.68 -0.34 1.36 0 0 Z " fill="#96753E" transform="translate(83,94)"/>
<path d="M0 0 C2.74386051 0.26132005 4.23660646 0.9402358 6.625 2.25 C7.9492287 2.61784131 9.28113912 2.96202981 10.625 3.25 C10.625 3.91 10.625 4.57 10.625 5.25 C7.325 5.25 4.025 5.25 0.625 5.25 C0.625 4.59 0.625 3.93 0.625 3.25 C-1.025 2.92 -2.675 2.59 -4.375 2.25 C-2.375 0.25 -2.375 0.25 0 0 Z " fill="#2C2216" transform="translate(86.375,99.75)"/>
<path d="M0 0 C1.32 0 2.64 0 4 0 C4 0.66 4 1.32 4 2 C3.34 2 2.68 2 2 2 C2.99 3.485 2.99 3.485 4 5 C3.625 7.1875 3.625 7.1875 3 9 C1.35 9 -0.3 9 -2 9 C-2 8.34 -2 7.68 -2 7 C-1.34 6.67 -0.68 6.34 0 6 C-0.2784375 4.7934375 -0.2784375 4.7934375 -0.5625 3.5625 C-0.706875 2.716875 -0.85125 1.87125 -1 1 C-0.67 0.67 -0.34 0.34 0 0 Z " fill="#3B3C3D" transform="translate(364,97)"/>
<path d="M0 0 C1.32 0 2.64 0 4 0 C3.67 2.64 3.34 5.28 3 8 C0.69 8 -1.62 8 -4 8 C-4 6.02 -4 4.04 -4 2 C-3.34 2 -2.68 2 -2 2 C-2 3.32 -2 4.64 -2 6 C-0.29159719 4.36587557 0.93453047 3.13093906 2 1 C1.34 0.67 0.68 0.34 0 0 Z " fill="#1F2021" transform="translate(380,98)"/>
<path d="M0 0 C5.28620124 0.41460402 8.17390997 1.28322682 12 5 C14.1519437 8.22791555 14.20086443 9.28400809 14 13 C13.608125 12.443125 13.21625 11.88625 12.8125 11.3125 C9.08076972 6.55132688 5.5617356 3.45751108 0 1 C0 0.67 0 0.34 0 0 Z " fill="#3F7C6E" transform="translate(148,86)"/>
<path d="M0 0 C3.35595828 0.59927826 5.37801226 1.84622436 8 4 C2.58461538 7.07692308 2.58461538 7.07692308 -0.375 6.6875 C-0.91125 6.460625 -1.4475 6.23375 -2 6 C-1.34 5.67 -0.68 5.34 0 5 C0 3.35 0 1.7 0 0 Z " fill="#76A298" transform="translate(139,107)"/>
<path d="M0 0 C2.1060986 0.25537572 4.20988754 0.52985374 6.3125 0.8125 C7.48425781 0.96332031 8.65601563 1.11414062 9.86328125 1.26953125 C12.99420274 1.99864995 14.09645193 2.49171464 16 5 C14.08404032 5.08133791 12.16708068 5.13934367 10.25 5.1875 C8.64898437 5.23970703 8.64898437 5.23970703 7.015625 5.29296875 C3.68511459 4.9694088 2.34242876 4.34811426 0 2 C0 1.34 0 0.68 0 0 Z " fill="#DE5058" transform="translate(175,36)"/>
<path d="M0 0 C2.97 0 5.94 0 9 0 C9 1.32 9 2.64 9 4 C6.36 4 3.72 4 1 4 C0.67 2.68 0.34 1.36 0 0 Z " fill="#898788" transform="translate(227,121)"/>
<path d="M0 0 C0 0.66 0 1.32 0 2 C-2.31 2 -4.62 2 -7 2 C-7.33 3.65 -7.66 5.3 -8 7 C-8.33 7 -8.66 7 -9 7 C-9 5.35 -9 3.7 -9 2 C-9.66 2 -10.32 2 -11 2 C-11 1.34 -11 0.68 -11 0 C-6.94952424 -1.35015859 -4.2079832 -0.62084998 0 0 Z " fill="#090909" transform="translate(170,37)"/>
<path d="M0 0 C2.64 0.33 5.28 0.66 8 1 C8 2.32 8 3.64 8 5 C5.69 5 3.38 5 1 5 C0.67 3.35 0.34 1.7 0 0 Z " fill="#908E8E" transform="translate(237,120)"/>
<path d="M0 0 C0.61875 0.28875 1.2375 0.5775 1.875 0.875 C6.15866124 2.41711805 10.52928212 3.18398547 15 4 C15 4.33 15 4.66 15 5 C8.90218999 5.22084624 3.78357065 5.01167675 -2 3 C-1.34 2.01 -0.68 1.02 0 0 Z " fill="#F37378" transform="translate(26,116)"/>
<path d="M0 0 C0.66 0 1.32 0 2 0 C1.67 3.63 1.34 7.26 1 11 C0.01 11.33 -0.98 11.66 -2 12 C-1.85831863 10.56208484 -1.71148957 9.1246763 -1.5625 7.6875 C-1.48128906 6.88699219 -1.40007812 6.08648437 -1.31640625 5.26171875 C-1 3 -1 3 0 0 Z " fill="#464747" transform="translate(350,94)"/>
<path d="M0 0 C0.66 0 1.32 0 2 0 C2 0.66 2 1.32 2 2 C2.66 2.33 3.32 2.66 4 3 C3.34 3 2.68 3 2 3 C2 5.31 2 7.62 2 10 C1.01 10 0.02 10 -1 10 C-1.02689216 8.52093108 -1.04634621 7.04172517 -1.0625 5.5625 C-1.07410156 4.73878906 -1.08570313 3.91507812 -1.09765625 3.06640625 C-1 1 -1 1 0 0 Z " fill="#323333" transform="translate(371,96)"/>
<path d="M0 0 C0 2.97 0 5.94 0 9 C-3 10 -3 10 -5.1875 9.0625 C-5.785625 8.711875 -6.38375 8.36125 -7 8 C-5.68 7.67 -4.36 7.34 -3 7 C-3.33 5.02 -3.66 3.04 -4 1 C-2 0 -2 0 0 0 Z " fill="#D7D8D8" transform="translate(370,98)"/>
<path d="M0 0 C2 2 2 2 2.25 5.875 C2.18064077 9.05396475 1.80254921 11.29617618 0 14 C-0.89214652 11.32356043 -1.13540211 9.74615622 -1.125 7 C-1.12757813 6.319375 -1.13015625 5.63875 -1.1328125 4.9375 C-1 3 -1 3 0 0 Z " fill="#6B9B90" transform="translate(162,96)"/>
<path d="M0 0 C2.375 0.25 2.375 0.25 5 1 C6.3125 3.0625 6.3125 3.0625 7 5 C5.02 5.99 5.02 5.99 3 7 C0 2.25 0 2.25 0 0 Z " fill="#E3A029" transform="translate(96,100)"/>
<path d="M0 0 C2.97 0 5.94 0 9 0 C9.33 1.98 9.66 3.96 10 6 C6.7 4.35 3.4 2.7 0 1 C0 0.67 0 0.34 0 0 Z " fill="#E2AF3A" transform="translate(277,89)"/>
<path d="M0 0 C1.79240663 0.11389875 3.58394835 0.24147687 5.375 0.375 C6.87160156 0.47941406 6.87160156 0.47941406 8.3984375 0.5859375 C11 1 11 1 13 3 C9.04 3 5.08 3 1 3 C0.67 2.01 0.34 1.02 0 0 Z " fill="#24A1A6" transform="translate(91,117)"/>
<path d="M0 0 C0.66 0 1.32 0 2 0 C3.11491267 3.34473801 2.80511271 5.60063522 2 9 C2 9.66 2 10.32 2 11 C1.01 11 0.02 11 -1 11 C-2.25 3.375 -2.25 3.375 0 0 Z " fill="#1F1F20" transform="translate(397,95)"/>
<path d="M0 0 C2.64 0 5.28 0 8 0 C8 1.65 8 3.3 8 5 C7.01 5.495 7.01 5.495 6 6 C6 5.01 6 4.02 6 3 C4.02 3 2.04 3 0 3 C0 2.01 0 1.02 0 0 Z " fill="#EEF4F8" transform="translate(408,91)"/>
<path d="M0 0 C1.2684375 0.495 1.2684375 0.495 2.5625 1 C7.87349246 2.54501599 12.65735957 2.29518556 18 1 C17.67 1.66 17.34 2.32 17 3 C13.89641197 4.03452934 11.74791979 4.10178935 8.5 4.0625 C7.5409375 4.05347656 6.581875 4.04445313 5.59375 4.03515625 C4.7378125 4.02355469 3.881875 4.01195312 3 4 C2.01 4 1.02 4 0 4 C0 2.68 0 1.36 0 0 Z " fill="#DF4950" transform="translate(176,29)"/>
<path d="M0 0 C2.54634201 1.11402463 3.51322983 2.57050623 5 4.875 C4.67 5.535 4.34 6.195 4 6.875 C1.03 5.225 -1.94 3.575 -5 1.875 C-2 -0.125 -2 -0.125 0 0 Z " fill="#DAE5E2" transform="translate(155,90.125)"/>
<path d="M0 0 C0.66 0 1.32 0 2 0 C2.33 1.32 2.66 2.64 3 4 C6.63 4.33 10.26 4.66 14 5 C14 5.33 14 5.66 14 6 C9.38 6.33 4.76 6.66 0 7 C0 4.69 0 2.38 0 0 Z " fill="#C64952" transform="translate(59,49)"/>
<path d="M0 0 C3.0916909 2.52956528 3.90931332 5.22454612 5 9 C4.01 8.67 3.02 8.34 2 8 C1.67 8.66 1.34 9.32 1 10 C-0.1577506 6.52674819 -0.06866652 3.63932552 0 0 Z " fill="#CDD4E4" transform="translate(177,99)"/>
<path d="M0 0 C0.66 0.33 1.32 0.66 2 1 C2 3.97 2 6.94 2 10 C1.01 10 0.02 10 -1 10 C-0.67 6.7 -0.34 3.4 0 0 Z " fill="#2B221A" transform="translate(98,107)"/>
<path d="M0 0 C2.38202314 0.69717751 4.39796142 1.54747857 6.5625 2.75 C5.9025 3.41 5.2425 4.07 4.5625 4.75 C3.964375 4.42 3.36625 4.09 2.75 3.75 C0.50863529 2.54212012 0.50863529 2.54212012 -2.4375 2.75 C-3.0975 3.41 -3.7575 4.07 -4.4375 4.75 C-4.7675 3.76 -5.0975 2.77 -5.4375 1.75 C-2.4375 -0.25 -2.4375 -0.25 0 0 Z " fill="#6F9D92" transform="translate(140.4375,92.25)"/>
<path d="M0 0 C0.66 0 1.32 0 2 0 C2.33 2.64 2.66 5.28 3 8 C1.68 8 0.36 8 -1 8 C-1.33 8.99 -1.66 9.98 -2 11 C-1 3.57142857 -1 3.57142857 0 0 Z " fill="#D3D3D3" transform="translate(135,40)"/>
<path d="M0 0 C0.33 0 0.66 0 1 0 C1 1.98 1 3.96 1 6 C5.29 6 9.58 6 14 6 C14 6.33 14 6.66 14 7 C13.08476563 7.06058594 12.16953125 7.12117188 11.2265625 7.18359375 C10.03804687 7.26738281 8.84953125 7.35117187 7.625 7.4375 C5.84996094 7.55931641 5.84996094 7.55931641 4.0390625 7.68359375 C1.08481099 7.81084936 1.08481099 7.81084936 -1 9 C-0.67 6.03 -0.34 3.06 0 0 Z " fill="#D71D26" transform="translate(42,37)"/>
<path d="M0 0 C4.29 0.33 8.58 0.66 13 1 C10.40664095 3.59335905 8.51252968 3.27726563 4.97265625 3.36328125 C3 3 3 3 0 0 Z " fill="#377767" transform="translate(138,118)"/>
<path d="M0 0 C0.66 0 1.32 0 2 0 C2 1.32 2 2.64 2 4 C-0.97 4 -3.94 4 -7 4 C-6.67 3.01 -6.34 2.02 -6 1 C-4.7934375 1.0309375 -4.7934375 1.0309375 -3.5625 1.0625 C-1.06645115 1.29633621 -1.06645115 1.29633621 0 0 Z " fill="#8A8A8A" transform="translate(376,109)"/>
<path d="M0 0 C0.7425 0.0825 1.485 0.165 2.25 0.25 C2.58 0.91 2.91 1.57 3.25 2.25 C-3.375 5.375 -3.375 5.375 -6.75 4.25 C-3.42692308 0.31153846 -3.42692308 0.31153846 0 0 Z " fill="#E7BB71" transform="translate(91.75,86.75)"/>
<path d="M0 0 C1.68762851 1.6454378 3.3540349 3.31288577 5 5 C5 5.33 5 5.66 5 6 C2.75 6.25 2.75 6.25 0 6 C-2.3125 4 -2.3125 4 -4 2 C-2.68 2.33 -1.36 2.66 0 3 C0 2.01 0 1.02 0 0 Z " fill="#F04A51" transform="translate(22,112)"/>
<path d="M0 0 C0.99 0.66 1.98 1.32 3 2 C0.36 3.98 -2.28 5.96 -5 8 C-3.95206337 3.80825346 -3.08236365 2.78407039 0 0 Z " fill="#E69014" transform="translate(107,102)"/>
<path d="M0 0 C1.35158203 0.15275391 1.35158203 0.15275391 2.73046875 0.30859375 C3.41753906 0.39238281 4.10460937 0.47617187 4.8125 0.5625 C4.4825 1.2225 4.1525 1.8825 3.8125 2.5625 C2.3754191 2.61672947 0.93774538 2.65539723 -0.5 2.6875 C-1.30050781 2.71070313 -2.10101563 2.73390625 -2.92578125 2.7578125 C-5.1875 2.5625 -5.1875 2.5625 -8.1875 0.5625 C-4.98734144 -0.50421952 -3.30205706 -0.38595472 0 0 Z " fill="#EFC0C0" transform="translate(185.1875,35.4375)"/>
<path d="M0 0 C2.475 0.495 2.475 0.495 5 1 C5 1.66 5 2.32 5 3 C5.66 3 6.32 3 7 3 C7 3.66 7 4.32 7 5 C4.69 4.67 2.38 4.34 0 4 C0 2.68 0 1.36 0 0 Z " fill="#929292" transform="translate(346,109)"/>
<path d="M0 0 C0.66 0.33 1.32 0.66 2 1 C1.67 3.31 1.34 5.62 1 8 C0.34 8 -0.32 8 -1 8 C-1 7.01 -1 6.02 -1 5 C-1.66 5 -2.32 5 -3 5 C-1.125 1.125 -1.125 1.125 0 0 Z " fill="#454545" transform="translate(118,45)"/>
<path d="M0 0 C0.66 0.33 1.32 0.66 2 1 C1.75 2.875 1.75 2.875 1 5 C-0.8125 6.375 -0.8125 6.375 -3 7 C-5.25 6.125 -5.25 6.125 -7 5 C-5.5459375 4.5978125 -5.5459375 4.5978125 -4.0625 4.1875 C-3.051875 3.795625 -2.04125 3.40375 -1 3 C-0.67 2.01 -0.34 1.02 0 0 Z " fill="#EF4249" transform="translate(68,107)"/>
<path d="M0 0 C2.31 0 4.62 0 7 0 C7 0.99 7 1.98 7 3 C4.69 3 2.38 3 0 3 C0 2.01 0 1.02 0 0 Z " fill="#FCFDFD" transform="translate(407,99)"/>
<path d="M0 0 C0.66 0 1.32 0 2 0 C0.515 6.435 0.515 6.435 -1 13 C-1.33 13 -1.66 13 -2 13 C-2.16682272 8.07872966 -2.24828052 4.49656104 0 0 Z " fill="#377768" transform="translate(130,93)"/>
<path d="M0 0 C0.99 0 1.98 0 3 0 C2.67 3.3 2.34 6.6 2 10 C1.67 10 1.34 10 1 10 C0.855625 9.2575 0.71125 8.515 0.5625 7.75 C0.21921582 6.07172178 -0.16651881 4.40053228 -0.625 2.75 C-0.74875 2.1725 -0.8725 1.595 -1 1 C-0.67 0.67 -0.34 0.34 0 0 Z " fill="#E06E72" transform="translate(97,36)"/>
<path d="M0 0 C0.66 0 1.32 0 2 0 C1.42655063 2.86724686 1.1385485 3.8614515 -1 6 C-1.99 6 -2.98 6 -4 6 C-4 5.01 -4 4.02 -4 3 C-3.01 3 -2.02 3 -1 3 C-0.67 2.01 -0.34 1.02 0 0 Z " fill="#193A83" transform="translate(197,112)"/>
<path d="M0 0 C2.15377564 2.62198774 3.40072174 4.64404172 4 8 C3.01 8 2.02 8 1 8 C-0.42944945 5.64561267 -1.08661261 4.51967567 -0.625 1.75 C-0.41875 1.1725 -0.2125 0.595 0 0 Z " fill="#C7CFE0" transform="translate(189,110)"/>
<path d="M0 0 C2.7839183 1.39195915 2.97898997 3.15575779 4 6 C3.01 6 2.02 6 1 6 C1 6.66 1 7.32 1 8 C0.34 8 -0.32 8 -1 8 C-0.67 5.36 -0.34 2.72 0 0 Z " fill="#D7D7D7" transform="translate(361,98)"/>
<path d="M0 0 C1.32 0 2.64 0 4 0 C3.67 2.31 3.34 4.62 3 7 C2.01 6.34 1.02 5.68 0 5 C-0.1875 2.375 -0.1875 2.375 0 0 Z " fill="#E16A71" transform="translate(81,36)"/>
<path d="M0 0 C1.98 0.495 1.98 0.495 4 1 C2.515 4.465 2.515 4.465 1 8 C0.34 7.67 -0.32 7.34 -1 7 C-0.67 4.69 -0.34 2.38 0 0 Z " fill="#E3282F" transform="translate(43,30)"/>
<path d="M0 0 C0.66 0.33 1.32 0.66 2 1 C1.34 2.98 0.68 4.96 0 7 C-0.66 6.34 -1.32 5.68 -2 5 C-2.66 5.99 -3.32 6.98 -4 8 C-3.50168276 4.31245243 -2.89932357 2.39509338 0 0 Z " fill="#3F3F3F" transform="translate(108,30)"/>
<path d="M0 0 C2.49361571 1.20381448 4.68143083 2.45428722 7 4 C6.67 4.66 6.34 5.32 6 6 C3.11562221 4.70700306 1.12780579 3.34058637 -1 1 C-0.67 0.67 -0.34 0.34 0 0 Z " fill="#568C7F" transform="translate(133,114)"/>
<path d="M0 0 C0 0.66 0 1.32 0 2 C-4.01804691 2.84098656 -7.01803543 3.05404945 -11 2 C-11 1.67 -11 1.34 -11 1 C-7.26513121 0.4254048 -3.78706732 0 0 0 Z " fill="#158F91" transform="translate(108,116)"/>
<path d="M0 0 C0.763125 0.0825 1.52625 0.165 2.3125 0.25 C2.3125 1.24 2.3125 2.23 2.3125 3.25 C-0.3275 3.58 -2.9675 3.91 -5.6875 4.25 C-3.34903846 0.31153846 -3.34903846 0.31153846 0 0 Z " fill="#774E1C" transform="translate(113.6875,98.75)"/>
<path d="M0 0 C1.8871875 0.061875 1.8871875 0.061875 3.8125 0.125 C3.8125 0.785 3.8125 1.445 3.8125 2.125 C2.1625 2.455 0.5125 2.785 -1.1875 3.125 C-1.1875 2.465 -1.1875 1.805 -1.1875 1.125 C-3.1675 1.455 -5.1475 1.785 -7.1875 2.125 C-4.09861478 0.06574319 -3.47814073 -0.1140374 0 0 Z " fill="#F26268" transform="translate(33.1875,98.875)"/>
<path d="M0 0 C0.33 0 0.66 0 1 0 C1 1.98 1 3.96 1 6 C-0.32 6 -1.64 6 -3 6 C-3 4.68 -3 3.36 -3 2 C-2.01 2 -1.02 2 0 2 C0 1.34 0 0.68 0 0 Z " fill="#767373" transform="translate(265,119)"/>
<path d="M0 0 C0.99 0.33 1.98 0.66 3 1 C2.67 3.31 2.34 5.62 2 8 C1.34 8 0.68 8 0 8 C0 5.36 0 2.72 0 0 Z " fill="#2C2C2D" transform="translate(353,98)"/>
<path d="M0 0 C0.78375 0.04125 1.5675 0.0825 2.375 0.125 C2.705 0.785 3.035 1.445 3.375 2.125 C3.045 3.115 2.715 4.105 2.375 5.125 C1.715 4.795 1.055 4.465 0.375 4.125 C0.375 3.795 0.375 3.465 0.375 3.125 C-1.275 2.795 -2.925 2.465 -4.625 2.125 C-2.625 0.125 -2.625 0.125 0 0 Z " fill="#432F17" transform="translate(86.625,99.875)"/>
<path d="M0 0 C0.66 0 1.32 0 2 0 C2 0.66 2 1.32 2 2 C2.66 2 3.32 2 4 2 C5.09658936 5.28976808 4.79953138 6.71303767 4 10 C1.2027092 7.93243723 0.97307727 6.85559629 0.3125 3.3125 C0.209375 2.219375 0.10625 1.12625 0 0 Z " fill="#99999A" transform="translate(372,95)"/>
<path d="M0 0 C-2 2 -2 2 -5.625 2.125 C-6.73875 2.08375 -7.8525 2.0425 -9 2 C-9 1.34 -9 0.68 -9 0 C-3.375 -1.125 -3.375 -1.125 0 0 Z " fill="#25448A" transform="translate(200,94)"/>
<path d="M0 0 C0.33 0 0.66 0 1 0 C0.67 3.3 0.34 6.6 0 10 C-0.99 10.33 -1.98 10.66 -3 11 C-3 10.34 -3 9.68 -3 9 C-2.34 9 -1.68 9 -1 9 C-1.33 7.02 -1.66 5.04 -2 3 C-1.34 3 -0.68 3 0 3 C0 2.01 0 1.02 0 0 Z " fill="#FBFCFC" transform="translate(402,91)"/>
<path d="M0 0 C0.66 0 1.32 0 2 0 C1.67 2.31 1.34 4.62 1 7 C0.01 7 -0.98 7 -2 7 C-2.33 6.34 -2.66 5.68 -3 5 C-1.6875 2.375 -1.6875 2.375 0 0 Z " fill="#E4EAF3" transform="translate(298,89)"/>
<path d="M0 0 C1.5625 1.1875 1.5625 1.1875 3 3 C2.6875 5.6875 2.6875 5.6875 2 8 C1.01 8 0.02 8 -1 8 C-0.67 5.36 -0.34 2.72 0 0 Z " fill="#4C4C4C" transform="translate(101,50)"/>
<path d="M0 0 C0.33 0 0.66 0 1 0 C0.67 2.64 0.34 5.28 0 8 C-2.50037734 5.82575883 -3.43628586 4.26954202 -4 1 C-2.68 1.33 -1.36 1.66 0 2 C0 1.34 0 0.68 0 0 Z " fill="#3B3B3B" transform="translate(134,39)"/>
<path d="M0 0 C0 0.99 0 1.98 0 3 C-1.65 3 -3.3 3 -5 3 C-5.33 2.01 -5.66 1.02 -6 0 C-3 -1 -3 -1 0 0 Z " fill="#244389" transform="translate(191,118)"/>
<path d="M0 0 C0.66 0 1.32 0 2 0 C1.67 2.64 1.34 5.28 1 8 C0.34 8 -0.32 8 -1 8 C-0.67 5.36 -0.34 2.72 0 0 Z " fill="#D0D1D1" transform="translate(384,98)"/>
</svg>
