<?xml version="1.0" encoding="UTF-8"?>
<svg version="1.1" xmlns="http://www.w3.org/2000/svg" width="474" height="266">
<path d="M0 0 C156.42 0 312.84 0 474 0 C474 87.78 474 175.56 474 266 C317.58 266 161.16 266 0 266 C0 178.22 0 90.44 0 0 Z " fill="#665BFD" transform="translate(0,0)"/>
<path d="M0 0 C12.98780355 8.98205436 20.15497875 20.00572097 23.45703125 35.4921875 C26.98677044 55.61729002 24.79399161 77.93419709 12.98046875 95.02734375 C6.84823185 102.80285982 -0.98299698 108.42849496 -10.8125 110.30078125 C-23.00148178 111.12145221 -31.19900549 109.66887796 -41.8125 103.30078125 C-41.8125 114.85078125 -41.8125 126.40078125 -41.8125 138.30078125 C-46.8286494 140.30724101 -51.48332998 141.39009232 -56.75 142.42578125 C-58.07161133 142.69841797 -58.07161133 142.69841797 -59.41992188 142.9765625 C-60.7105957 143.23373047 -60.7105957 143.23373047 -62.02734375 143.49609375 C-62.80198975 143.65094238 -63.57663574 143.80579102 -64.37475586 143.96533203 C-66.8125 144.30078125 -66.8125 144.30078125 -72.8125 144.30078125 C-72.8125 95.79078125 -72.8125 47.28078125 -72.8125 -2.69921875 C-63.5725 -2.69921875 -54.3325 -2.69921875 -44.8125 -2.69921875 C-44.1525 -0.38921875 -43.4925 1.92078125 -42.8125 4.30078125 C-42.3278125 3.90246094 -41.843125 3.50414063 -41.34375 3.09375 C-29.23184447 -6.47931379 -13.60543852 -8.21995244 0 0 Z " fill="#FCFCFC" transform="translate(340.8125,82.69921875)"/>
<path d="M0 0 C12.4430148 9.49385869 18.23424477 22.76811253 20.6875 37.875 C20.6875 45.795 20.6875 53.715 20.6875 61.875 C0.2275 61.875 -20.2325 61.875 -41.3125 61.875 C-37.99108941 72.69481221 -37.99108941 72.69481221 -29.875 78.5625 C-17.07085927 83.27981501 -2.92855753 80.71001449 9.4453125 75.6796875 C11.6875 74.875 11.6875 74.875 14.6875 74.875 C14.6875 83.125 14.6875 91.375 14.6875 99.875 C-2.25768098 108.34759049 -22.27015123 111.6472536 -40.8828125 105.84765625 C-48.29382245 102.88086931 -54.8544946 98.77916388 -60.3125 92.875 C-60.3125 92.215 -60.3125 91.555 -60.3125 90.875 C-61.3025 90.545 -62.2925 90.215 -63.3125 89.875 C-73.26654553 74.1403499 -76.04581503 53.79739717 -72.62890625 35.58984375 C-68.86751014 20.49743697 -62.00720544 7.94415094 -49.0625 -1.0625 C-33.92127183 -10.01630857 -14.72280679 -9.53713212 0 0 Z " fill="#FCFBFC" transform="translate(444.3125,85.125)"/>
<path d="M0 0 C11.90056595 -0.30894512 22.21890656 1.8901117 33.63671875 5.15234375 C33.63671875 15.05234375 33.63671875 24.95234375 33.63671875 35.15234375 C23.63671875 32.15234375 23.63671875 32.15234375 20.52734375 31.203125 C11.37656939 28.64469844 1.9536189 27.99291269 -7.36328125 30.15234375 C-7.78099929 33.4843456 -7.78099929 33.4843456 -7.36328125 37.15234375 C-4.11863922 40.27623109 -0.87138695 41.97569836 3.3125 43.5546875 C4.38822266 43.97041016 5.46394531 44.38613281 6.57226562 44.81445312 C7.68666016 45.23533203 8.80105469 45.65621094 9.94921875 46.08984375 C17.30607958 48.87177768 24.22229445 51.53489581 30.63671875 56.15234375 C30.63671875 56.81234375 30.63671875 57.47234375 30.63671875 58.15234375 C31.55904297 58.52746094 31.55904297 58.52746094 32.5 58.91015625 C35.00531308 60.36662711 35.62274625 61.42823997 36.82421875 64.02734375 C37.14777344 64.70539063 37.47132812 65.3834375 37.8046875 66.08203125 C41.14737734 74.39952241 41.01083179 85.84206115 37.68359375 94.16015625 C32.50488763 104.0151567 24.29632351 110.5926908 13.69921875 113.90234375 C-3.86491187 117.90122129 -23.28496903 116.19149986 -39.36328125 108.15234375 C-39.36328125 98.25234375 -39.36328125 88.35234375 -39.36328125 78.15234375 C-37.71328125 78.81234375 -36.06328125 79.47234375 -34.36328125 80.15234375 C-32.07542828 80.99609095 -29.78344672 81.82869575 -27.48828125 82.65234375 C-26.31523437 83.07515625 -25.1421875 83.49796875 -23.93359375 83.93359375 C-17.65406896 86.07715145 -12.35295366 87.4293495 -5.67578125 87.40234375 C-4.39316406 87.4075 -3.11054687 87.41265625 -1.7890625 87.41796875 C1.35287609 87.17435208 3.13071035 87.01813103 5.63671875 85.15234375 C6.80835545 81.78474188 6.80835545 81.78474188 6.63671875 78.15234375 C4.07391886 74.99702511 1.62301239 73.46293772 -2.14453125 72.0390625 C-3.06371338 71.68175049 -3.98289551 71.32443848 -4.92993164 70.95629883 C-5.89793701 70.58786865 -6.86594238 70.21943848 -7.86328125 69.83984375 C-30.74136964 60.78599371 -30.74136964 60.78599371 -36.36328125 52.15234375 C-36.36328125 51.49234375 -36.36328125 50.83234375 -36.36328125 50.15234375 C-37.02328125 50.15234375 -37.68328125 50.15234375 -38.36328125 50.15234375 C-41.72606835 41.37173298 -41.59950761 30.97841563 -38.36328125 22.15234375 C-33.20671282 11.330335 -26.31239105 6.4079513 -15.29296875 2.12109375 C-10.11965668 0.41045189 -5.40531683 0.24484013 0 0 Z " fill="#FBFAFB" transform="translate(49.36328125,77.84765625)"/>
<path d="M0 0 C0 8.91 0 17.82 0 27 C7.92 27 15.84 27 24 27 C24 36.24 24 45.48 24 55 C16.08 55 8.16 55 0 55 C0.0739982 62.02982907 0.1568314 69.05838566 0.26245117 76.08764648 C0.29569167 78.47852983 0.32372629 80.86949148 0.34643555 83.26049805 C0.37999683 86.69874419 0.43231524 90.13627329 0.48828125 93.57421875 C0.49467117 94.64210129 0.5010611 95.70998383 0.50764465 96.81022644 C0.55588001 103.92934169 0.55588001 103.92934169 4 110 C6.296537 111.1482685 7.58313167 111.11561175 10.1328125 111.09765625 C10.85871582 111.09515869 11.58461914 111.09266113 12.33251953 111.09008789 C13.25403809 111.08098389 14.17555664 111.07187988 15.125 111.0625 C19.518125 111.0315625 19.518125 111.0315625 24 111 C24 119.58 24 128.16 24 137 C16.3165941 139.09547434 10.60576534 140.53293999 2.9375 140.4375 C1.63280762 140.42505249 1.63280762 140.42505249 0.30175781 140.41235352 C-8.97712808 140.16775999 -16.36208772 137.89509808 -23.05599976 131.19134521 C-33.35269569 119.58454865 -31.78125857 106.17339188 -31.5859375 91.546875 C-31.57473193 89.07538894 -31.56619818 86.60388946 -31.56021118 84.13238525 C-31.53742054 77.66142279 -31.47858051 71.19128223 -31.4119873 64.72064209 C-31.35035422 58.10423904 -31.32315131 51.48770179 -31.29296875 44.87109375 C-31.22882865 31.91371404 -31.1277382 18.95690096 -31 6 C-26.96107521 4.98869985 -22.91846561 3.99297496 -18.875 3 C-17.16183594 2.57074219 -17.16183594 2.57074219 -15.4140625 2.1328125 C-14.30546875 1.86210938 -13.196875 1.59140625 -12.0546875 1.3125 C-10.53077393 0.93544922 -10.53077393 0.93544922 -8.97607422 0.55078125 C-6 0 -6 0 0 0 Z " fill="#FBFAFC" transform="translate(127,53)"/>
<path d="M0 0 C0 9.57 0 19.14 0 29 C-4.62 29.33 -9.24 29.66 -14 30 C-18.88927269 31.87543178 -18.88927269 31.87543178 -23 34 C-23.33 59.41 -23.66 84.82 -24 111 C-34.56 111 -45.12 111 -56 111 C-56 74.37 -56 37.74 -56 0 C-46.76 0 -37.52 0 -28 0 C-27.34 2.31 -26.68 4.62 -26 7 C-25.48050781 6.59007813 -24.96101563 6.18015625 -24.42578125 5.7578125 C-16.7843799 -0.1462647 -9.68694103 -3.22898034 0 0 Z " fill="#FDFDFC" transform="translate(216,80)"/>
<path d="M0 0 C10.56 0 21.12 0 32 0 C32 36.63 32 73.26 32 111 C21.44 111 10.88 111 0 111 C0 74.37 0 37.74 0 0 Z " fill="#FBFBFC" transform="translate(224,80)"/>
<path d="M0 0 C7.29126121 3.92606373 10.65738906 8.70919625 13.125 16.4765625 C16.11948823 28.24656485 14.71178709 40.43646011 8.8984375 51.10546875 C6.57863563 54.60998228 4.44067793 56.87657748 0.4375 58.3125 C-6.08311792 59.20645568 -11.97865278 59.13302704 -17.5625 55.3125 C-20.0327559 52.8422441 -19.81848919 52.12732115 -19.8371582 48.72680664 C-19.84669022 47.77564468 -19.85622223 46.82448273 -19.86604309 45.84449768 C-19.86513168 44.81429001 -19.86422028 43.78408234 -19.86328125 42.72265625 C-19.86756638 41.66719101 -19.8718515 40.61172577 -19.87626648 39.52427673 C-19.88201705 37.28905963 -19.88250472 35.05382382 -19.87817383 32.81860352 C-19.87501605 29.39241695 -19.89845706 25.9670952 -19.92382812 22.54101562 C-19.92610119 20.37239693 -19.92680458 18.2037759 -19.92578125 16.03515625 C-19.934991 15.00697281 -19.94420074 13.97878937 -19.95368958 12.91944885 C-19.94746078 11.96513474 -19.94123199 11.01082062 -19.93481445 10.02758789 C-19.93575859 8.76755699 -19.93575859 8.76755699 -19.9367218 7.48207092 C-19.47151384 4.78500287 -18.69714659 3.9781452 -16.5625 2.3125 C-10.87713081 -0.63951862 -6.2610509 -1.67979414 0 0 Z " fill="#655BFC" transform="translate(319.5625,106.6875)"/>
<path d="M0 0 C0.309375 0.639375 0.61875 1.27875 0.9375 1.9375 C1.8345163 3.93610821 1.8345163 3.93610821 3 5 C3.09532328 8.07454761 3.1255138 11.12659158 3.11352539 14.20141602 C3.11367142 15.16716553 3.11381744 16.13291504 3.1139679 17.12792969 C3.11326834 20.33661099 3.10547397 23.54523503 3.09765625 26.75390625 C3.09579222 28.97208118 3.09436825 31.19025652 3.09336853 33.40843201 C3.08954216 39.25940071 3.07971086 45.11034477 3.06866455 50.96130371 C3.05845299 56.92667304 3.05387146 62.89204633 3.04882812 68.85742188 C3.03808869 80.57162544 3.02101085 92.28581067 3 104 C2.67 104 2.34 104 2 104 C1.67 102.02 1.34 100.04 1 98 C0.67 98 0.34 98 0 98 C-0.10957031 98.92941406 -0.21914062 99.85882813 -0.33203125 100.81640625 C-1.80224357 112.27928119 -4.24067829 120.86634412 -13 129 C-13.66 128.67 -14.32 128.34 -15 128 C-14.52949219 127.49210937 -14.05898437 126.98421875 -13.57421875 126.4609375 C-5.37313539 117.39390124 -3.49020554 109.92049308 -3.71875 97.8046875 C-4.3011819 89.92567812 -7.29051969 83.51856572 -13 78 C-15.4152891 76.49571633 -17.63414948 75.2550753 -20.1875 74.0625 C-21.21568848 73.56218262 -21.21568848 73.56218262 -22.26464844 73.05175781 C-28.38147145 70.14068986 -34.67415002 67.690487 -41.05932617 65.43383789 C-45.16591092 63.9362182 -48.34696244 62.6690945 -51 59 C-50.75 55.25 -50.75 55.25 -50 52 C-39.20191122 46.98230075 -26.74440031 50.38630406 -16 54 C-13.69 54.99 -11.38 55.98 -9 57 C-9 47.1 -9 37.2 -9 27 C-12.63 26.34 -16.26 25.68 -20 25 C-21.7325 24.62875 -23.465 24.2575 -25.25 23.875 C-36.23405347 21.90069082 -47.13829502 22.75218492 -58 25 C-58.93585937 25.18691406 -59.87171875 25.37382813 -60.8359375 25.56640625 C-61.55007812 25.70949219 -62.26421875 25.85257813 -63 26 C-63 25.01 -63 24.02 -63 23 C-54.32026399 20.68034774 -45.77326831 20.76668392 -36.875 20.875 C-35.42708956 20.88505493 -33.97917232 20.89417632 -32.53125 20.90234375 C-29.02068963 20.92414656 -25.51038972 20.95853619 -22 21 C-22 21.66 -22 22.32 -22 23 C-21.30132812 22.98839844 -20.60265625 22.97679688 -19.8828125 22.96484375 C-18.51769531 22.95130859 -18.51769531 22.95130859 -17.125 22.9375 C-15.76761719 22.92009766 -15.76761719 22.92009766 -14.3828125 22.90234375 C-12 23 -12 23 -10 24 C-10 24.66 -10 25.32 -10 26 C-9.35289063 26.2371875 -8.70578125 26.474375 -8.0390625 26.71875 C-6 28 -6 28 -5.4609375 30.09375 C-5.43257812 30.8878125 -5.40421875 31.681875 -5.375 32.5 C-5.32894354 36.19538385 -5.32894354 36.19538385 -3 39 C-2.68408564 41.78763432 -2.48420909 44.49172126 -2.3671875 47.2890625 C-2.32562531 48.10748627 -2.28406311 48.92591003 -2.24124146 49.76913452 C-2.11031675 52.38741011 -1.99251512 55.00609159 -1.875 57.625 C-1.78862293 59.39847972 -1.70139412 61.17191817 -1.61328125 62.9453125 C-1.3989619 67.2964575 -1.19641104 71.64801133 -1 76 C-0.97433035 68.90568834 -0.95700126 61.81138895 -0.94506836 54.71704102 C-0.94008581 52.31111198 -0.93329735 49.90518591 -0.92456055 47.49926758 C-0.88072753 35.10483823 -0.84023577 22.80148987 -1.97875977 10.45092773 C-2.00308351 6.49901797 -1.25081927 3.72500006 0 0 Z " fill="#665BF7" transform="translate(92,56)"/>
<path d="M0 0 C0 8.58 0 17.16 0 26 C-3.42375 26.78375 -6.8475 27.5675 -10.375 28.375 C-11.43251465 28.61782715 -12.4900293 28.8606543 -13.57958984 29.11083984 C-14.44793457 29.30887207 -15.3162793 29.5069043 -16.2109375 29.7109375 C-17.08024902 29.90993652 -17.94956055 30.10893555 -18.84521484 30.31396484 C-23.21841262 31.2649543 -27.61150546 32.12230109 -32 33 C-32 24.42 -32 15.84 -32 7 C-20.74269595 3.62280879 -20.74269595 3.62280879 -16.71875 2.83203125 C-15.85765625 2.66123047 -14.9965625 2.49042969 -14.109375 2.31445312 C-13.24828125 2.14880859 -12.3871875 1.98316406 -11.5 1.8125 C-10.60796875 1.63525391 -9.7159375 1.45800781 -8.796875 1.27539062 C-2.29681467 0 -2.29681467 0 0 0 Z " fill="#F8F8FC" transform="translate(256,38)"/>
<path d="M0 0 C1.44791044 0.01005493 2.89582768 0.01917632 4.34375 0.02734375 C7.85431037 0.04914656 11.36461028 0.08353619 14.875 0.125 C14.875 0.785 14.875 1.445 14.875 2.125 C15.57367188 2.11339844 16.27234375 2.10179688 16.9921875 2.08984375 C18.35730469 2.07630859 18.35730469 2.07630859 19.75 2.0625 C21.10738281 2.04509766 21.10738281 2.04509766 22.4921875 2.02734375 C24.875 2.125 24.875 2.125 26.875 3.125 C26.875 3.785 26.875 4.445 26.875 5.125 C28.195 5.785 29.515 6.445 30.875 7.125 C30.86976318 7.99302246 30.86452637 8.86104492 30.85913086 9.75537109 C30.84210138 12.97200273 30.82955592 16.18861141 30.82006836 19.40527344 C30.8150357 20.79818477 30.80820902 22.1910908 30.79956055 23.58398438 C30.78744848 25.58461246 30.78229588 27.58527888 30.77734375 29.5859375 C30.77210693 30.79040527 30.76687012 31.99487305 30.76147461 33.23583984 C30.67412109 36.0663677 30.67412109 36.0663677 31.875 38.125 C31.215 38.125 30.555 38.125 29.875 38.125 C29.875 38.785 29.875 39.445 29.875 40.125 C28.225 40.125 26.575 40.125 24.875 40.125 C24.875 38.805 24.875 37.485 24.875 36.125 C23.92625 36.16625 22.9775 36.2075 22 36.25 C18.875 36.125 18.875 36.125 16.875 34.125 C14.67249008 33.66493654 14.67249008 33.66493654 12.25 33.5 C11.43273437 33.42523438 10.61546875 33.35046875 9.7734375 33.2734375 C9.14695313 33.22445312 8.52046875 33.17546875 7.875 33.125 C7.875 32.795 7.875 32.465 7.875 32.125 C5.41601345 32.04423037 2.95966258 31.98462857 0.5 31.9375 C-0.19867188 31.91236328 -0.89734375 31.88722656 -1.6171875 31.86132812 C-3.89247677 31.79521439 -3.89247677 31.79521439 -7.125 32.125 C-9.0701 35.04265 -9.57776317 36.75037285 -10.125 40.125 C-9.0525 40.41375 -7.98 40.7025 -6.875 41 C-3.125 42.125 -3.125 42.125 -1.40234375 43.0703125 C2.60361482 44.92555918 7.00111687 45.66330789 11.29492188 46.625 C13.16968864 47.06652741 15.02479532 47.58979955 16.875 48.125 C17.205 48.785 17.535 49.445 17.875 50.125 C18.865 50.455 19.855 50.785 20.875 51.125 C20.875 52.115 20.875 53.105 20.875 54.125 C21.82375 54.434375 22.7725 54.74375 23.75 55.0625 C26.875 56.125 26.875 56.125 28.875 57.125 C29.5 59.6875 29.5 59.6875 29.875 62.125 C30.535 62.125 31.195 62.125 31.875 62.125 C32.54854499 63.55929001 33.21359701 64.99757057 33.875 66.4375 C34.24625 67.23800781 34.6175 68.03851563 35 68.86328125 C35.875 71.125 35.875 71.125 35.875 74.125 C36.535 73.795 37.195 73.465 37.875 73.125 C38.205 52.665 38.535 32.205 38.875 11.125 C39.205 11.125 39.535 11.125 39.875 11.125 C39.875 34.885 39.875 58.645 39.875 83.125 C39.545 83.125 39.215 83.125 38.875 83.125 C38.545 81.145 38.215 79.165 37.875 77.125 C37.545 77.125 37.215 77.125 36.875 77.125 C36.76542969 78.05441406 36.65585938 78.98382813 36.54296875 79.94140625 C35.07275643 91.40428119 32.63432171 99.99134412 23.875 108.125 C22.885 107.63 22.885 107.63 21.875 107.125 C22.34550781 106.61710937 22.81601563 106.10921875 23.30078125 105.5859375 C31.50186461 96.51890124 33.38479446 89.04549308 33.15625 76.9296875 C32.5738181 69.05067812 29.58448031 62.64356572 23.875 57.125 C21.4597109 55.62071633 19.24085052 54.3800753 16.6875 53.1875 C16.00204102 52.85395508 15.31658203 52.52041016 14.61035156 52.17675781 C8.49352855 49.26568986 2.20084998 46.815487 -4.18432617 44.55883789 C-8.29091092 43.0612182 -11.47196244 41.7940945 -14.125 38.125 C-13.875 34.375 -13.875 34.375 -13.125 31.125 C-2.32691122 26.10730075 10.13059969 29.51130406 20.875 33.125 C23.185 34.115 25.495 35.105 27.875 36.125 C27.875 26.225 27.875 16.325 27.875 6.125 C24.245 5.465 20.615 4.805 16.875 4.125 C15.1425 3.75375 13.41 3.3825 11.625 3 C0.64094653 1.02569082 -10.26329502 1.87718492 -21.125 4.125 C-22.06085937 4.31191406 -22.99671875 4.49882813 -23.9609375 4.69140625 C-24.67507812 4.83449219 -25.38921875 4.97757812 -26.125 5.125 C-26.125 4.135 -26.125 3.145 -26.125 2.125 C-17.44526399 -0.19465226 -8.89826831 -0.10831608 0 0 Z " fill="#6961D2" transform="translate(55.125,76.875)"/>
<path d="M0 0 C4.86979684 2.38895694 7.31913003 5.33330042 10 10 C11 13 11 13 11 20 C0.44 20 -10.12 20 -21 20 C-21 10.55172414 -21 10.55172414 -18 6 C-12.38756624 0.81929191 -7.57542019 -1.05397151 0 0 Z " fill="#665AF9" transform="translate(424,104)"/>
<path d="M0 0 C0.33 0 0.66 0 1 0 C1 48.51 1 97.02 1 147 C16.50750319 144.03825212 16.50750319 144.03825212 32 141 C32 129.45 32 117.9 32 106 C37 108 37 108 39.11328125 109.0703125 C48.31607259 113.48372931 59.27740157 113.57160497 68.9375 110.4375 C77.68398253 106.69463585 83.81213556 100.85734808 89 93 C89.556875 92.21625 90.11375 91.4325 90.6875 90.625 C92.69951444 86.60097112 93.81480593 82.32890034 95 78 C95.33 78 95.66 78 96 78 C95 86.57142857 95 86.57142857 94 90 C93.34 90 92.68 90 92 90 C91.9175 90.66 91.835 91.32 91.75 92 C90.14372788 98.42508847 87.21460193 103.80288137 82 108 C79.6875 108.5625 79.6875 108.5625 77 109 C75.71408003 109.61524619 74.44436249 110.26488218 73.1875 110.9375 C64.78098978 115.22653582 56.35371963 115.93002698 47 115 C44.42526323 114.12961515 42.21583157 113.13443964 39.8671875 111.77734375 C37.50846921 110.79536689 36.39782063 111.30154227 34 112 C34.05124023 112.86278564 34.10248047 113.72557129 34.15527344 114.61450195 C34.33567563 117.81750406 34.49756941 121.02075583 34.64697266 124.2253418 C34.71541145 125.611795 34.79120674 126.99790549 34.87451172 128.38354492 C34.99300086 130.37573284 35.08282544 132.36956047 35.171875 134.36328125 C35.2347168 135.56251221 35.29755859 136.76174316 35.36230469 137.99731445 C35 141 35 141 33.21191406 142.87963867 C30.22090872 144.39461919 27.30718359 144.57908572 24 145 C22.515 145.99 22.515 145.99 21 147 C13.86343943 148.13278739 7.34520061 148 0 148 C0 99.16 0 50.32 0 0 Z " fill="#8A81E5" transform="translate(267,80)"/>
<path d="M0 0 C4.455 0.99 4.455 0.99 9 2 C9 2.66 9 3.32 9 4 C23.85 4 38.7 4 54 4 C54 4.66 54 5.32 54 6 C38.87542913 11.94098586 23.72064506 15.97439576 8 10 C3.84614195 8.05564091 2.01230575 6.13052234 0 2 C0 1.34 0 0.68 0 0 Z " fill="#675BFC" transform="translate(405,154)"/>
<path d="M0 0 C0.99 0.495 0.99 0.495 2 1 C2 1.99 2 2.98 2 4 C2.66 4 3.32 4 4 4 C4.08040527 4.60062256 4.16081055 5.20124512 4.24365234 5.82006836 C4.61139462 8.52724957 4.9930023 11.23229515 5.375 13.9375 C5.56449219 15.35579102 5.56449219 15.35579102 5.7578125 16.80273438 C5.95117188 18.15141602 5.95117188 18.15141602 6.1484375 19.52734375 C6.26364746 20.35999756 6.37885742 21.19265137 6.49755859 22.05053711 C6.74626709 23.01552124 6.74626709 23.01552124 7 24 C7.66 24.33 8.32 24.66 9 25 C9 20.71 9 16.42 9 12 C9.66 12 10.32 12 11 12 C12.14814997 9.70370006 12.30769809 7.92301914 12.5625 5.375 C12.64628906 4.55773437 12.73007812 3.74046875 12.81640625 2.8984375 C12.87699219 2.27195312 12.93757813 1.64546875 13 1 C14.65 0.67 16.3 0.34 18 0 C17.65066406 1.09699219 17.30132812 2.19398437 16.94140625 3.32421875 C16.48163336 4.77860238 16.02200559 6.23303189 15.5625 7.6875 C15.33240234 8.40873047 15.10230469 9.12996094 14.86523438 9.87304688 C9.26263606 27.65520675 10.36168661 48.34039561 19 65 C22 70.78571429 22 70.78571429 22 74 C21.34 74 20.68 74 20 74 C19.34 71.36 18.68 68.72 18 66 C17.34 66 16.68 66 16 66 C15.34 64.68 14.68 63.36 14 62 C13.67 62 13.34 62 13 62 C12.67 58.7 12.34 55.4 12 52 C11.34 52 10.68 52 10 52 C10 50.68 10 49.36 10 48 C8.515 48.495 8.515 48.495 7 49 C6.896875 50.051875 6.79375 51.10375 6.6875 52.1875 C6.02266585 55.87430754 5.11433704 57.96638599 3 61 C1.54717803 58.09435607 2.38626698 56.13321039 2.9375 52.9375 C5.26311004 37.29551747 5.48259654 21.11273163 0.875 5.9140625 C0 3 0 3 0 0 Z " fill="#665AF0" transform="translate(360,104)"/>
<path d="M0 0 C0.33 0 0.66 0 1 0 C1 36.63 1 73.26 1 111 C11.56 111 22.12 111 33 111 C33 111.66 33 112.32 33 113 C28.46102295 113.02465392 23.92208457 113.04283789 19.38305664 113.05493164 C17.83780234 113.0599714 16.29255284 113.0668032 14.74731445 113.07543945 C12.53074971 113.08752076 10.31424782 113.09323173 8.09765625 113.09765625 C7.05545677 113.10539818 7.05545677 113.10539818 5.99220276 113.11329651 C4.3277067 113.11349277 2.66334501 113.06189129 1 113 C-1.04566363 110.95433637 -0.17502619 106.65391323 -0.18945312 103.84008789 C-0.19774643 102.98484024 -0.20603973 102.12959259 -0.21458435 101.24842834 C-0.23202535 99.38502446 -0.24718097 97.52159815 -0.26036072 95.65815926 C-0.28131987 92.71283751 -0.30834821 89.76762837 -0.33703613 86.82237244 C-0.39684416 80.5691245 -0.4489422 74.31582469 -0.5 68.0625 C-0.55914962 60.82255887 -0.62140546 53.58267308 -0.69187927 46.34283257 C-0.71852648 43.43455131 -0.73929856 40.52626474 -0.7598877 37.61793518 C-0.77648679 35.84172296 -0.79335828 34.06551326 -0.81054688 32.28930664 C-0.8168235 31.06815155 -0.8168235 31.06815155 -0.82322693 29.82232666 C-0.77601589 25.78001662 -0.77601589 25.78001662 -2 22 C-1.69010826 19.99623399 -1.35118643 17.99694246 -1 16 C-0.74722406 13.21192933 -0.5916583 10.42006688 -0.4375 7.625 C-0.39431641 6.88894531 -0.35113281 6.15289062 -0.30664062 5.39453125 C-0.20156201 3.59651932 -0.10037907 1.79828042 0 0 Z M-8 2 C-7.67 2 -7.34 2 -7 2 C-6.67 9.26 -6.34 16.52 -6 24 C-4.68 23.67 -3.36 23.34 -2 23 C-2.66 25.31 -3.32 27.62 -4 30 C-5.65 29.67 -7.3 29.34 -9 29 C-9 29.66 -9 30.32 -9 31 C-10.32 31.33 -11.64 31.66 -13 32 C-13 31.01 -13 30.02 -13 29 C-18.94 29 -24.88 29 -31 29 C-31 44.84 -31 60.68 -31 77 C-31.33 77 -31.66 77 -32 77 C-32 60.83 -32 44.66 -32 28 C-24.08 28 -16.16 28 -8 28 C-8 19.42 -8 10.84 -8 2 Z " fill="#645AD1" transform="translate(159,80)"/>
<path d="M0 0 C0.99 0 1.98 0 3 0 C2.83635956 0.53044418 2.67271912 1.06088837 2.50411987 1.60740662 C1.88287288 4.55589472 1.90372302 7.26687647 1.93408203 10.28149414 C1.94384064 11.55283707 1.95359924 12.82417999 1.96365356 14.13404846 C1.97101658 14.81045443 1.97837959 15.48686039 1.98596573 16.1837635 C2.00803151 18.30622245 2.02208153 20.42859159 2.03366089 22.5511322 C2.06722243 28.58409883 2.10901285 34.61691564 2.17138672 40.6496582 C2.20900763 44.34359294 2.23204699 48.03737625 2.24569321 51.73147392 C2.2537514 53.1385363 2.26736594 54.54557817 2.28662491 55.95253181 C2.3130638 57.91751781 2.31935436 59.88274382 2.32470703 61.84790039 C2.33438507 62.96612686 2.34406311 64.08435333 2.35403442 65.23646545 C1.95226247 68.37263129 1.34396344 69.024273 -1 71 C-1.72197162 73.60611077 -1.72197162 73.60611077 -2 76 C-2.33 76 -2.66 76 -3 76 C-3 51.25 -3 26.5 -3 1 C-2.01 1.33 -1.02 1.66 0 2 C0 1.34 0 0.68 0 0 Z " fill="#6D66ED" transform="translate(195,115)"/>
<path d="M0 0 C0.33 0.66 0.66 1.32 1 2 C1.66 2.12375 2.32 2.2475 3 2.375 C5.75545424 2.94905297 7.67447228 3.73213626 10.1875 4.9375 C19.91146286 9.32845203 29.50325629 9.25192185 40 9 C40.30679688 8.38640625 40.61359375 7.7728125 40.9296875 7.140625 C41.953125 5.09375 42.9765625 3.046875 44 1 C44.495 1.495 44.495 1.495 45 2 C44.875 5.375 44.875 5.375 44 9 C38.69611942 13.22364068 32.54666356 12.74204353 26.10546875 12.26318359 C16.01395854 11.00174482 6.99783628 6.49891814 -2 2 C-1.67 11.9 -1.34 21.8 -1 32 C10.71111714 36.25858805 19.67356598 38.37847992 31.875 38.3125 C33.45945923 38.30621582 33.45945923 38.30621582 35.07592773 38.29980469 C45.68972581 38.14575589 53.86066488 36.56307355 63 31 C63.66 31.33 64.32 31.66 65 32 C64.3671875 33.8984375 64.3671875 33.8984375 63 36 C60.3203125 36.9765625 60.3203125 36.9765625 57.125 37.625 C53.02421973 38.3901033 53.02421973 38.3901033 49.24658203 40.02563477 C44.54453054 42.06496181 38.9621459 41.33138739 33.89306641 41.31567383 C31.77062817 41.31253055 29.64960815 41.33592803 27.52734375 41.36132812 C20.29184789 41.39622704 14.61587325 40.97993447 8 38 C2.555 36.515 2.555 36.515 -3 35 C-3.33 24.11 -3.66 13.22 -4 2 C-2.68 1.34 -1.36 0.68 0 0 Z " fill="#6B63CF" transform="translate(12,154)"/>
<path d="M0 0 C9.24 0 18.48 0 28 0 C28 0.33 28 0.66 28 1 C19.42 1 10.84 1 2 1 C2 36.64 2 72.28 2 109 C2.66 109 3.32 109 4 109 C4 109.66 4 110.32 4 111 C2.68 111 1.36 111 0 111 C0 74.37 0 37.74 0 0 Z " fill="#D3CDF6" transform="translate(160,80)"/>
<path d="M0 0 C0.66 0 1.32 0 2 0 C2 5.28 2 10.56 2 16 C2.66 16 3.32 16 4 16 C4 17.32 4 18.64 4 20 C1.5 22.25 1.5 22.25 -1 24 C-1 23.01 -1 22.02 -1 21 C-8.52795021 21.06114865 -16.05559372 21.138209 -23.58315849 21.23571491 C-27.07836487 21.2804861 -30.57345288 21.31972669 -34.06884766 21.34643555 C-38.085264 21.3773659 -42.10104367 21.43215643 -46.1171875 21.48828125 C-47.37554413 21.49467117 -48.63390076 21.5010611 -49.9303894 21.50764465 C-51.67196823 21.53733589 -51.67196823 21.53733589 -53.44873047 21.56762695 C-54.98761429 21.58428154 -54.98761429 21.58428154 -56.55758667 21.60127258 C-57.76658127 21.79864265 -57.76658127 21.79864265 -59 22 C-59.66 22.99 -60.32 23.98 -61 25 C-61.33 23.02 -61.66 21.04 -62 19 C-41.54 19 -21.08 19 0 19 C0 12.73 0 6.46 0 0 Z " fill="#857CDC" transform="translate(465,128)"/>
<path d="M0 0 C0.33 0 0.66 0 1 0 C1.06058594 0.94101563 1.12117187 1.88203125 1.18359375 2.8515625 C1.26738281 4.09679687 1.35117188 5.34203125 1.4375 6.625 C1.55931641 8.46964844 1.55931641 8.46964844 1.68359375 10.3515625 C1.96663944 13.61532388 2.41038953 16.77943859 3 20 C3.66 20 4.32 20 5 20 C5.7734375 21.299375 5.7734375 21.299375 6.5625 22.625 C12.09907078 31.27589185 23.86958656 35.00116633 33 38.57421875 C33.68304199 38.84234375 34.36608398 39.11046875 35.06982422 39.38671875 C36.42268247 39.91384812 37.7784453 40.43359248 39.13720703 40.9453125 C43.89088091 42.78176182 43.89088091 42.78176182 45 45 C42.75 45.1875 42.75 45.1875 40 45 C39.4225 44.505 38.845 44.01 38.25 43.5 C34.80715519 41.20477012 31.03363452 41.40040568 27 42 C26.34 42.66 25.68 43.32 25 44 C23.875 39.25 23.875 39.25 25 37 C24.175 37.0825 23.35 37.165 22.5 37.25 C16.8895602 36.8492543 12.57610686 34.75623336 8.8125 30.5625 C8.214375 29.716875 7.61625 28.87125 7 28 C5.7315625 26.9171875 5.7315625 26.9171875 4.4375 25.8125 C-0.9073231 19.64539642 -1.33760757 12.13964421 -1.203125 4.25 C-1 2 -1 2 0 0 Z " fill="#6F66DA" transform="translate(8,108)"/>
<path d="M0 0 C7.29126121 3.92606373 10.65738906 8.70919625 13.125 16.4765625 C16.11948823 28.24656485 14.71178709 40.43646011 8.8984375 51.10546875 C6.58662346 54.5979151 4.44419436 56.91231111 0.4375 58.3125 C-3.60141237 58.69209703 -7.52065211 58.61115871 -11.5625 58.3125 C-11.5625 57.9825 -11.5625 57.6525 -11.5625 57.3125 C-10.67046875 57.19132812 -9.7784375 57.07015625 -8.859375 56.9453125 C-7.10367187 56.69394531 -7.10367187 56.69394531 -5.3125 56.4375 C-4.15234375 56.27507812 -2.9921875 56.11265625 -1.796875 55.9453125 C1.03126611 55.39198054 3.03644524 54.87056943 5.4375 53.3125 C6.03811233 51.41071215 6.03811233 51.41071215 6.4375 49.3125 C6.90671875 48.74273437 7.3759375 48.17296875 7.859375 47.5859375 C13.18895914 39.90817024 12.88228375 28.30701586 12.4375 19.3125 C11.7775 19.3125 11.1175 19.3125 10.4375 19.3125 C10.1075 16.6725 9.7775 14.0325 9.4375 11.3125 C8.4475 10.9825 7.4575 10.6525 6.4375 10.3125 C6.169375 9.4875 5.90125 8.6625 5.625 7.8125 C5.233125 6.9875 4.84125 6.1625 4.4375 5.3125 C1.50064844 4.55912241 1.50064844 4.55912241 -1.5625 4.3125 C-2.5525 3.6525 -3.5425 2.9925 -4.5625 2.3125 C-6.84898848 2.07142674 -6.84898848 2.07142674 -9.25 2.1875 C-10.05824219 2.20554687 -10.86648438 2.22359375 -11.69921875 2.2421875 C-12.31410156 2.26539062 -12.92898438 2.28859375 -13.5625 2.3125 C-11.22490145 -2.3626971 -4.33033925 -1.16179834 0 0 Z " fill="#746DD3" transform="translate(319.5625,106.6875)"/>
<path d="M0 0 C1.44791044 0.01005493 2.89582768 0.01917632 4.34375 0.02734375 C7.85431037 0.04914656 11.36461028 0.08353619 14.875 0.125 C14.875 0.785 14.875 1.445 14.875 2.125 C15.57367188 2.11339844 16.27234375 2.10179688 16.9921875 2.08984375 C18.35730469 2.07630859 18.35730469 2.07630859 19.75 2.0625 C21.10738281 2.04509766 21.10738281 2.04509766 22.4921875 2.02734375 C24.875 2.125 24.875 2.125 26.875 3.125 C26.875 3.785 26.875 4.445 26.875 5.125 C28.195 5.785 29.515 6.445 30.875 7.125 C30.86976318 7.99302246 30.86452637 8.86104492 30.85913086 9.75537109 C30.84210138 12.97200273 30.82955592 16.18861141 30.82006836 19.40527344 C30.8150357 20.79818477 30.80820902 22.1910908 30.79956055 23.58398438 C30.78744848 25.58461246 30.78229588 27.58527888 30.77734375 29.5859375 C30.77210693 30.79040527 30.76687012 31.99487305 30.76147461 33.23583984 C30.67412109 36.0663677 30.67412109 36.0663677 31.875 38.125 C31.215 38.125 30.555 38.125 29.875 38.125 C29.875 38.785 29.875 39.445 29.875 40.125 C28.225 40.125 26.575 40.125 24.875 40.125 C24.875 39.135 24.875 38.145 24.875 37.125 C26.195 37.125 27.515 37.125 28.875 37.125 C28.545 27.225 28.215 17.325 27.875 7.125 C25.544375 6.485625 23.21375 5.84625 20.8125 5.1875 C20.09312256 4.98777588 19.37374512 4.78805176 18.63256836 4.58227539 C5.44145798 1.01638214 -7.81017212 1.36951447 -21.125 4.125 C-22.06085937 4.31191406 -22.99671875 4.49882813 -23.9609375 4.69140625 C-24.67507812 4.83449219 -25.38921875 4.97757812 -26.125 5.125 C-26.125 4.135 -26.125 3.145 -26.125 2.125 C-17.44526399 -0.19465226 -8.89826831 -0.10831608 0 0 Z " fill="#6960D5" transform="translate(55.125,76.875)"/>
<path d="M0 0 C0.99 0.33 1.98 0.66 3 1 C2.73445313 1.68964844 2.46890625 2.37929687 2.1953125 3.08984375 C1.84210938 4.02957031 1.48890625 4.96929687 1.125 5.9375 C0.77695312 6.85402344 0.42890625 7.77054687 0.0703125 8.71484375 C-2.38335416 16.24598849 -3.36228339 23.27194082 -3.3125 31.1875 C-3.30831055 32.10370117 -3.30412109 33.01990234 -3.29980469 33.96386719 C-3.11748015 45.01583763 -1.12437842 55.11727019 4 65 C7 70.78571429 7 70.78571429 7 74 C6.34 74 5.68 74 5 74 C4.34 71.36 3.68 68.72 3 66 C2.34 66 1.68 66 1 66 C0.34 64.68 -0.32 63.36 -1 62 C-1.33 62 -1.66 62 -2 62 C-2.33 58.7 -2.66 55.4 -3 52 C-3.66 52 -4.32 52 -5 52 C-5.33 38.8 -5.66 25.6 -6 12 C-5.34 12 -4.68 12 -4 12 C-2.55327897 9.10655794 -2.61943417 6.19460336 -2.37890625 2.99609375 C-2.25386719 2.33738281 -2.12882812 1.67867188 -2 1 C-1.34 0.67 -0.68 0.34 0 0 Z " fill="#6660CE" transform="translate(375,104)"/>
<path d="M0 0 C0.33 0 0.66 0 1 0 C1.13536022 2.08153935 1.23215465 4.16561206 1.3125 6.25 C1.39951172 7.99023438 1.39951172 7.99023438 1.48828125 9.765625 C0.85478221 13.96192265 -0.72430976 14.50399492 -4 17 C-4.77524058 19.69368356 -4.77524058 19.69368356 -4.75 22.5625 C-4.86995764 25.71995655 -4.99392993 27.98178978 -6 31 C-7.98 31.33 -9.96 31.66 -12 32 C-11.34 31.34 -10.68 30.68 -10 30 C-9.01 30 -8.02 30 -7 30 C-7 21.42 -7 12.84 -7 4 C-5.35 3.34 -3.7 2.68 -2 2 C-1.34 1.34 -0.68 0.68 0 0 Z " fill="#665AE8" transform="translate(158,160)"/>
<path d="M0 0 C4.86979684 2.38895694 7.31913003 5.33330042 10 10 C11 13 11 13 11 20 C0.44 20 -10.12 20 -21 20 C-21 17.36 -21 14.72 -21 12 C-20.67 12 -20.34 12 -20 12 C-20 14.31 -20 16.62 -20 19 C-5.15 18.505 -5.15 18.505 10 18 C7.19248338 10.91356224 7.19248338 10.91356224 4 4 C1.22628328 3.25543981 1.22628328 3.25543981 -1.9375 3.1875 C-3.52884766 3.08501953 -3.52884766 3.08501953 -5.15234375 2.98046875 C-8.0767693 2.85352658 -8.0767693 2.85352658 -11 4 C-11.33 4.66 -11.66 5.32 -12 6 C-13.32 6 -14.64 6 -16 6 C-16.33 7.65 -16.66 9.3 -17 11 C-17.99 10.67 -18.98 10.34 -20 10 C-16.31726648 1.94402043 -8.56861465 -1.70100514 0 0 Z " fill="#7066CF" transform="translate(424,104)"/>
<path d="M0 0 C0.33 0 0.66 0 1 0 C2.13798149 6.21204708 2.45703752 12.37629917 2.72241211 18.67797852 C2.78273022 20.02344842 2.85181832 21.36855234 2.92944336 22.71313477 C3.04176328 24.66579161 3.12482397 26.62006255 3.20703125 28.57421875 C3.2635083 29.73526123 3.31998535 30.89630371 3.37817383 32.0925293 C3 35 3 35 1.2097168 36.86645508 C-1.77908373 38.39965592 -4.68716215 38.57836609 -8 39 C-8.99 39.66 -9.98 40.32 -11 41 C-16.8897773 42.25364738 -23.01099008 42.09506365 -29 42 C-26.15092715 40.44452072 -23.59331943 39.57599802 -20.41015625 38.96484375 C-19.54326172 38.79533203 -18.67636719 38.62582031 -17.78320312 38.45117188 C-16.88537109 38.28166016 -15.98753906 38.11214844 -15.0625 37.9375 C-14.16853516 37.76412109 -13.27457031 37.59074219 -12.35351562 37.41210938 C-10.68288678 37.08840178 -9.01179316 36.76707654 -7.34008789 36.44897461 C-4.89084718 35.97905769 -2.44548288 35.48909658 0 35 C0 23.45 0 11.9 0 0 Z " fill="#7F79DF" transform="translate(299,186)"/>
<path d="M0 0 C-0.71027344 0.34933594 -1.42054688 0.69867188 -2.15234375 1.05859375 C-3.07144531 1.51363281 -3.99054688 1.96867188 -4.9375 2.4375 C-5.85402344 2.88996094 -6.77054687 3.34242188 -7.71484375 3.80859375 C-9.90528904 4.80525394 -9.90528904 4.80525394 -11 6 C-13.0279979 6.2253331 -15.05674874 6.44767185 -17.08984375 6.62109375 C-19.2328948 6.86222227 -19.2328948 6.86222227 -21 9 C-23.70556641 9.13525391 -23.70556641 9.13525391 -27.1015625 8.9765625 C-28.31328125 8.925 -29.525 8.8734375 -30.7734375 8.8203125 C-32.67996094 8.72363281 -32.67996094 8.72363281 -34.625 8.625 C-35.90375 8.56828125 -37.1825 8.5115625 -38.5 8.453125 C-41.66720687 8.31130977 -44.83366113 8.15986504 -48 8 C-48 7.34 -48 6.68 -48 6 C-49.7634375 5.8453125 -49.7634375 5.8453125 -51.5625 5.6875 C-55.82485903 5.17085042 -59.14087534 3.8491639 -63 2 C-62.67 1.34 -62.34 0.68 -62 0 C-61.26394531 0.27714844 -60.52789062 0.55429688 -59.76953125 0.83984375 C-58.79371094 1.20207031 -57.81789063 1.56429687 -56.8125 1.9375 C-55.84957031 2.29714844 -54.88664062 2.65679687 -53.89453125 3.02734375 C-39.30117114 7.93118541 -21.31754585 5.97212619 -7 1 C-5.89205078 0.40832031 -5.89205078 0.40832031 -4.76171875 -0.1953125 C-3 -1 -3 -1 0 0 Z " fill="#6961D7" transform="translate(459,187)"/>
<path d="M0 0 C1.1446875 0.3403125 1.1446875 0.3403125 2.3125 0.6875 C1.6525 1.3475 0.9925 2.0075 0.3125 2.6875 C-1.0075 2.6875 -2.3275 2.6875 -3.6875 2.6875 C-3.57008616 9.48694841 -3.44525166 16.28623113 -3.31518555 23.08544922 C-3.27179624 25.39987069 -3.23012416 27.714325 -3.19018555 30.02880859 C-3.13257968 33.35003573 -3.06885749 36.67109692 -3.00390625 39.9921875 C-2.98719376 41.03180634 -2.97048126 42.07142517 -2.95326233 43.14254761 C-2.93331711 44.10339264 -2.91337189 45.06423767 -2.89282227 46.05419922 C-2.86950584 47.32660965 -2.86950584 47.32660965 -2.84571838 48.62472534 C-2.81320042 50.75068305 -2.81320042 50.75068305 -1.6875 52.6875 C-3.0075 52.0275 -4.3275 51.3675 -5.6875 50.6875 C-5.76346188 43.906567 -5.8160625 37.1257434 -5.85229492 30.34448242 C-5.86739676 28.03682352 -5.88787969 25.72919339 -5.91381836 23.42163086 C-5.95013975 20.10783801 -5.96721236 16.79442408 -5.98046875 13.48046875 C-5.99595261 12.4460112 -6.01143646 11.41155365 -6.02738953 10.3457489 C-6.02761612 9.3849794 -6.02784271 8.4242099 -6.02807617 7.43432617 C-6.03473801 6.58827316 -6.04139984 5.74222015 -6.04826355 4.87052917 C-5.41566489 1.04258886 -3.85211656 -0.44792053 0 0 Z " fill="#6259DF" transform="translate(305.6875,109.3125)"/>
<path d="M0 0 C2.475 0.495 2.475 0.495 5 1 C5 1.66 5 2.32 5 3 C6.2065625 3.433125 6.2065625 3.433125 7.4375 3.875 C10 5 10 5 11 7 C11.99 7 12.98 7 14 7 C15.5703125 9.046875 15.5703125 9.046875 17.125 11.75 C17.64320313 12.63171875 18.16140625 13.5134375 18.6953125 14.421875 C19.82939585 16.66287802 20.53038457 18.54883651 21 21 C21.66 21 22.32 21 23 21 C23.5625 22.9375 23.5625 22.9375 24 25 C23.67 25.33 23.34 25.66 23 26 C23.32742188 26.54140625 23.65484375 27.0828125 23.9921875 27.640625 C25.21664767 30.50719067 25.19892146 32.6452987 25.125 35.75 C25.10695313 36.73484375 25.08890625 37.7196875 25.0703125 38.734375 C25.04710937 39.48203125 25.02390625 40.2296875 25 41 C24.67 41 24.34 41 24 41 C23.86464844 40.22398438 23.72929687 39.44796875 23.58984375 38.6484375 C20.42199594 22.75229103 13.52529239 10.10887038 0 1 C0 0.67 0 0.34 0 0 Z " fill="#695ED9" transform="translate(440,82)"/>
<path d="M0 0 C0 8.91 0 17.82 0 27 C-0.33 27 -0.66 27 -1 27 C-1 18.42 -1 9.84 -1 1 C-3.31 1.598125 -5.62 2.19625 -8 2.8125 C-16.27787076 4.91743933 -24.59228208 6.4986218 -33 8 C-33 16.58 -33 25.16 -33 34 C-33.33 34 -33.66 34 -34 34 C-34.02891546 29.54168018 -34.04676981 25.08338431 -34.0625 20.625 C-34.07087891 19.35398437 -34.07925781 18.08296875 -34.08789062 16.7734375 C-34.09111328 15.56171875 -34.09433594 14.35 -34.09765625 13.1015625 C-34.10289307 11.98088379 -34.10812988 10.86020508 -34.11352539 9.70556641 C-34 7 -34 7 -33 5 C-30.61083984 4.31396484 -30.61083984 4.31396484 -27.4609375 3.7109375 C-26.32269531 3.49179687 -25.18445313 3.27265625 -24.01171875 3.046875 C-22.21154297 2.71429688 -22.21154297 2.71429688 -20.375 2.375 C-19.19808594 2.14554688 -18.02117187 1.91609375 -16.80859375 1.6796875 C-10.97557435 0.57738462 -6.0140331 0 0 0 Z " fill="#6A61D9" transform="translate(257,37)"/>
<path d="M0 0 C0.33 0 0.66 0 1 0 C1.00364563 0.59468582 1.00729126 1.18937164 1.01104736 1.80207825 C1.0528062 7.98279119 1.12210452 14.16275692 1.20751953 20.34301758 C1.23577315 22.65055881 1.25696571 24.9581976 1.27099609 27.26586914 C1.29236444 30.58009964 1.33898445 33.89315151 1.390625 37.20703125 C1.39185364 38.2414888 1.39308228 39.27594635 1.39434814 40.3417511 C1.41406677 41.3025206 1.4337854 42.2632901 1.45410156 43.25317383 C1.46298401 44.09922684 1.47186646 44.94527985 1.48101807 45.81697083 C2.18434003 48.77540206 3.45986118 49.43310348 6 51 C6.99 51.66 7.98 52.32 9 53 C4.48281619 54.36884358 1.41225737 53.47075246 -3 52 C-3.05536025 50.35457036 -3.09338848 48.70855716 -3.125 47.0625 C-3.14820313 46.14597656 -3.17140625 45.22945312 -3.1953125 44.28515625 C-3 41 -3 41 -2.03125 37.15625 C-0.35097784 30.05423011 -0.52891205 22.69942316 -0.375 15.4375 C-0.33674154 13.93682824 -0.29768549 12.4361766 -0.2578125 10.93554688 C-0.16267804 7.29055056 -0.07834092 3.64540046 0 0 Z " fill="#CDCDF2" transform="translate(299,112)"/>
<path d="M0 0 C2.18325241 2.18325241 2.94184214 3.94408126 4.1875 6.75 C8.03444473 14.51098733 13.14741923 18.08757123 21.11352539 21.18408203 C26.25272843 22.63677733 31.32676911 22.41738032 36.625 22.25 C37.72457031 22.23195312 38.82414062 22.21390625 39.95703125 22.1953125 C42.63896703 22.14867014 45.31899343 22.08324119 48 22 C48 22.66 48 23.32 48 24 C36.9915235 26.11308218 24.53338209 26.22698828 14 22 C11.1875 19.8125 11.1875 19.8125 9 17 C7.77154202 15.66601369 6.54232371 14.33272732 5.3125 13 C1.57259898 8.67472317 0 5.81243682 0 0 Z " fill="#6F68CF" transform="translate(96,170)"/>
<path d="M0 0 C1.32 0 2.64 0 4 0 C4 7.92 4 15.84 4 24 C3.34 24 2.68 24 2 24 C2 24.99 2 25.98 2 27 C1.34 27 0.68 27 0 27 C0 18.09 0 9.18 0 0 Z " fill="#6458EC" transform="translate(217,80)"/>
<path d="M0 0 C0.99 0.33 1.98 0.66 3 1 C3 1.66 3 2.32 3 3 C3.66 3.66 4.32 4.32 5 5 C3.9275 4.835 2.855 4.67 1.75 4.5 C-13.77545372 2.6445855 -26.16813815 4.88446972 -39 14 C-39.99 14.495 -39.99 14.495 -41 15 C-41 13.68 -41 12.36 -41 11 C-38.35261084 9.5393715 -37.10551666 9 -34 9 C-34 8.34 -34 7.68 -34 7 C-33.34 7 -32.68 7 -32 7 C-32 6.34 -32 5.68 -32 5 C-21.80171816 -0.56487042 -11.13586556 1.01372922 0 2 C0 1.34 0 0.68 0 0 Z " fill="#6B64D2" transform="translate(429,75)"/>
<path d="M0 0 C1.43279297 -0.02416992 1.43279297 -0.02416992 2.89453125 -0.04882812 C9.012116 -0.053024 13.53603332 0.80869578 19.125 3.3125 C19.125 3.9725 19.125 4.6325 19.125 5.3125 C18.42117188 5.0959375 17.71734375 4.879375 16.9921875 4.65625 C5.36658838 1.37801317 -6.01066435 0.2724697 -16.875 6.3125 C-19.33150695 7.87492694 -21.57766063 9.51458223 -23.875 11.3125 C-24.205 8.6725 -24.535 6.0325 -24.875 3.3125 C-22.895 4.3025 -22.895 4.3025 -20.875 5.3125 C-20.33875 4.85875 -19.8025 4.405 -19.25 3.9375 C-13.23590426 -0.17740761 -7.02207517 -0.02350092 0 0 Z " fill="#685DD5" transform="translate(320.875,76.6875)"/>
<path d="M0 0 C2.86076818 1.08511897 3.84499008 1.70668782 5.3046875 4.46875 C7.95923051 8.43221514 11.06010319 8.54477749 15.546875 9.50390625 C25.00233792 10.86232683 34.54936743 10.08007229 44 9 C36.19883146 13.49558865 24.16579109 14.35369248 15.40234375 12.4296875 C9.73210642 10.84302315 4.70528574 9.41092122 1.1875 4.4375 C0 2 0 2 0 0 Z " fill="#756BD5" transform="translate(405,154)"/>
<path d="M0 0 C7.26 0 14.52 0 22 0 C13.31776149 6.51167888 0.48141905 5.28672575 -10 5 C-10 4.67 -10 4.34 -10 4 C-7.36 4 -4.72 4 -2 4 C-1.34 2.68 -0.68 1.36 0 0 Z " fill="#6659F8" transform="translate(434,160)"/>
<path d="M0 0 C0.66 0 1.32 0 2 0 C3.38938077 1.96147874 4.7260411 3.96166576 6 6 C6.66 5.67 7.32 5.34 8 5 C11.77622378 8.52447552 11.77622378 8.52447552 13 11.125 C14.26235606 13.49191761 15.55556051 14.0222242 18 15 C18 15.99 18 16.98 18 18 C11.44202654 16.52445597 6.48433771 12.45586643 2.6015625 7.0546875 C0 2.64494681 0 2.64494681 0 0 Z " fill="#F8F6F3" transform="translate(98,173)"/>
<path d="M0 0 C0.99 0.33 1.98 0.66 3 1 C2.484375 1.391875 1.96875 1.78375 1.4375 2.1875 C-0.26820766 3.93427634 -0.26820766 3.93427634 0.09375 6.4453125 C0.77621749 9.16815 0.77621749 9.16815 3.22265625 10.51171875 C4.15980469 10.89972656 5.09695312 11.28773437 6.0625 11.6875 C7.05765625 12.10128906 8.0528125 12.51507813 9.078125 12.94140625 C11.49027859 13.81532821 13.81912762 14.54031384 16.3125 15.125 C19.91901108 15.98078229 22.76456853 17.22051269 26 19 C25.34 19.66 24.68 20.32 24 21 C20.61746704 19.79092247 17.24567609 18.5542107 13.875 17.3125 C12.92367187 16.97283203 11.97234375 16.63316406 10.9921875 16.28320312 C5.46999908 14.23155673 1.07417121 12.32794956 -3 8 C-3 4.25 -3 4.25 -2 1 C-1.34 0.67 -0.68 0.34 0 0 Z " fill="#6E69CC" transform="translate(44,107)"/>
<path d="M0 0 C7.27553946 0.78524545 13.83872078 2.872554 20.625 5.5 C21.83422119 5.96321655 21.83422119 5.96321655 23.06787109 6.43579102 C28.87163764 8.74327528 28.87163764 8.74327528 30 11 C27.75 11.1875 27.75 11.1875 25 11 C24.4225 10.505 23.845 10.01 23.25 9.5 C19.80715519 7.20477012 16.03363452 7.40040568 12 8 C11.34 8.66 10.68 9.32 10 10 C8.875 5.25 8.875 5.25 10 3 C9.0925 3.061875 8.185 3.12375 7.25 3.1875 C3.63570458 2.97898296 2.69946657 2.23586253 0 0 Z " fill="#655BEA" transform="translate(23,142)"/>
<path d="M0 0 C0 8.25 0 16.5 0 25 C-0.33 25 -0.66 25 -1 25 C-1.33 18.07 -1.66 11.14 -2 4 C-7.47825081 5.32917961 -7.47825081 5.32917961 -9 7 C-12.4375 7.1875 -12.4375 7.1875 -16 7 C-16.66 6.34 -17.32 5.68 -18 5 C-17.08476562 4.72285156 -16.16953125 4.44570312 -15.2265625 4.16015625 C-14.03804688 3.79792969 -12.84953125 3.43570313 -11.625 3.0625 C-10.44164062 2.70285156 -9.25828125 2.34320313 -8.0390625 1.97265625 C-1.87550201 0 -1.87550201 0 0 0 Z " fill="#D7D5FC" transform="translate(459,160)"/>
<path d="M0 0 C0.33 0 0.66 0 1 0 C1.33 7.26 1.66 14.52 2 22 C3.32 21.67 4.64 21.34 6 21 C5.34 23.31 4.68 25.62 4 28 C2.35 27.67 0.7 27.34 -1 27 C-1 27.66 -1 28.32 -1 29 C-2.32 29.33 -3.64 29.66 -5 30 C-5 29.01 -5 28.02 -5 27 C-3.35 26.67 -1.7 26.34 0 26 C0 17.42 0 8.84 0 0 Z M7 14 C7.33 14 7.66 14 8 14 C8 16.64 8 19.28 8 22 C7.34 21.34 6.68 20.68 6 20 C6.375 16.875 6.375 16.875 7 14 Z " fill="#6459E1" transform="translate(151,82)"/>
<path d="M0 0 C0.66 0.33 1.32 0.66 2 1 C1.3671875 2.8984375 1.3671875 2.8984375 0 5 C-2.6796875 5.9765625 -2.6796875 5.9765625 -5.875 6.625 C-9.99101881 7.3994031 -9.99101881 7.3994031 -13.79052734 9.03222656 C-16.72632903 10.31814014 -19.09805407 10.22549006 -22.296875 10.1953125 C-24.10478516 10.18564453 -24.10478516 10.18564453 -25.94921875 10.17578125 C-27.83060547 10.15064453 -27.83060547 10.15064453 -29.75 10.125 C-31.01972656 10.11597656 -32.28945313 10.10695312 -33.59765625 10.09765625 C-36.73196093 10.07409005 -39.86588541 10.04118832 -43 10 C-43 9.67 -43 9.34 -43 9 C-42.4423999 8.9906543 -41.8847998 8.98130859 -41.31030273 8.97167969 C-26.59582794 8.66333322 -12.79021239 8.03106359 0 0 Z " fill="#6057D3" transform="translate(75,185)"/>
<path d="M0 0 C1.65 0 3.3 0 5 0 C5 0.66 5 1.32 5 2 C5.94875 1.814375 6.8975 1.62875 7.875 1.4375 C11 1 11 1 13 2 C13 2.99 13 3.98 13 5 C11.58847656 5.07347656 11.58847656 5.07347656 10.1484375 5.1484375 C8.28058594 5.26058594 8.28058594 5.26058594 6.375 5.375 C5.14523438 5.44460937 3.91546875 5.51421875 2.6484375 5.5859375 C-0.83653855 5.9814487 -3.73049601 6.76261849 -7 8 C-7.33 7.01 -7.66 6.02 -8 5 C-7.236875 4.87625 -6.47375 4.7525 -5.6875 4.625 C-2.79732864 4.11897208 -2.79732864 4.11897208 0 2 C0 1.34 0 0.68 0 0 Z " fill="#F4F8FB" transform="translate(203,104)"/>
<path d="M0 0 C1.32 0 2.64 0 4 0 C4.99 1.98 5.98 3.96 7 6 C3.62772763 6.84464056 0.25180079 7.67366647 -3.125 8.5 C-4.07632813 8.73847656 -5.02765625 8.97695313 -6.0078125 9.22265625 C-10.76064801 10.37785933 -15.06733309 11.33216612 -20 11 C-19.67 10.01 -19.34 9.02 -19 8 C-12.07 7.34 -5.14 6.68 2 6 C2 5.01 2 4.02 2 3 C1.34 2.67 0.68 2.34 0 2 C0 1.34 0 0.68 0 0 Z " fill="#6A62DA" transform="translate(114,48)"/>
<path d="M0 0 C0.33 0 0.66 0 1 0 C1.54671388 8.47406519 -0.24708397 14.82622408 -4.9375 21.9375 C-8.07942406 25.07942406 -10.61779587 26.8699306 -15.11328125 27.29296875 C-16.16902344 27.25816406 -17.22476562 27.22335938 -18.3125 27.1875 C-19.38113281 27.16042969 -20.44976562 27.13335937 -21.55078125 27.10546875 C-22.35902344 27.07066406 -23.16726563 27.03585938 -24 27 C-24 26.67 -24 26.34 -24 26 C-23.10796875 25.87882812 -22.2159375 25.75765625 -21.296875 25.6328125 C-20.12640625 25.46523437 -18.9559375 25.29765625 -17.75 25.125 C-16.58984375 24.96257812 -15.4296875 24.80015625 -14.234375 24.6328125 C-11.40623389 24.07948054 -9.40105476 23.55806943 -7 22 C-6.39938767 20.09821215 -6.39938767 20.09821215 -6 18 C-5.53078125 17.44570312 -5.0615625 16.89140625 -4.578125 16.3203125 C-2.48359831 13.24073613 -2.02075905 10.39247514 -1.3125 6.75 C-1.06113281 5.48671875 -0.80976563 4.2234375 -0.55078125 2.921875 C-0.36902344 1.95765625 -0.18726563 0.9934375 0 0 Z " fill="#6B64CC" transform="translate(332,138)"/>
<path d="M0 0 C-2.70413236 5.25803515 -6.28824543 9.09608181 -12 11 C-12.3125 8.25 -12.3125 8.25 -12 5 C-8.04118851 1.14536776 -5.43820769 -0.14311073 0 0 Z " fill="#F4F3F8" transform="translate(84,176)"/>
<path d="M0 0 C9.9 0 19.8 0 30 0 C30.33 0.66 30.66 1.32 31 2 C33.52733235 2.65555119 33.52733235 2.65555119 36 3 C34.35 4.98 32.7 6.96 31 9 C30.34 8.67 29.68 8.34 29 8 C28.67 5.69 28.34 3.38 28 1 C18.76 1 9.52 1 0 1 C0 0.67 0 0.34 0 0 Z " fill="#6760D0" transform="translate(160,79)"/>
<path d="M0 0 C0.66 0.33 1.32 0.66 2 1 C0.73299277 1.9841125 -0.5387619 2.96211497 -1.8125 3.9375 C-2.87404297 4.75541016 -2.87404297 4.75541016 -3.95703125 5.58984375 C-6 7 -6 7 -9 8 C-10.11837276 9.84019844 -10.11837276 9.84019844 -11 12 C-11.51240234 12.95519531 -11.51240234 12.95519531 -12.03515625 13.9296875 C-14.16510003 17.96281299 -15.53910638 21.39106378 -16 26 C-16.33 26 -16.66 26 -17 26 C-17.3152595 20.01006953 -16.68219822 16.36439644 -14 11 C-13.34 11 -12.68 11 -12 11 C-11.67 9.35 -11.34 7.7 -11 6 C-9.35 5.67 -7.7 5.34 -6 5 C-6 4.34 -6 3.68 -6 3 C-4.03533587 1.93224776 -2.03144641 0.93446535 0 0 Z " fill="#6C64D4" transform="translate(26,82)"/>
<path d="M0 0 C0.99 0.495 0.99 0.495 2 1 C2 1.99 2 2.98 2 4 C2.66 4 3.32 4 4 4 C5.81497102 12.1407691 6.25176938 19.86460259 6.125 28.1875 C6.11597656 29.33025391 6.10695313 30.47300781 6.09765625 31.65039062 C6.07436393 34.4338231 6.04165999 37.21679229 6 40 C5.67 40 5.34 40 5 40 C4.9906543 39.44763672 4.98130859 38.89527344 4.97167969 38.32617188 C4.73538559 27.14158456 3.93555654 16.82909002 0.83984375 6.0546875 C0 3 0 3 0 0 Z " fill="#736BD2" transform="translate(360,104)"/>
<path d="M0 0 C1.89492187 0.01353516 1.89492187 0.01353516 3.828125 0.02734375 C4.79234375 0.03894531 5.7565625 0.05054687 6.75 0.0625 C6.75 0.7225 6.75 1.3825 6.75 2.0625 C5.55503906 1.97548828 5.55503906 1.97548828 4.3359375 1.88671875 C-1.68744874 1.43190212 -1.68744874 1.43190212 -7.27734375 3.2109375 C-8.63394295 4.4605276 -9.94580737 5.75830737 -11.25 7.0625 C-12.24 6.7325 -13.23 6.4025 -14.25 6.0625 C-14.25 6.7225 -14.25 7.3825 -14.25 8.0625 C-14.91 8.0625 -15.57 8.0625 -16.25 8.0625 C-16.25 7.0725 -16.25 6.0825 -16.25 5.0625 C-10.96955656 0.07541453 -7.08738548 -0.06562394 0 0 Z " fill="#6760DB" transform="translate(209.25,108.9375)"/>
<path d="M0 0 C0.80824219 0.27714844 1.61648438 0.55429688 2.44921875 0.83984375 C3.51785156 1.20207031 4.58648437 1.56429687 5.6875 1.9375 C7.27111328 2.47697266 7.27111328 2.47697266 8.88671875 3.02734375 C14.37900383 4.74325214 19.60101085 5.25114983 25.3125 5.5625 C26.05306641 5.60568359 26.79363281 5.64886719 27.55664062 5.69335938 C29.37091464 5.79870432 31.1854355 5.89978316 33 6 C33 6.33 33 6.66 33 7 C26.93303301 7.77040851 21.11485027 8.09706112 15 8 C15 7.34 15 6.68 15 6 C13.2365625 5.8453125 13.2365625 5.8453125 11.4375 5.6875 C7.17514097 5.17085042 3.85912466 3.8491639 0 2 C0 1.34 0 0.68 0 0 Z " fill="#716BD6" transform="translate(396,187)"/>
<path d="M0 0 C1.45792884 -0.05399736 2.91642712 -0.09279177 4.375 -0.125 C5.18710937 -0.14820313 5.99921875 -0.17140625 6.8359375 -0.1953125 C9 0 9 0 11 2 C14.3551887 2.88006695 17.6249431 3.16794234 21.08203125 3.31640625 C22.01337891 3.35830078 22.94472656 3.40019531 23.90429688 3.44335938 C24.86400391 3.48267578 25.82371094 3.52199219 26.8125 3.5625 C27.79154297 3.60568359 28.77058594 3.64886719 29.77929688 3.69335938 C32.18607027 3.7990226 34.59293983 3.90112327 37 4 C37 4.33 37 4.66 37 5 C10.63103772 5.65352665 10.63103772 5.65352665 2 2 C1.34 1.34 0.68 0.68 0 0 Z " fill="#E6E5FE" transform="translate(399,188)"/>
<path d="M0 0 C0.44988281 0.36351562 0.89976563 0.72703125 1.36328125 1.1015625 C6.90273999 5.43099919 12.76634203 8.76858171 19 12 C14.89965673 13.32658165 12.24694407 12.63621245 8.26171875 11.2265625 C4.39561733 9.12992028 2.06872776 5.82106187 0 2 C0 1.34 0 0.68 0 0 Z " fill="#6C61CF" transform="translate(13,131)"/>
<path d="M0 0 C0.66 0 1.32 0 2 0 C2 5.28 2 10.56 2 16 C2.66 16 3.32 16 4 16 C4 17.32 4 18.64 4 20 C3.01 20.33 2.02 20.66 1 21 C0 20 0 20 -0.11352539 18.05053711 C-0.10567017 16.8015564 -0.10567017 16.8015564 -0.09765625 15.52734375 C-0.09443359 14.62822266 -0.09121094 13.72910156 -0.08789062 12.80273438 C-0.07951172 11.85720703 -0.07113281 10.91167969 -0.0625 9.9375 C-0.05798828 8.98810547 -0.05347656 8.03871094 -0.04882812 7.06054688 C-0.0370011 4.70696935 -0.02052025 2.35351523 0 0 Z " fill="#6D66D8" transform="translate(465,128)"/>
<path d="M0 0 C1.65 0 3.3 0 5 0 C5.33 0.66 5.66 1.32 6 2 C5.05016642 3.50539661 4.08988109 5.00420347 3.125 6.5 C2.59132813 7.3353125 2.05765625 8.170625 1.5078125 9.03125 C1.01023437 9.6809375 0.51265625 10.330625 0 11 C-0.66 11 -1.32 11 -2 11 C-1.67 8.36 -1.34 5.72 -1 3 C-1.66 3 -2.32 3 -3 3 C-2.67 2.34 -2.34 1.68 -2 1 C-1.34 1.33 -0.68 1.66 0 2 C0 1.34 0 0.68 0 0 Z " fill="#6E63F7" transform="translate(379,92)"/>
<path d="M0 0 C4.63288815 1.29068732 7.69753944 3.0438844 11.375 6.125 C12.24898438 6.84945312 13.12296875 7.57390625 14.0234375 8.3203125 C15.00183594 9.15175781 15.00183594 9.15175781 16 10 C15.01 10.66 14.02 11.32 13 12 C13 11.01 13 10.02 13 9 C11.906875 8.896875 10.81375 8.79375 9.6875 8.6875 C6 8 6 8 4.0625 6.625 C3 5 3 5 3 2 C2.01 1.67 1.02 1.34 0 1 C0 0.67 0 0.34 0 0 Z " fill="#ECECF6" transform="translate(334,80)"/>
<path d="M0 0 C6.93 0.33 13.86 0.66 21 1 C21 1.66 21 2.32 21 3 C13.74 3 6.48 3 -1 3 C-0.67 2.01 -0.34 1.02 0 0 Z " fill="#645FED" transform="translate(410,117)"/>
<path d="M0 0 C0 8.58 0 17.16 0 26 C-0.33 26 -0.66 26 -1 26 C-1 18.41 -1 10.82 -1 3 C-1.99 3.33 -2.98 3.66 -4 4 C-4 3.34 -4 2.68 -4 2 C-7.63 2 -11.26 2 -15 2 C-15 1.67 -15 1.34 -15 1 C-13.25021843 0.83105557 -11.50016388 0.66493691 -9.75 0.5 C-8.77546875 0.4071875 -7.8009375 0.314375 -6.796875 0.21875 C-4.53697847 0.04199832 -2.26679807 0 0 0 Z " fill="#B5B0FD" transform="translate(151,164)"/>
<path d="M0 0 C0.99 0 1.98 0 3 0 C2.625 1.9375 2.625 1.9375 2 4 C-0.95388136 5.47694068 -3.65161882 5.20930797 -6.9375 5.25 C-8.80728516 5.28867188 -8.80728516 5.28867188 -10.71484375 5.328125 C-14 5 -14 5 -17 2 C-11.39 2.33 -5.78 2.66 0 3 C0 2.01 0 1.02 0 0 Z " fill="#6862D2" transform="translate(147,160)"/>
<path d="M0 0 C0.99 0.33 1.98 0.66 3 1 C2.73445313 1.72445312 2.46890625 2.44890625 2.1953125 3.1953125 C0.3996044 8.11057191 -1.38534099 13.02146805 -3 18 C-3.99 17.01 -4.98 16.02 -6 15 C-5 12 -5 12 -3 10 C-2.62276444 7.66371161 -2.494845 5.35695314 -2.34375 2.99609375 C-2.2303125 2.33738281 -2.116875 1.67867188 -2 1 C-1.34 0.67 -0.68 0.34 0 0 Z " fill="#6A62D6" transform="translate(375,104)"/>
<path d="M0 0 C-2.36012878 2.7083445 -4.59993115 3.85019927 -7.9375 5.125 C-8.79214844 5.45757812 -9.64679688 5.79015625 -10.52734375 6.1328125 C-12.67520185 6.88608975 -14.78254968 7.49580016 -17 8 C-16 5 -16 5 -13.85546875 3.6484375 C-12.97503906 3.22820312 -12.09460938 2.80796875 -11.1875 2.375 C-10.31480469 1.94960937 -9.44210937 1.52421875 -8.54296875 1.0859375 C-2.76387738 -1.38193869 -2.76387738 -1.38193869 0 0 Z " fill="#EBE7FD" transform="translate(410,80)"/>
<path d="M0 0 C4.62 0 9.24 0 14 0 C11.41073669 2.58926331 9.97294721 2.37398043 6.375 2.625 C5.37210938 2.69976562 4.36921875 2.77453125 3.3359375 2.8515625 C2.17964844 2.92503906 2.17964844 2.92503906 1 3 C0.01 5.31 -0.98 7.62 -2 10 C-2.66 9.67 -3.32 9.34 -4 9 C-3.67 7.02 -3.34 5.04 -3 3 C-2.01 2.67 -1.02 2.34 0 2 C0 1.34 0 0.68 0 0 Z " fill="#6C60DE" transform="translate(47,106)"/>
<path d="M0 0 C1.8125 0.375 1.8125 0.375 4 1 C4.7425 1.185625 5.485 1.37125 6.25 1.5625 C6.8275 1.706875 7.405 1.85125 8 2 C8 1.34 8 0.68 8 0 C9.32 0.66 10.64 1.32 12 2 C11.34 3.65 10.68 5.3 10 7 C5.49197399 5.74194623 2.5087188 4.09592835 -1 1 C-0.67 0.67 -0.34 0.34 0 0 Z " fill="#F6F2F9" transform="translate(300,184)"/>
<path d="M0 0 C0.66 0.33 1.32 0.66 2 1 C1.33333333 2.33333333 0.66666667 3.66666667 0 5 C-0.4125 5.969375 -0.825 6.93875 -1.25 7.9375 C-3.44155393 11.77271937 -5.33780956 13.53362685 -9 16 C-11.19140625 15.62890625 -11.19140625 15.62890625 -13 15 C-12.31292969 14.41992188 -11.62585938 13.83984375 -10.91796875 13.2421875 C-10.01691406 12.46101562 -9.11585937 11.67984375 -8.1875 10.875 C-7.29417969 10.10929688 -6.40085937 9.34359375 -5.48046875 8.5546875 C-2.87665388 5.87296321 -1.48659391 3.40780663 0 0 Z " fill="#685DEE" transform="translate(87,173)"/>
<path d="M0 0 C2.88382167 1.09386339 3.83948592 1.67897184 5.25 4.5 C7.87599825 8.25142608 10.58094757 8.20312169 15 9 C15 9.66 15 10.32 15 11 C15.66 11.33 16.32 11.66 17 12 C11.29336699 11.53415241 7.73731934 10.27968262 3 7 C0 2.93548387 0 2.93548387 0 0 Z " fill="#6C66CB" transform="translate(405,154)"/>
<path d="M0 0 C3.0390625 0.2421875 3.0390625 0.2421875 6.625 0.875 C8.40777344 1.18050781 8.40777344 1.18050781 10.2265625 1.4921875 C11.14179688 1.65976563 12.05703125 1.82734375 13 2 C13 2.99 13 3.98 13 5 C7.86496656 4.35812082 3.0056546 3.31727753 -2 2 C-1.34 1.34 -0.68 0.68 0 0 Z " fill="#F9FCEE" transform="translate(402,185)"/>
<path d="M0 0 C2.475 0.99 2.475 0.99 5 2 C5 2.66 5 3.32 5 4 C5.66 4 6.32 4 7 4 C6.67 6.97 6.34 9.94 6 13 C2.95664473 9.95664473 2.39694147 8.78878538 1.3125 4.8125 C1.06113281 3.91144531 0.80976563 3.01039063 0.55078125 2.08203125 C0.36902344 1.39496094 0.18726563 0.70789063 0 0 Z " fill="#EDEEFA" transform="translate(374,158)"/>
<path d="M0 0 C0 0.66 0 1.32 0 2 C0.69867188 1.97679688 1.39734375 1.95359375 2.1171875 1.9296875 C3.02726562 1.91164063 3.93734375 1.89359375 4.875 1.875 C6.23238281 1.84019531 6.23238281 1.84019531 7.6171875 1.8046875 C10 2 10 2 12 4 C7.05174743 5.16384134 3.0034276 4.67338225 -1.875 3.5625 C-2.56335938 3.41490234 -3.25171875 3.26730469 -3.9609375 3.11523438 C-5.64274029 2.75317961 -7.32169534 2.37793884 -9 2 C-5.5647952 -0.29013653 -4.014669 -0.17842973 0 0 Z " fill="#6F66DD" transform="translate(70,77)"/>
<path d="M0 0 C-3.35391886 2.23594591 -5.41872026 2.52383033 -9.375 3.0625 C-13.28044304 3.60567081 -17.14164028 4.18353062 -21 5 C-21.33 4.34 -21.66 3.68 -22 3 C-7.40318907 -0.44419134 -7.40318907 -0.44419134 0 0 Z " fill="#796FD9" transform="translate(256,65)"/>
<path d="M0 0 C-3.53105961 3.32597281 -6.50235535 3.46770164 -11.25 3.6875 C-12.51328125 3.75324219 -13.7765625 3.81898438 -15.078125 3.88671875 C-16.52445312 3.94279297 -16.52445312 3.94279297 -18 4 C-16 1 -16 1 -13.5 0.3125 C-8.98989131 -0.09018828 -4.52444708 -0.08047436 0 0 Z " fill="#625BE2" transform="translate(456,160)"/>
<path d="M0 0 C0.66 0.33 1.32 0.66 2 1 C2.55353075 12.70615034 2.55353075 12.70615034 -1 17 C-2.56902561 13.86194878 -1.56136446 10.73381412 -1.0625 7.375 C-0.96259766 6.66859375 -0.86269531 5.9621875 -0.75976562 5.234375 C-0.51208041 3.48878393 -0.25676129 1.74427916 0 0 Z " fill="#6C62E0" transform="translate(364,148)"/>
<path d="M0 0 C0.66 0.33 1.32 0.66 2 1 C2 1.66 2 2.32 2 3 C2.99 3 3.98 3 5 3 C4.67 4.32 4.34 5.64 4 7 C4.66 7 5.32 7 6 7 C6 8.32 6 9.64 6 11 C5.01 11.33 4.02 11.66 3 12 C2.30062798 10.5682384 1.61587282 9.12932968 0.9375 7.6875 C0.55464844 6.88699219 0.17179687 6.08648437 -0.22265625 5.26171875 C-1 3 -1 3 0 0 Z " fill="#F0F2FD" transform="translate(329,112)"/>
<path d="M0 0 C-0.75 4.75 -0.75 4.75 -3 7 C-5.125 7.625 -5.125 7.625 -7 8 C-7.33 6.68 -7.66 5.36 -8 4 C-3.375 0 -3.375 0 0 0 Z " fill="#ECEEF9" transform="translate(202,80)"/>
<path d="M0 0 C0.66 0.33 1.32 0.66 2 1 C1.35546875 2.890625 1.35546875 2.890625 0 5 C-6.01935235 7.44793085 -12.53304089 8.44092903 -19 8 C-19 7.67 -19 7.34 -19 7 C-18.21496094 6.82984375 -17.42992187 6.6596875 -16.62109375 6.484375 C-9.46084165 4.87154932 -9.46084165 4.87154932 -2.875 1.75 C-1.92625 1.1725 -0.9775 0.595 0 0 Z " fill="#6D67CF" transform="translate(75,185)"/>
<path d="M0 0 C1.58294782 -0.05437607 3.16644256 -0.09296271 4.75 -0.125 C5.63171875 -0.14820312 6.5134375 -0.17140625 7.421875 -0.1953125 C10.1135858 0.00860498 11.69904974 0.63448279 14 2 C12.8553125 2.2165625 12.8553125 2.2165625 11.6875 2.4375 C8.91827092 2.9632594 8.91827092 2.9632594 6 4 C4.00038436 4.03920815 1.99950636 4.04443347 0 4 C0 2.68 0 1.36 0 0 Z " fill="#F9FAF0" transform="translate(192,105)"/>
<path d="M0 0 C1.07636719 0.04833984 2.15273438 0.09667969 3.26171875 0.14648438 C4.38964844 0.20255859 5.51757812 0.25863281 6.6796875 0.31640625 C7.81535156 0.36861328 8.95101562 0.42082031 10.12109375 0.47460938 C12.93255381 0.60455081 15.74368215 0.73952539 18.5546875 0.87890625 C18.5546875 1.20890625 18.5546875 1.53890625 18.5546875 1.87890625 C6.1796875 2.37390625 6.1796875 2.37390625 -6.4453125 2.87890625 C-6.7753125 2.21890625 -7.1053125 1.55890625 -7.4453125 0.87890625 C-4.79709238 -0.44520381 -2.95593056 -0.14001776 0 0 Z " fill="#7F79DD" transform="translate(34.4453125,192.12109375)"/>
<path d="M0 0 C1.74565111 3.21639654 2.204437 5.32013404 2 9 C1.01 9.33 0.02 9.66 -1 10 C-1.33 10.99 -1.66 11.98 -2 13 C-3.18771723 9.57056481 -2.80226223 7.62215325 -1.5625 4.25 C-1.27503906 3.45078125 -0.98757813 2.6515625 -0.69140625 1.828125 C-0.46324219 1.22484375 -0.23507812 0.6215625 0 0 Z " fill="#EEEDFB" transform="translate(376,107)"/>
<path d="M0 0 C1 2 1 2 0.375 4.4375 C-1.29339248 7.5467769 -2.98887889 8.26860536 -6 10 C-7.32793606 12.06700655 -7.32793606 12.06700655 -8 14 C-8.66 13.34 -9.32 12.68 -10 12 C-8.89847594 10.56047403 -7.7936696 9.12345929 -6.6875 7.6875 C-6.07261719 6.88699219 -5.45773437 6.08648437 -4.82421875 5.26171875 C-3.30083693 3.37298626 -1.75565593 1.66922364 0 0 Z " fill="#EEE9FD" transform="translate(390,88)"/>
<path d="M0 0 C0 0.66 0 1.32 0 2 C0.99 2.33 1.98 2.66 3 3 C3 4.65 3 6.3 3 8 C2.01 8.495 2.01 8.495 1 9 C0.6596875 7.88625 0.6596875 7.88625 0.3125 6.75 C-1.24407532 3.48860409 -3.08518854 2.07105025 -6 0 C-3.50907189 -1.24546405 -2.58919267 -0.7767578 0 0 Z " fill="#F1EFFD" transform="translate(56,150)"/>
<path d="M0 0 C2.64920076 0.94976983 5.29411973 1.90927908 7.9375 2.875 C8.69224609 3.14441406 9.44699219 3.41382813 10.22460938 3.69140625 C15.88671875 5.7734375 15.88671875 5.7734375 17 8 C12.72987817 8.35584349 11.31461709 7.55699032 8 5 C5.36768615 3.87403916 2.70507453 2.94677608 0 2 C0 1.34 0 0.68 0 0 Z " fill="#6960C5" transform="translate(36,145)"/>
<path d="M0 0 C2.475 0.495 2.475 0.495 5 1 C5.33 1.99 5.66 2.98 6 4 C6.66 4 7.32 4 8 4 C7.67 5.65 7.34 7.3 7 9 C5.29115995 7.37660195 3.62553283 5.70680947 2 4 C2 3.34 2 2.68 2 2 C1.34 2 0.68 2 0 2 C0 1.34 0 0.68 0 0 Z " fill="#E8E8FB" transform="translate(11,126)"/>
<path d="M0 0 C0.99 0.66 1.98 1.32 3 2 C1.9171875 2.5878125 1.9171875 2.5878125 0.8125 3.1875 C-2.12437907 4.93214994 -2.12437907 4.93214994 -4.5625 7.625 C-6.88362818 9.88661207 -7.86111862 10.6512354 -11 11 C-8.55226831 5.79857016 -4.59788619 3.17811135 0 0 Z " fill="#E7E7FB" transform="translate(25,84)"/>
<path d="M0 0 C-2.29576678 2.29576678 -3.90346249 3.0638375 -7 4 C-9.8125 3.625 -9.8125 3.625 -12 3 C-12 2.34 -12 1.68 -12 1 C-3.96428571 -1.27678571 -3.96428571 -1.27678571 0 0 Z " fill="#645DE2" transform="translate(236,70)"/>
<path d="M0 0 C2 1 2 1 2.6328125 2.78515625 C3.75543789 7.9795261 4.19321526 12.68658027 4 18 C1.84450721 13.68901442 0.8006039 10.75096672 0.4375 5.875 C0.35371094 4.77929688 0.26992187 3.68359375 0.18359375 2.5546875 C0.12300781 1.71164063 0.06242187 0.86859375 0 0 Z " fill="#655BE8" transform="translate(92,155)"/>
<path d="M0 0 C3.5718623 3.5718623 4 8.10186234 4 13 C3.34 13 2.68 13 2 13 C1.46845258 11.39935157 0.95011647 9.79431126 0.4375 8.1875 C0.14746094 7.29417969 -0.14257812 6.40085937 -0.44140625 5.48046875 C-1 3 -1 3 0 0 Z " fill="#E6E1FC" transform="translate(460,108)"/>
<path d="M0 0 C0.33 0.99 0.66 1.98 1 3 C0.21625 3.763125 -0.5675 4.52625 -1.375 5.3125 C-4.07257717 7.90891805 -4.07257717 7.90891805 -6 11 C-6.66 11 -7.32 11 -8 11 C-6.6402082 5.43721535 -6.6402082 5.43721535 -3.4375 3.25 C-2.2309375 2.63125 -2.2309375 2.63125 -1 2 C-0.67 1.34 -0.34 0.68 0 0 Z " fill="#6D62EA" transform="translate(355,177)"/>
<path d="M0 0 C2.62386487 3.06117568 3 3.73173127 3 8 C3.66 8 4.32 8 5 8 C5 7.34 5 6.68 5 6 C5.66 6 6.32 6 7 6 C6.67 7.32 6.34 8.64 6 10 C4.68 10 3.36 10 2 10 C2 9.34 2 8.68 2 8 C1.34 7.67 0.68 7.34 0 7 C0 4.66666667 0 2.33333333 0 0 Z " fill="#6A62F6" transform="translate(377,170)"/>
<path d="M0 0 C0.99 0.33 1.98 0.66 3 1 C3.33 2.65 3.66 4.3 4 6 C0.7 5.01 -2.6 4.02 -6 3 C-4 2 -2 1 0 0 Z " fill="#EEEBFC" transform="translate(79,107)"/>
<path d="M0 0 C-7.71428571 6 -7.71428571 6 -11 6 C-11 4.68 -11 3.36 -11 2 C-7.36576791 -0.32590854 -4.22911669 -0.16265833 0 0 Z " fill="#E2DDFD" transform="translate(310,106)"/>
<path d="M0 0 C0 0.99 0 1.98 0 3 C-3.96 3 -7.92 3 -12 3 C-7.58119757 0.05413171 -5.32232661 -0.0985616 0 0 Z " fill="#FBFDEC" transform="translate(113,59)"/>
<path d="M0 0 C-0.33 0.66 -0.66 1.32 -1 2 C-3.21484375 2.484375 -3.21484375 2.484375 -5.9375 2.75 C-6.83339844 2.84796875 -7.72929688 2.9459375 -8.65234375 3.046875 C-11 3 -11 3 -13 1 C-11.58622218 0.63447197 -10.16879424 0.28304505 -8.75 -0.0625 C-7.96109375 -0.25972656 -7.1721875 -0.45695312 -6.359375 -0.66015625 C-3.89605178 -1.01497267 -2.34395868 -0.76877544 0 0 Z " fill="#E8EBFC" transform="translate(113,57)"/>
<path d="M0 0 C6.0546875 -0.1953125 6.0546875 -0.1953125 8 0 C8.66 0.66 9.32 1.32 10 2 C6.26562152 2.87867729 2.83225427 3.08912219 -1 3 C-0.67 2.01 -0.34 1.02 0 0 Z " fill="#FAFBED" transform="translate(398,85)"/>
<path d="M0 0 C4.23092172 -0.36265043 6.62637846 0.39749195 10 3 C10 3.99 10 4.98 10 6 C5.56909529 4.79157144 3.01887244 3.48331435 0 0 Z " fill="#E7E3F9" transform="translate(106,185)"/>
<path d="M0 0 C0.99 0.33 1.98 0.66 3 1 C3.66 0.67 4.32 0.34 5 0 C5 0.66 5 1.32 5 2 C5.99 2.33 6.98 2.66 8 3 C8.66 3.66 9.32 4.32 10 5 C5.28596212 4.52060632 1.33420699 4.03165952 -3 2 C-2.01 1.34 -1.02 0.68 0 0 Z " fill="#E2E2FB" transform="translate(16,186)"/>
<path d="M0 0 C1.66666667 3.33333333 3.33333333 6.66666667 5 10 C3.35 9.67 1.7 9.34 0 9 C0 8.34 0 7.68 0 7 C-0.66 7 -1.32 7 -2 7 C-1.34 4.69 -0.68 2.38 0 0 Z " fill="#E6E5FA" transform="translate(403,150)"/>
<path d="M0 0 C2.34075925 3.51113888 2.70663502 5.8195491 3 10 C2.015625 12.22265625 2.015625 12.22265625 1 14 C0.63906896 11.85529407 0.28642411 9.70919203 -0.0625 7.5625 C-0.25972656 6.36753906 -0.45695312 5.17257813 -0.66015625 3.94140625 C-0.77230469 2.97074219 -0.88445312 2.00007813 -1 1 C-0.67 0.67 -0.34 0.34 0 0 Z " fill="#EBE8FD" transform="translate(361,110)"/>
<path d="M0 0 C0.99 0.33 1.98 0.66 3 1 C2.484375 1.391875 1.96875 1.78375 1.4375 2.1875 C-0.29423311 3.95098397 -0.29423311 3.95098397 0.1875 6.5625 C0.84627033 9.14441272 0.84627033 9.14441272 3 11 C0.13275314 10.42655063 -0.8614515 10.1385485 -3 8 C-2.75 4.4375 -2.75 4.4375 -2 1 C-1.34 0.67 -0.68 0.34 0 0 Z " fill="#6962BA" transform="translate(44,107)"/>
<path d="M0 0 C4.29 0.33 8.58 0.66 13 1 C13 1.33 13 1.66 13 2 C11.94039062 2.13277344 10.88078125 2.26554687 9.7890625 2.40234375 C8.40101721 2.58053875 7.01299769 2.7589346 5.625 2.9375 C4.92632812 3.02451172 4.22765625 3.11152344 3.5078125 3.20117188 C-0.36783575 3.66318128 -0.36783575 3.66318128 -4 5 C-4.33 4.01 -4.66 3.02 -5 2 C-3.35 1.67 -1.7 1.34 0 1 C0 0.67 0 0.34 0 0 Z " fill="#D6D4F7" transform="translate(200,107)"/>
<path d="M0 0 C1.98 0 3.96 0 6 0 C6 0.66 6 1.32 6 2 C3.35261084 3.4606285 2.10551666 4 -1 4 C-1 5.65 -1 7.3 -1 9 C-1.33 9 -1.66 9 -2 9 C-2 6.69 -2 4.38 -2 2 C-1.34 2 -0.68 2 0 2 C0 1.34 0 0.68 0 0 Z " fill="#685DEF" transform="translate(389,82)"/>
<path d="M0 0 C2.97 0.495 2.97 0.495 6 1 C2.79663178 3.83374881 0.21912747 4.5205537 -4 5 C-4 4.01 -4 3.02 -4 2 C-2.68 2 -1.36 2 0 2 C0 1.34 0 0.68 0 0 Z " fill="#E6E7FC" transform="translate(450,185)"/>
<path d="M0 0 C0.99 0.33 1.98 0.66 3 1 C3 2.65 3 4.3 3 6 C1.68 6.33 0.36 6.66 -1 7 C-1.04254356 5.00045254 -1.04080783 2.99958364 -1 1 C-0.67 0.67 -0.34 0.34 0 0 Z " fill="#645EEA" transform="translate(3,100)"/>
<path d="M0 0 C-2.34545328 2.34545328 -3.95985838 2.95508888 -7.26171875 3.09765625 C-8.06222656 3.08605469 -8.86273438 3.07445312 -9.6875 3.0625 C-10.89986328 3.04896484 -10.89986328 3.04896484 -12.13671875 3.03515625 C-13.05904297 3.01775391 -13.05904297 3.01775391 -14 3 C-9.12941325 0.48073099 -5.50946709 -0.10395221 0 0 Z " fill="#786CDC" transform="translate(284,225)"/>
<path d="M0 0 C2.46800047 1.15173355 4.04783565 2.04783565 6 4 C4.68 4 3.36 4 2 4 C1.67 4.99 1.34 5.98 1 7 C0.34 7 -0.32 7 -1 7 C-0.67 4.69 -0.34 2.38 0 0 Z " fill="#665EE4" transform="translate(389,183)"/>
<path d="M0 0 C0.99 0.99 1.98 1.98 3 3 C2.34 3.66 1.68 4.32 1 5 C-1.72869407 4.96712417 -4.2966618 4.43602229 -7 4 C-4 2 -4 2 0 2 C0 1.34 0 0.68 0 0 Z " fill="#F7FBEC" transform="translate(325,164)"/>
<path d="M0 0 C2.64 1.32 5.28 2.64 8 4 C2.76844369 6.61577816 1.40261966 5.6207859 -4 4 C-2.68 3.67 -1.36 3.34 0 3 C0 2.01 0 1.02 0 0 Z " fill="#ECE9FB" transform="translate(300,160)"/>
<path d="M0 0 C0.66 0.33 1.32 0.66 2 1 C2.66 1 3.32 1 4 1 C4.33 1.99 4.66 2.98 5 4 C4.67 4.33 4.34 4.66 4 5 C1.66055264 4.71269945 -0.6739143 4.38063221 -3 4 C-2.01 2.68 -1.02 1.36 0 0 Z " fill="#6456EB" transform="translate(121,48)"/>
<path d="M0 0 C-0.33 1.65 -0.66 3.3 -1 5 C-1.66 4.67 -2.32 4.34 -3 4 C-3.66 4 -4.32 4 -5 4 C-5.66666667 2.66666667 -6.33333333 1.33333333 -7 0 C-4.3333581 -1.33332095 -2.83319697 -0.67102033 0 0 Z " fill="#7163F0" transform="translate(56,154)"/>
<path d="M0 0 C0 0.66 0 1.32 0 2 C-2.97 2 -5.94 2 -9 2 C-9.33 1.34 -9.66 0.68 -10 0 C-6.30581799 -1.231394 -3.7943739 -0.64432764 0 0 Z " fill="#F9FCE9" transform="translate(245,44)"/>
<path d="M0 0 C0.33 0.66 0.66 1.32 1 2 C1.99 2 2.98 2 4 2 C3.67 3.32 3.34 4.64 3 6 C2.34 6 1.68 6 1 6 C1.33 6.99 1.66 7.98 2 9 C1.34 9 0.68 9 0 9 C0 6.03 0 3.06 0 0 Z " fill="#645AEC" transform="translate(460,176)"/>
<path d="M0 0 C0 0.99 0 1.98 0 3 C-0.99 3.33 -1.98 3.66 -3 4 C-3 3.34 -3 2.68 -3 2 C-6.63 2 -10.26 2 -14 2 C-14 1.67 -14 1.34 -14 1 C-12.22932584 0.83165067 -10.45845388 0.66538091 -8.6875 0.5 C-7.70136719 0.4071875 -6.71523437 0.314375 -5.69921875 0.21875 C-3 0 -3 0 0 0 Z " fill="#CDCBF7" transform="translate(150,164)"/>
<path d="M0 0 C0.99 0.33 1.98 0.66 3 1 C2.74438677 3.3431213 2.40729228 5.67843403 2 8 C1.01 8.495 1.01 8.495 0 9 C0 6.03 0 3.06 0 0 Z " fill="#6760EA" transform="translate(0,152)"/>
<path d="M0 0 C2.9375 0.375 2.9375 0.375 6 1 C6.33 1.66 6.66 2.32 7 3 C7.99 3.33 8.98 3.66 10 4 C10 4.66 10 5.32 10 6 C3.47692308 4.52307692 3.47692308 4.52307692 1.0625 1.875 C0.711875 1.25625 0.36125 0.6375 0 0 Z " fill="#6861DA" transform="translate(66,124)"/>
<path d="M0 0 C0.8353125 0.37125 0.8353125 0.37125 1.6875 0.75 C0.0375 1.41 -1.6125 2.07 -3.3125 2.75 C-3.3125 3.41 -3.3125 4.07 -3.3125 4.75 C-3.9725 4.75 -4.6325 4.75 -5.3125 4.75 C-5.3125 5.41 -5.3125 6.07 -5.3125 6.75 C-5.9725 6.75 -6.6325 6.75 -7.3125 6.75 C-7.3125 5.76 -7.3125 4.77 -7.3125 3.75 C-3.21493902 -0.34756098 -3.21493902 -0.34756098 0 0 Z " fill="#736ECE" transform="translate(200.3125,110.25)"/>
<path d="M0 0 C3.87540045 -0.17615457 6.75515269 -0.28341107 10 2 C10.33 2.99 10.66 3.98 11 5 C7.40052181 5 6.74899383 4.16587393 4 2 C2.68163705 1.30419733 1.35208914 0.62775567 0 0 Z " fill="#E5E7FD" transform="translate(317,106)"/>
<path d="M0 0 C0.66 0.33 1.32 0.66 2 1 C1.525625 1.86625 1.05125 2.7325 0.5625 3.625 C-0.93234895 6.85387374 -1.58218313 9.49033826 -2 13 C-2.33 13 -2.66 13 -3 13 C-3.27429625 7.60550707 -3.36055646 4.48074195 0 0 Z " fill="#7773D4" transform="translate(12,95)"/>
<path d="M0 0 C2.31 0 4.62 0 7 0 C7 1.32 7 2.64 7 4 C4.36 3.67 1.72 3.34 -1 3 C-0.67 2.01 -0.34 1.02 0 0 Z " fill="#F7FAEA" transform="translate(74,85)"/>
<path d="M0 0 C0.99 0.33 1.98 0.66 3 1 C3 1.66 3 2.32 3 3 C3.66 3.66 4.32 4.32 5 5 C2.36 4.67 -0.28 4.34 -3 4 C-3 3.34 -3 2.68 -3 2 C-2.01 2 -1.02 2 0 2 C0 1.34 0 0.68 0 0 Z " fill="#6F63E3" transform="translate(429,75)"/>
<path d="M0 0 C0.66 0.99 1.32 1.98 2 3 C0.625 5.5 0.625 5.5 -1 8 C-1.66 8 -2.32 8 -3 8 C-3 7.01 -3 6.02 -3 5 C-3.66 4.67 -4.32 4.34 -5 4 C-4.360625 3.71125 -3.72125 3.4225 -3.0625 3.125 C-0.84793921 2.17176549 -0.84793921 2.17176549 0 0 Z " fill="#F4F5F3" transform="translate(61,157)"/>
<path d="M0 0 C2.61500768 2.36595933 4.38999603 4.86049226 6 8 C5.67 8.66 5.34 9.32 5 10 C0 4.5 0 4.5 0 0 Z " fill="#E2E1F9" transform="translate(354,96)"/>
<path d="M0 0 C0.6875 1.6875 0.6875 1.6875 1 4 C-0.3125 6.75 -0.3125 6.75 -2 9 C-2.66 9 -3.32 9 -4 9 C-3.67 7.02 -3.34 5.04 -3 3 C-2.34 3 -1.68 3 -1 3 C-0.67 2.01 -0.34 1.02 0 0 Z " fill="#6860DD" transform="translate(381,94)"/>
<path d="M0 0 C2.97 1.98 2.97 1.98 6 4 C4.35 5.32 2.7 6.64 1 8 C0.67 5.36 0.34 2.72 0 0 Z " fill="#7169CC" transform="translate(296,80)"/>
<path d="M0 0 C0.33 0.66 0.66 1.32 1 2 C2.98 1.34 4.96 0.68 7 0 C6.67 0.99 6.34 1.98 6 3 C2.9375 4.1875 2.9375 4.1875 0 5 C-0.5625 3.0625 -0.5625 3.0625 -1 1 C-0.67 0.67 -0.34 0.34 0 0 Z " fill="#625CF0" transform="translate(345,187)"/>
<path d="M0 0 C2.475 0.495 2.475 0.495 5 1 C5.33 1.99 5.66 2.98 6 4 C4.02 4 2.04 4 0 4 C0 2.68 0 1.36 0 0 Z " fill="#FBFCEC" transform="translate(112,183)"/>
<path d="M0 0 C0.66 0.33 1.32 0.66 2 1 C2 2.98 2 4.96 2 7 C1.01 7 0.02 7 -1 7 C-1.04254356 5.00045254 -1.04080783 2.99958364 -1 1 C-0.67 0.67 -0.34 0.34 0 0 Z " fill="#F9FCEE" transform="translate(123,153)"/>
<path d="M0 0 C1.48484412 0.39595843 2.9628831 0.81750706 4.4375 1.25 C5.26121094 1.48203125 6.08492188 1.7140625 6.93359375 1.953125 C9 3 9 3 9.78515625 5.109375 C9.85605469 5.73328125 9.92695312 6.3571875 10 7 C9.34 7 8.68 7 8 7 C7 6 6 5 5 4 C3.33675599 2.99431758 1.67063747 1.99335201 0 1 C0 0.67 0 0.34 0 0 Z " fill="#736DCA" transform="translate(72,129)"/>
<path d="M0 0 C0.66 0.33 1.32 0.66 2 1 C0.35 2.98 -1.3 4.96 -3 7 C-3.66 6.01 -4.32 5.02 -5 4 C-4.34 4 -3.68 4 -3 4 C-3 3.34 -3 2.68 -3 2 C-2.01 1.34 -1.02 0.68 0 0 Z " fill="#E6E6FD" transform="translate(82,176)"/>
<path d="M0 0 C0.66 0 1.32 0 2 0 C3.32 2.64 4.64 5.28 6 8 C5.01 8.495 5.01 8.495 4 9 C0 2.25 0 2.25 0 0 Z " fill="#EAE5FD" transform="translate(98,173)"/>
<path d="M0 0 C2.59482129 2.59482129 2.69990302 4.39883625 3 8 C2.34 8.66 1.68 9.32 1 10 C0 9 0 9 -0.09765625 6.93359375 C-0.08605469 6.10988281 -0.07445312 5.28617187 -0.0625 4.4375 C-0.05347656 3.61121094 -0.04445313 2.78492187 -0.03515625 1.93359375 C-0.02355469 1.29550781 -0.01195312 0.65742187 0 0 Z " fill="#FAFDEC" transform="translate(12,113)"/>
<path d="M0 0 C0.99 0.99 1.98 1.98 3 3 C2.34 3 1.68 3 1 3 C1 3.66 1 4.32 1 5 C-0.65 5 -2.3 5 -4 5 C-4 4.01 -4 3.02 -4 2 C-2.68 2 -1.36 2 0 2 C0 1.34 0 0.68 0 0 Z " fill="#6158E6" transform="translate(84,112)"/>
<path d="M0 0 C0.66 0.99 1.32 1.98 2 3 C-3.53846154 3.36923077 -3.53846154 3.36923077 -5.875 1.5 C-6.24625 1.005 -6.6175 0.51 -7 0 C-3.86559131 -1.0448029 -2.97903963 -1.15317663 0 0 Z " fill="#675EDC" transform="translate(322,108)"/>
<path d="M0 0 C0 0.99 0 1.98 0 3 C-2.64 2.67 -5.28 2.34 -8 2 C-4.77208445 -0.1519437 -3.71599191 -0.20086443 0 0 Z " fill="#FEFFEF" transform="translate(64,101)"/>
<path d="M0 0 C2.0625 1.6875 2.0625 1.6875 4 4 C3.75 6.75 3.75 6.75 3 9 C2.67 7.68 2.34 6.36 2 5 C1.34 5 0.68 5 0 5 C-0.5625 3.0625 -0.5625 3.0625 -1 1 C-0.67 0.67 -0.34 0.34 0 0 Z " fill="#EEEBFB" transform="translate(450,91)"/>
<path d="M0 0 C1.98 0 3.96 0 6 0 C5.67 0.99 5.34 1.98 5 3 C3.02 3 1.04 3 -1 3 C-0.67 2.01 -0.34 1.02 0 0 Z " fill="#655EF0" transform="translate(234,34)"/>
<path d="M0 0 C0.33 0.99 0.66 1.98 1 3 C-3.625 5.125 -3.625 5.125 -7 4 C-4.82575883 1.49962266 -3.26954202 0.56371414 0 0 Z " fill="#EBE7FD" transform="translate(149,187)"/>
<path d="M0 0 C2.8992226 0.46761655 3.86675182 0.86675182 6 3 C6 3.66 6 4.32 6 5 C3.08482708 3.92598892 1.22189824 3.22189824 -1 1 C-0.67 0.67 -0.34 0.34 0 0 Z " fill="#ECEBFB" transform="translate(300,184)"/>
<path d="M0 0 C2.475 0.99 2.475 0.99 5 2 C5 2.66 5 3.32 5 4 C3.02 4 1.04 4 -1 4 C-0.67 2.68 -0.34 1.36 0 0 Z " fill="#FEFFED" transform="translate(297,172)"/>
<path d="M0 0 C0.66 0 1.32 0 2 0 C0.25 5.75 0.25 5.75 -2 8 C-2.125 5.125 -2.125 5.125 -2 2 C-1.34 1.34 -0.68 0.68 0 0 Z " fill="#E7E7FE" transform="translate(86,168)"/>
<path d="M0 0 C0.33 0 0.66 0 1 0 C0.67 2.97 0.34 5.94 0 9 C-1.32 9.33 -2.64 9.66 -4 10 C-3.525625 9.278125 -3.05125 8.55625 -2.5625 7.8125 C-1.05847097 5.10524774 -0.43400818 3.03805725 0 0 Z " fill="#F3F3FE" transform="translate(88,159)"/>
<path d="M0 0 C1.64826111 2.96687001 2.44271087 5.65626525 3 9 C2.01 8.67 1.02 8.34 0 8 C-0.38063221 5.6739143 -0.71269945 3.33944736 -1 1 C-0.67 0.67 -0.34 0.34 0 0 Z " fill="#7067DB" transform="translate(372,153)"/>
<path d="M0 0 C5.53846154 0.61538462 5.53846154 0.61538462 7.875 2.5625 C8.431875 3.2740625 8.431875 3.2740625 9 4 C5.37471432 4.20140476 3.13498292 3.85776765 0 2 C0 1.34 0 0.68 0 0 Z " fill="#E9E7FC" transform="translate(71,131)"/>
<path d="M0 0 C-2.93127462 1.95418308 -4.55834679 2.64700993 -8 3 C-8.66 2.34 -9.32 1.68 -10 1 C-6.78548731 -0.60725635 -3.56387464 -0.05748185 0 0 Z " fill="#6960D1" transform="translate(256,65)"/>
</svg>
